<svg xmlns="http://www.w3.org/2000/svg" xmlns:xlink="http://www.w3.org/1999/xlink" viewBox="0 0 83.75 83.75"><defs><style>.cls-1,.cls-3{fill:none;}.cls-2{clip-path:url(#clip-path);}.cls-3{stroke:#fff;stroke-linecap:round;stroke-linejoin:round;stroke-width:4px;}</style><clipPath id="clip-path" transform="translate(-412.8 -3098.7)"><rect class="cls-1" width="1920" height="4456"/></clipPath></defs><g id="Ebene_2" data-name="Ebene 2"><g id="Ebene_1-2" data-name="Ebene 1"><g class="cls-2"><path class="cls-3" d="M457.73,3180.45h12.36m-26-79.75h36.58a13.9,13.9,0,0,1,13.9,13.9v26m0,11.74v14.22a13.9,13.9,0,0,1-13.9,13.91H470.09v-30.57H480l1.62-11.87H470.09v-8.86a4.46,4.46,0,0,1,4.47-4.47h7.71V3113.3h-14a10.52,10.52,0,0,0-10.52,10.53V3138H447.49l-.33,11.87h10.57v30.57h-29a13.91,13.91,0,0,1-13.9-13.33m0-11V3114.6a13.9,13.9,0,0,1,13.91-13.9h6" transform="translate(-412.8 -3098.7)"/></g></g></g></svg>