<svg xmlns="http://www.w3.org/2000/svg" viewBox="0 0 221.63 203.36"><defs><style>.cls-1{fill:#fff;}</style></defs><g id="Ebene_2" data-name="Ebene 2"><g id="Ebene_1-2" data-name="Ebene 1"><path class="cls-1" d="M66.35,120.2a1.81,1.81,0,0,1-.65-.11,1.92,1.92,0,0,1-1.15-2.44l11.9-33L73.73,49.7a1.91,1.91,0,1,1,3.8-.3l2.76,35.32a2,2,0,0,1-.11.8l-12,33.42A1.9,1.9,0,0,1,66.35,120.2Zm-16,0h-.19a1.9,1.9,0,0,1-1.7-2.09l1.5-14.64h0l5.54-53.78a29,29,0,0,1,22-25.17l15-3.61,0-19A1.9,1.9,0,0,1,94.41,0h0a1.91,1.91,0,0,1,1.9,1.91l0,20.49a1.92,1.92,0,0,1-1.46,1.85L78.38,28.2A25.16,25.16,0,0,0,59.26,50.06l-5.54,53.78h0l-1.5,14.64A1.91,1.91,0,0,1,50.32,120.2Zm116.39,0a1.9,1.9,0,0,1-1.89-1.73L158.3,47.35a21.21,21.21,0,0,0-16.55-18.82l-19-4.25a1.93,1.93,0,0,1-1.49-1.88l.22-20.52a1.91,1.91,0,0,1,3.81,0l-.2,19,17.54,3.91A25,25,0,0,1,162.09,47l6.52,71.12a1.91,1.91,0,0,1-1.72,2.08Zm-58.19,0a1.9,1.9,0,0,1-1.91-1.9V113a1.91,1.91,0,0,1,3.81,0v5.34A1.9,1.9,0,0,1,108.52,120.2Zm42.42-.77a1.91,1.91,0,0,1-1.8-1.26l-12-33.42a2,2,0,0,1-.1-.8l2.75-35.32a1.91,1.91,0,0,1,3.8.3l-2.72,34.91,11.9,33a1.92,1.92,0,0,1-1.15,2.44A1.8,1.8,0,0,1,150.94,119.43ZM127.92,62h-1.27a1.91,1.91,0,0,1,0-3.81h1.27a1.91,1.91,0,0,1,0,3.81ZM90.56,62H89.12a1.91,1.91,0,1,1,0-3.81h1.44a1.91,1.91,0,1,1,0,3.81Z"/><path class="cls-1" d="M22.19,185.69,9.85,170.5v15.19H0V131.91H9.85v29.41l8.88-10.68H31.36L17.67,166.06l16.78,19.63Z"/><path class="cls-1" d="M33.69,168.09c0-11.13,8.88-18.35,18.88-18.35S71.45,157,71.45,168.09s-8.88,18.27-18.88,18.27S33.69,179.14,33.69,168.09Zm5.87-29.56a5.15,5.15,0,0,1,5.34-5,5.08,5.08,0,1,1,0,10.16A5.17,5.17,0,0,1,39.56,138.53Zm21.88,29.56a8.88,8.88,0,1,0-8.87,9.1A8.78,8.78,0,0,0,61.44,168.09Zm-6.31-29.56a5.17,5.17,0,0,1,5.41-5,5.08,5.08,0,1,1,0,10.16A5.19,5.19,0,0,1,55.13,138.53Z"/><path class="cls-1" d="M104.16,150.87l-2.26,9.4a10.18,10.18,0,0,0-5-1.28c-5,0-8.49,4.66-8.49,14.66v12H78.51V150.64h9.78v7.45c2-5.87,5.94-8.35,10.3-8.35A12.49,12.49,0,0,1,104.16,150.87Z"/><path class="cls-1" d="M147.18,168.09c0,11.28-8.2,18.27-17.23,18.27-4,0-8.8-1.5-11.28-5v21.58h-9.85V150.64h9.85v4.21c2.48-3.53,7.3-5.11,11.28-5.11C139,149.74,147.18,156.81,147.18,168.09Zm-10.08,0a9.07,9.07,0,1,0-9,9A8.9,8.9,0,0,0,137.1,168.09Z"/><path class="cls-1" d="M188.91,171.32H162.44c1.05,4.06,4.36,6.32,9.1,6.32a12.2,12.2,0,0,0,9.18-3.91l5.79,5.79c-3.31,4.44-9.48,6.84-15.65,6.84-10.75,0-18.65-7.37-18.65-18.2,0-11.35,8.58-18.42,18.65-18.42s18.2,7.07,18.2,17.82C189.06,168.54,189,169.74,188.91,171.32Zm-9.7-6.39c-.3-4.14-3.76-6.62-8.2-6.62-4,0-7.52,1.88-8.57,6.62Z"/><path class="cls-1" d="M221.63,150.87l-2.26,9.4a10.23,10.23,0,0,0-5-1.28c-5,0-8.5,4.66-8.5,14.66v12H196V150.64h9.78v7.45c2-5.87,5.94-8.35,10.3-8.35A12.49,12.49,0,0,1,221.63,150.87Z"/><path class="cls-1" d="M6.16,192.28v8.43H5v-.82a2.18,2.18,0,0,1-1.88.94,2.85,2.85,0,0,1,0-5.7,2.13,2.13,0,0,1,1.89.92v-3.77ZM5,198a1.73,1.73,0,0,0-1.74-1.75A1.69,1.69,0,0,0,1.56,198,1.72,1.72,0,1,0,5,198Z"/><path class="cls-1" d="M13.39,195.24v5.47H12.24v-.82a2.18,2.18,0,0,1-1.88.94A2.71,2.71,0,0,1,7.64,198a2.68,2.68,0,0,1,2.7-2.84,2.14,2.14,0,0,1,1.9.92v-.81ZM12.23,198a1.74,1.74,0,0,0-1.75-1.75A1.68,1.68,0,0,0,8.79,198a1.72,1.72,0,1,0,3.44,0Z"/><path class="cls-1" d="M14.81,199.05h1.07c0,.43.38.8,1,.8s1-.29,1-.7-.29-.55-.7-.64l-.74-.18c-1-.27-1.49-.79-1.49-1.6a1.76,1.76,0,0,1,2-1.6,1.73,1.73,0,0,1,1.94,1.63h-1.1a.76.76,0,0,0-.82-.66.72.72,0,0,0-.81.66c0,.34.32.53.66.61l.83.2a1.6,1.6,0,0,1,1.43,1.6c0,1.05-1,1.66-2.16,1.66A1.94,1.94,0,0,1,14.81,199.05Z"/><path class="cls-1" d="M29.27,198a2.69,2.69,0,0,1-2.72,2.85,2.14,2.14,0,0,1-1.89-.93v3.46H23.51v-8.12h1.15v.82a2.19,2.19,0,0,1,1.89-.93A2.7,2.7,0,0,1,29.27,198Zm-1.16,0a1.72,1.72,0,1,0-3.44,0,1.73,1.73,0,0,0,1.74,1.75A1.68,1.68,0,0,0,28.11,198Z"/><path class="cls-1" d="M35.85,197.58v3.13H34.71v-3a1.26,1.26,0,0,0-1.24-1.41,1.47,1.47,0,0,0-1.58,1.53v2.92H30.74v-8.43h1.15v3.79a2,2,0,0,1,1.78-.94C35.05,195.13,35.87,196,35.85,197.58Z"/><path class="cls-1" d="M42.42,195.24,39,203.36H37.8L39,200.47l-2.18-5.23H38l1.57,3.81,1.57-3.81Z"/><path class="cls-1" d="M43,199.05h1.06c0,.43.39.8,1,.8s1-.29,1-.7-.3-.55-.71-.64l-.73-.18c-1-.27-1.49-.79-1.49-1.6a1.75,1.75,0,0,1,1.94-1.6A1.73,1.73,0,0,1,47,196.76H45.93a.75.75,0,0,0-.81-.66.72.72,0,0,0-.81.66c0,.34.31.53.65.61l.83.2a1.6,1.6,0,0,1,1.43,1.6c0,1.05-1,1.66-2.15,1.66A1.94,1.94,0,0,1,43,199.05Z"/><path class="cls-1" d="M48.46,193.25a.79.79,0,1,1,.78.74A.76.76,0,0,1,48.46,193.25Zm.21,2h1.15v5.47H48.67Z"/><path class="cls-1" d="M51.25,199.05h1.07c0,.43.39.8,1,.8s1-.29,1-.7-.29-.55-.7-.64l-.74-.18c-1-.27-1.48-.79-1.48-1.6a1.75,1.75,0,0,1,1.94-1.6,1.73,1.73,0,0,1,1.94,1.63H54.2a.76.76,0,0,0-.82-.66.71.71,0,0,0-.8.66c0,.34.31.53.65.61l.83.2a1.6,1.6,0,0,1,1.43,1.6c0,1.05-1,1.66-2.15,1.66A2,2,0,0,1,51.25,199.05Z"/><path class="cls-1" d="M56.6,198a2.83,2.83,0,0,1,2.95-2.84,2.75,2.75,0,0,1,2.13.93l-.76.72a1.78,1.78,0,0,0-1.35-.58,1.77,1.77,0,1,0,0,3.54,1.82,1.82,0,0,0,1.35-.58l.76.72a2.75,2.75,0,0,1-2.13.93A2.83,2.83,0,0,1,56.6,198Z"/><path class="cls-1" d="M68.15,197.58v3.13H67v-3a1.26,1.26,0,0,0-1.24-1.41,1.47,1.47,0,0,0-1.58,1.53v2.92H63v-8.43h1.15v3.79a2,2,0,0,1,1.78-.94C67.34,195.13,68.16,196,68.15,197.58Z"/><path class="cls-1" d="M75.08,198.44H70.73a1.55,1.55,0,0,0,1.7,1.32A1.75,1.75,0,0,0,74,199l.91.45a2.86,2.86,0,1,1-2.5-4.31A2.66,2.66,0,0,1,75.11,198,4.42,4.42,0,0,1,75.08,198.44ZM74,197.51a1.47,1.47,0,0,0-1.58-1.32,1.53,1.53,0,0,0-1.64,1.32Z"/></g></g></svg>