<svg xmlns="http://www.w3.org/2000/svg" viewBox="0 0 147 181.21"><defs><style>.cls-1{fill:#fff;}</style></defs><g id="Ebene_2" data-name="Ebene 2"><g id="Ebene_1-2" data-name="Ebene 1"><path class="cls-1" d="M25.64,105a1.77,1.77,0,0,1-.67-.13,1.91,1.91,0,0,1-1.11-2.45L33.82,76A48.35,48.35,0,0,1,17.44,51.22a1.9,1.9,0,1,1,3.67-1A44.66,44.66,0,0,0,37.25,73.85,1.9,1.9,0,0,1,37.88,76L27.43,103.76A1.91,1.91,0,0,1,25.64,105Zm47.43,0a1.86,1.86,0,0,1-1-.27,1.89,1.89,0,0,1-.68-2.6L82.27,83.64a1.91,1.91,0,0,1,1.64-.94H100.6a7.54,7.54,0,0,0,7.54-7.53V61.5a1.9,1.9,0,0,1,1.9-1.9h10a1.4,1.4,0,0,0,1.14-2.21L108.49,39.5a1.87,1.87,0,0,1-.35-1.1,44.08,44.08,0,0,0-7.57-24.77,1.91,1.91,0,0,1,3.16-2.13,47.9,47.9,0,0,1,8.21,26.29l12.34,17.4A5.21,5.21,0,0,1,120,63.41H112V75.17A11.36,11.36,0,0,1,100.6,86.51H85L74.71,104.06A1.9,1.9,0,0,1,73.07,105ZM58.92,63.64H52.85A1.91,1.91,0,0,1,51,61.73v-4c-4.63,1.07-8.45.68-11.37-1.18A11.05,11.05,0,0,1,35,50.22c-2-1-6.35-3.57-8.12-8.6-1.56-4.42-.73-9.47,2.45-15a10.39,10.39,0,0,1,.58-7.72A9.46,9.46,0,0,1,36,14.48a6.75,6.75,0,0,1,1.33-4.14C39,8.18,41.9,7.07,46.09,7a5.8,5.8,0,0,1,2.4-2.7A5.23,5.23,0,0,1,52,3.87,9.4,9.4,0,0,1,56.92.28a8.76,8.76,0,0,1,6.79,1.08C68.15-.13,76.26-.17,81.19,8.56A8.4,8.4,0,0,1,87.82,13a11.1,11.1,0,0,1,5.68,4.82,9.77,9.77,0,0,1,.61,7.27,5.93,5.93,0,0,1,.82,3.67,4.94,4.94,0,0,1-1.49,2.91,7.76,7.76,0,0,1-2,4.88c-2,2.22-5.32,3.37-9.79,3.43a9.56,9.56,0,0,1-2.93,5.48c-2.86,2.61-7.35,3.48-13.34,2.58-1,.93-3.45,4.24-4.52,13.91A1.91,1.91,0,0,1,58.92,63.64Zm-4.16-3.81h2.48C58.17,53,59.83,49.15,61.3,47a5.9,5.9,0,0,1-3.24-4.26A1.91,1.91,0,0,1,61.82,42c.33,1.89,3,2.07,3.12,2.08a.91.91,0,0,1,.23,0c5.11.88,8.89.36,10.94-1.52A6,6,0,0,0,78,38.18a1.87,1.87,0,0,1,.53-1.48,1.89,1.89,0,0,1,1.46-.57c4.17.2,7.17-.54,8.65-2.16a4,4,0,0,0,1-2.91,1.9,1.9,0,0,1,.78-1.82c.66-.47.71-.85.73-1a2.71,2.71,0,0,0-.59-1.68,1.91,1.91,0,0,1-.33-1.81,6.51,6.51,0,0,0-.09-5.16A7.61,7.61,0,0,0,86,16.37a1.87,1.87,0,0,1-1.16-1,6.05,6.05,0,0,0-2.38-2.6c.25,3.66-1,8.73-6.81,12.19a1.9,1.9,0,0,1-2-3.27c6.47-3.86,4.86-9.72,4.6-10.52-4.94-9.81-13.65-6.17-14-6a1.94,1.94,0,0,1-1.81-.16A5.58,5.58,0,0,0,58,4a6.37,6.37,0,0,0-3.4,3,1.91,1.91,0,0,1-2.45.92,2.33,2.33,0,0,0-1.79-.19,2.66,2.66,0,0,0-1,1.63,1.92,1.92,0,0,1-2,1.55c-3.52-.16-6,.47-7,1.76a2.79,2.79,0,0,0-.56,1.57,7,7,0,0,1,5.93,4.74,1.91,1.91,0,0,1-3.68,1c-.07-.24-.75-2-3.8-2.07-2.52.44-4.2,1.39-5,2.82C32,23,33.16,26,33.17,26.07a2,2,0,0,1-.13,1.7c-2.93,4.85-3.79,9.07-2.58,12.55,1.66,4.77,6.8,6.74,6.85,6.76a1.92,1.92,0,0,1,1.23,1.55,7.37,7.37,0,0,0,3.12,4.77c2.43,1.52,6,1.54,10.61.05a1.94,1.94,0,0,1,1.71.28,1.9,1.9,0,0,1,.78,1.54ZM45.85,41.39a1.91,1.91,0,0,1-.15-3.81,5.64,5.64,0,0,0,3.72-2.27A8.94,8.94,0,0,0,51,31.11a1.91,1.91,0,0,1,3.78.5,12.61,12.61,0,0,1-2.28,6A9.48,9.48,0,0,1,46,41.38Zm25.26-5.16a1.91,1.91,0,0,1-1.76-1.17A4.29,4.29,0,0,0,67.1,32.4a3.18,3.18,0,0,0-2.33.25,1.93,1.93,0,0,1-2.59-.72,1.9,1.9,0,0,1,.69-2.58,6.89,6.89,0,0,1,5.42-.57c2,.67,3.53,2.29,4.58,4.82a1.91,1.91,0,0,1-1,2.49A1.89,1.89,0,0,1,71.11,36.23Zm-34.63,0a1.91,1.91,0,0,1-1.89-1.66c-.69-5.37,3-8,5.65-8.4a1.91,1.91,0,0,1,.63,3.76c-.7.13-2.93.82-2.5,4.15a1.91,1.91,0,0,1-1.64,2.14Zm26-14A1.91,1.91,0,0,1,61,19.17a6.58,6.58,0,0,0,1-3.66,8.72,8.72,0,0,1-3.57-3,1.91,1.91,0,0,1,3.18-2.1,4.69,4.69,0,0,0,2.57,1.79l.07,0a4,4,0,0,0,2.55-.43,1.91,1.91,0,0,1,1.68,3.42,8.43,8.43,0,0,1-2.68.82A9.93,9.93,0,0,1,64,21.51,1.91,1.91,0,0,1,62.48,22.24Z"/><path class="cls-1" d="M22.77,163.31l-12.34-15.2v15.2H.58V109.53h9.85v29.41l8.88-10.68H31.94L18.25,143.68,35,163.31Z"/><path class="cls-1" d="M34.27,145.71c0-11.13,8.87-18.36,18.88-18.36S72,134.58,72,145.71,63.15,164,53.15,164,34.27,156.76,34.27,145.71Zm27.75,0a8.88,8.88,0,1,0-8.87,9.1A8.78,8.78,0,0,0,62,145.71Z"/><path class="cls-1" d="M117.45,145.71c0,11.28-8.2,18.27-17.22,18.27-4,0-8.8-1.5-11.29-5v21.59H79.09V128.26h9.85v4.21c2.49-3.54,7.3-5.12,11.29-5.12C109.25,127.35,117.45,134.42,117.45,145.71Zm-10.08,0a9.06,9.06,0,1,0-9,9A8.9,8.9,0,0,0,107.37,145.71Z"/><path class="cls-1" d="M137.23,126v2.26h7.67v7.59h-7.67v27.46h-9.86V135.85h-6.62v-7.59h6.62v-2.18c0-10.53,5.42-16.55,15.42-16.55H147v9.18h-2.25C139.11,118.71,137.3,121.79,137.23,126Z"/><path class="cls-1" d="M5.75,170.13v8.42H4.6v-.82a2.18,2.18,0,0,1-1.88.94,2.85,2.85,0,0,1,0-5.7,2.14,2.14,0,0,1,1.9.92v-3.76ZM4.59,175.8a1.73,1.73,0,0,0-1.75-1.74,1.68,1.68,0,0,0-1.69,1.74,1.72,1.72,0,1,0,3.44,0Z"/><path class="cls-1" d="M7.36,171.1a.79.79,0,0,1,1.57,0,.79.79,0,0,1-1.57,0Zm.21,2H8.71v5.46H7.57Z"/><path class="cls-1" d="M15.74,176.28H11.38a1.55,1.55,0,0,0,1.7,1.32,1.73,1.73,0,0,0,1.53-.77l.91.46a2.75,2.75,0,0,1-2.5,1.38,2.85,2.85,0,0,1,0-5.7,2.66,2.66,0,0,1,2.74,2.82C15.76,175.94,15.75,176.11,15.74,176.28Zm-1.13-.92A1.47,1.47,0,0,0,13,174a1.54,1.54,0,0,0-1.64,1.33Z"/><path class="cls-1" d="M26,175.83a2.68,2.68,0,0,1-2.71,2.84,2.15,2.15,0,0,1-1.9-.93v3.47H20.22v-8.12h1.15v.82a2.2,2.2,0,0,1,1.9-.94A2.7,2.7,0,0,1,26,175.83Zm-1.16,0a1.71,1.71,0,0,0-1.69-1.79,1.77,1.77,0,0,0,0,3.53A1.67,1.67,0,0,0,24.82,175.84Z"/><path class="cls-1" d="M27.05,176.89h1.07c0,.43.38.81,1,.81s1-.29,1-.7-.29-.55-.7-.65l-.74-.17c-1-.27-1.48-.8-1.48-1.61a1.75,1.75,0,0,1,1.94-1.6,1.73,1.73,0,0,1,1.94,1.64H30a.76.76,0,0,0-.82-.67.71.71,0,0,0-.8.67c0,.34.31.53.65.61l.83.2a1.59,1.59,0,0,1,1.43,1.6c0,1-1,1.65-2.15,1.65A2,2,0,0,1,27.05,176.89Z"/><path class="cls-1" d="M37.55,173.09l-3.4,8.12H32.94l1.17-2.89-2.18-5.23h1.24l1.57,3.8,1.57-3.8Z"/><path class="cls-1" d="M38.14,175.81a2.83,2.83,0,0,1,3-2.84,2.72,2.72,0,0,1,2.13.94l-.76.71a1.81,1.81,0,0,0-1.35-.57,1.77,1.77,0,1,0,0,3.53,1.81,1.81,0,0,0,1.35-.57l.76.71a2.75,2.75,0,0,1-2.13.94A2.83,2.83,0,0,1,38.14,175.81Z"/><path class="cls-1" d="M49.69,175.43v3.12H48.54v-3a1.26,1.26,0,0,0-1.24-1.41,1.47,1.47,0,0,0-1.58,1.54v2.91H44.57v-8.42h1.15v3.79A2,2,0,0,1,47.5,173C48.88,173,49.7,173.87,49.69,175.43Z"/><path class="cls-1" d="M56.62,176.28H52.27A1.55,1.55,0,0,0,54,177.6a1.73,1.73,0,0,0,1.53-.77l.91.46a2.86,2.86,0,1,1-2.5-4.32,2.66,2.66,0,0,1,2.74,2.82A4.29,4.29,0,0,1,56.62,176.28Zm-1.12-.92A1.47,1.47,0,0,0,53.92,174a1.54,1.54,0,0,0-1.64,1.33Z"/></g></g></svg>