<svg xmlns="http://www.w3.org/2000/svg" viewBox="0 0 174.1 191.24"><defs><style>.cls-1{fill:#fff;}</style></defs><g id="Ebene_2" data-name="Ebene 2"><g id="Ebene_1-2" data-name="Ebene 1"><path class="cls-1" d="M145,117.42H78.42a1.91,1.91,0,0,1,0-3.81H114V90.71H59.49v22.9H65.8a1.91,1.91,0,0,1,0,3.81H28.59a1.91,1.91,0,1,1,0-3.81h7.89V72.86A1.9,1.9,0,0,1,38.39,71h7.69V57.32A1.9,1.9,0,0,1,48,55.41H65.48V33.56H48a1.88,1.88,0,0,1-1.53-.77,1.91,1.91,0,0,1-.3-1.68L55.1,1.36A1.9,1.9,0,0,1,56.92,0H76.84a1.89,1.89,0,0,1,1.8,1.3l9.91,29.75a2,2,0,0,1-.26,1.72,1.91,1.91,0,0,1-1.55.79H69.29V55.41H99.34a1.91,1.91,0,1,1,0,3.81H49.89V71h7.7a1.9,1.9,0,0,1,1.9,1.9v14H114v-14a1.9,1.9,0,0,1,1.9-1.9h7.7V59.22H113.8a1.91,1.91,0,0,1,0-3.81h11.69a1.91,1.91,0,0,1,1.91,1.91V71h7.69a1.91,1.91,0,0,1,1.91,1.9v40.75h8a1.91,1.91,0,1,1,0,3.81Zm-27.18-3.81h15.39V74.77H117.8Zm-77.51,0H55.68V74.77H40.29Zm27.1-83.86H84.1L75.46,3.81H58.34L50.55,29.75Z"/><path class="cls-1" d="M25.65,138.77l-2.26,9.4a10.31,10.31,0,0,0-5-1.27c-5,0-8.5,4.66-8.5,14.66v12H0v-35H9.78V146c2-5.86,5.94-8.34,10.3-8.34A12.63,12.63,0,0,1,25.65,138.77Z"/><path class="cls-1" d="M65.66,138.55v35H55.8v-4.37c-2.48,3.46-7.37,5-11.28,5-9,0-17.22-7-17.22-18.27s8.2-18.28,17.22-18.28c4.06,0,8.8,1.5,11.28,5v-4.21ZM55.5,156a9.1,9.1,0,1,0-9.1,9.1A9.06,9.06,0,0,0,55.5,156Z"/><path class="cls-1" d="M108.67,138.55v35H98.82v-5.72c-1.51,4.59-7.07,6.54-10.53,6.54-9.18,0-14-6.09-13.91-16.62V138.55h9.85v18.2c0,5.49,3.31,8,6.69,8,3.54,0,7.9-1.88,7.9-8.2v-18Z"/><path class="cls-1" d="M174.1,154.34V173.6h-9.93V155.09c0-5.49-2.86-7.74-6.31-7.74-3.92-.08-6.7,2.4-6.92,7.67V173.6h-9.86V155c0-5.49-2.85-7.67-6.16-7.67-3.54,0-7.15,1.65-7.15,8V173.6h-9.85v-35h9.85v6.24c1-4.81,6-7.14,9.93-7.14,5.19,0,9.25,2.48,11.28,6.76,2.71-5.11,8.12-6.76,11.73-6.76C169.51,137.65,174.1,143.81,174.1,154.34Z"/><path class="cls-1" d="M6.26,180.09v8.42H5.11v-.82a2.16,2.16,0,0,1-1.88.94,2.85,2.85,0,0,1,0-5.7,2.14,2.14,0,0,1,1.89.93v-3.77ZM5.1,185.76A1.73,1.73,0,0,0,3.36,184a1.68,1.68,0,0,0-1.7,1.74,1.72,1.72,0,1,0,3.44,0Z"/><path class="cls-1" d="M7.87,181.06a.79.79,0,1,1,.78.74A.76.76,0,0,1,7.87,181.06Zm.21,2H9.23v5.46H8.08Z"/><path class="cls-1" d="M16.25,186.24H11.89a1.57,1.57,0,0,0,1.7,1.33,1.74,1.74,0,0,0,1.53-.78l.92.46a2.76,2.76,0,0,1-2.51,1.38,2.85,2.85,0,0,1,0-5.7,2.66,2.66,0,0,1,2.74,2.82C16.27,185.9,16.26,186.07,16.25,186.24Zm-1.13-.92A1.45,1.45,0,0,0,13.54,184a1.53,1.53,0,0,0-1.64,1.32Z"/><path class="cls-1" d="M26.15,183.05v4.64c0,2.54-1.17,3.55-3,3.55a2.82,2.82,0,0,1-2.51-1.51l1-.48a1.77,1.77,0,0,0,1.54.93c1.14,0,1.86-.66,1.86-2.39v-.07a2.25,2.25,0,0,1-1.89.91,2.85,2.85,0,0,1,0-5.7,2.23,2.23,0,0,1,1.9.91v-.79ZM25,185.76A1.73,1.73,0,0,0,23.25,184a1.68,1.68,0,0,0-1.7,1.74,1.72,1.72,0,1,0,3.44,0Z"/><path class="cls-1" d="M33.16,186.24H28.81a1.55,1.55,0,0,0,1.69,1.33,1.77,1.77,0,0,0,1.54-.78l.91.46a2.86,2.86,0,1,1-2.51-4.32,2.66,2.66,0,0,1,2.74,2.82C33.18,185.9,33.17,186.07,33.16,186.24ZM32,185.32A1.46,1.46,0,0,0,30.46,184a1.52,1.52,0,0,0-1.64,1.32Z"/><path class="cls-1" d="M34.23,186.85H35.3c0,.44.38.81,1,.81s1-.29,1-.7-.29-.55-.7-.65l-.74-.17c-1-.27-1.48-.8-1.48-1.6a1.76,1.76,0,0,1,1.94-1.61,1.73,1.73,0,0,1,1.94,1.64h-1.1a.76.76,0,0,0-.82-.67.73.73,0,0,0-.81.67c0,.34.32.53.66.61l.83.2a1.6,1.6,0,0,1,1.43,1.6c0,1-1,1.65-2.16,1.65A1.94,1.94,0,0,1,34.23,186.85Z"/><path class="cls-1" d="M45.11,186.24H40.76a1.56,1.56,0,0,0,1.7,1.33,1.75,1.75,0,0,0,1.53-.78l.91.46a2.86,2.86,0,1,1-2.5-4.32,2.66,2.66,0,0,1,2.74,2.82C45.14,185.9,45.12,186.07,45.11,186.24ZM44,185.32A1.46,1.46,0,0,0,42.41,184a1.52,1.52,0,0,0-1.64,1.32Z"/><path class="cls-1" d="M46.58,180.09h1.15v8.42H46.58Z"/><path class="cls-1" d="M49.57,180.09h1.14v8.42H49.57Z"/><path class="cls-1" d="M52.15,186.85h1.06c0,.44.39.81,1,.81s1-.29,1-.7-.29-.55-.7-.65l-.74-.17c-1-.27-1.49-.8-1.49-1.6a1.77,1.77,0,0,1,1.95-1.61,1.73,1.73,0,0,1,1.94,1.64H55.1a.76.76,0,0,0-.82-.67.73.73,0,0,0-.81.67c0,.34.32.53.66.61l.83.2a1.6,1.6,0,0,1,1.43,1.6c0,1-1,1.65-2.16,1.65A1.93,1.93,0,0,1,52.15,186.85Z"/><path class="cls-1" d="M57.48,185.78a2.83,2.83,0,0,1,3-2.85,2.72,2.72,0,0,1,2.13.94l-.76.71a1.77,1.77,0,0,0-1.34-.57,1.77,1.77,0,1,0,0,3.53A1.77,1.77,0,0,0,61.8,187l.76.71a2.72,2.72,0,0,1-2.13.94A2.83,2.83,0,0,1,57.48,185.78Z"/><path class="cls-1" d="M69,185.39v3.12H67.87v-3a1.25,1.25,0,0,0-1.24-1.4,1.47,1.47,0,0,0-1.58,1.53v2.91H63.9v-8.42h1.15v3.79a2,2,0,0,1,1.78-.95C68.21,182.93,69,183.83,69,185.39Z"/><path class="cls-1" d="M76.18,183.05v5.46H75v-.82a2.16,2.16,0,0,1-1.88.94,2.85,2.85,0,0,1,0-5.7,2.15,2.15,0,0,1,1.9.93v-.81ZM75,185.76A1.73,1.73,0,0,0,73.27,184a1.68,1.68,0,0,0-1.69,1.74,1.72,1.72,0,1,0,3.44,0Z"/><path class="cls-1" d="M79.62,182.42v.63h1.26v1H79.62v4.5H78.48V184H77.42v-1h1.06v-.5c0-1.49.64-2.46,2.13-2.46h.61v1.09h-.4C79.87,181.18,79.61,181.73,79.62,182.42Z"/><path class="cls-1" d="M84.83,184H83.66v4.5H82.51V184h-1v-1h1V181h1.15v2.05h1.17Z"/></g></g></svg>