<svg xmlns="http://www.w3.org/2000/svg" xmlns:xlink="http://www.w3.org/1999/xlink" viewBox="0 0 87.57 87.57"><defs><style>.cls-1,.cls-3,.cls-4{fill:none;}.cls-2{clip-path:url(#clip-path);}.cls-3,.cls-4{stroke:#fff;}.cls-3{stroke-linecap:round;stroke-linejoin:round;stroke-width:4px;}.cls-4{stroke-miterlimit:10;}</style><clipPath id="clip-path" transform="translate(-413.78 -3285.42)"><rect class="cls-1" width="1920" height="4456"/></clipPath></defs><g id="Ebene_2" data-name="Ebene 2"><g id="Ebene_1-2" data-name="Ebene 1"><g class="cls-2"><path class="cls-3" d="M473.77,3331.09a16.2,16.2,0,1,1-16.2-16.2A16.2,16.2,0,0,1,473.77,3331.09Zm-27.18-33.19h24a18.43,18.43,0,0,1,18.31,18.54v26.34a18.42,18.42,0,0,1-18.31,18.53m-9.31,0H444.57a18.42,18.42,0,0,1-18.31-18.53v-26.34a18.43,18.43,0,0,1,18.31-18.54H447" transform="translate(-413.78 -3285.42)"/></g><g class="cls-2"><path class="cls-4" d="M478.79,3311.91a3,3,0,1,1-3-3A3,3,0,0,1,478.79,3311.91Z" transform="translate(-413.78 -3285.42)"/></g><g class="cls-2"><path class="cls-3" d="M450.09,3287.42h27.09a22.18,22.18,0,0,1,22.18,22.19v7.57m0,11.87v19.77A22.18,22.18,0,0,1,477.18,3371H438a22.18,22.18,0,0,1-22.18-22.18m0-10.66v-28.55A22.18,22.18,0,0,1,438,3287.42h2" transform="translate(-413.78 -3285.42)"/></g></g></g></svg>