<svg xmlns="http://www.w3.org/2000/svg" viewBox="0 0 173.92 297.66"><defs><style>.cls-1{fill:none;stroke:#fff;stroke-linecap:round;stroke-linejoin:round;stroke-width:3.81px;}.cls-2{fill:#fff;}</style></defs><g id="Ebene_2" data-name="Ebene 2"><g id="Ebene_1-2" data-name="Ebene 1"><path class="cls-1" d="M99.85,56.33s-5.3-.25-6-4.51"/><path class="cls-1" d="M118.6,12.48s3.64,9.77-6.63,15.91"/><path class="cls-1" d="M74,23.5s-1.13-4.25-7.14-4.25"/><path class="cls-1" d="M69.87,34.16s-5.89,1-5,7.74"/><path class="cls-1" d="M98.59,37.79s5.86-3.43,9,4.11"/><path class="cls-1" d="M96.93,24.63s2.13-2.7,1.57-7.68"/><path class="cls-1" d="M93.8,13.73A8.12,8.12,0,0,0,98.5,17a7.14,7.14,0,0,0,4.7-.71"/><path class="cls-1" d="M76.41,48.26a9.31,9.31,0,0,0,6.29-3.74,13.15,13.15,0,0,0,2.36-6.28"/><path class="cls-1" d="M92.54,75.71H85.06v-8c-18.27,5.89-20-7.89-20-7.89S46.31,53,58.59,32.6c0,0-4.63-11.22,8.27-13.35,0,0-3-9.28,11.53-8.65,0,0,1-5.89,6.67-3.51,0,0,4.35-9,13.15-3.26,0,0,13.25-5.76,20.39,8.65,0,0,4.89-.89,8,5,0,0,10.31,2.9,6.81,13.38,0,0,3.26,3.91-.63,6.67,0,0,1.38,9.71-14.41,8.93,0,0,1.08,13.24-18.5,9.86C99.85,56.33,94.42,58.75,92.54,75.71Z"/><path class="cls-1" d="M145.87,15.06a56.68,56.68,0,0,1,9.74,31.87L171.26,69a4.08,4.08,0,0,1-3.33,6.43H155.61V92.29A11.65,11.65,0,0,1,144,103.93h-20.6L110,126.74"/><path class="cls-1" d="M63.14,91.52a57.09,57.09,0,0,1-19.51-29.4"/><path class="cls-2" d="M66.34,269.57,47.59,284.79H66.34v12.15H0V284.79H36.27l-13.17-11V258.25l19,16.89,24.22-20.69Z"/><path class="cls-2" d="M44.63,255.38C30.89,255.38,22,244.43,22,232.09s8.9-23.29,22.64-23.29,22.54,10.95,22.54,23.29S58.26,255.38,44.63,255.38Zm0-34.24c-6.78,0-11.32,4.92-11.32,11S37.85,243,44.63,243a11,11,0,1,0,0-21.9Z"/><path class="cls-2" d="M44.63,152.76c13.91,0,22.54,10.12,22.54,21.25,0,4.92-1.85,10.86-6.22,13.92H87.58v12.15H23.1V187.93h5.2c-4.36-3.06-6.31-9-6.31-13.92C22,162.88,30.71,152.76,44.63,152.76Zm0,12.44a11.18,11.18,0,1,0,11.13,11.13A11,11,0,0,0,44.63,165.2Z"/><path class="cls-2" d="M20.32,128.36H23.1V118.9h9.37v9.46H66.34v12.16H32.47v8.16H23.1v-8.16H20.41c-13,0-20.41-6.68-20.41-19v-5.2H11.32v2.78C11.32,126,15.12,128.27,20.32,128.36Z"/><path class="cls-2" d="M74.76,290.58H85.14V292h-1a2.67,2.67,0,0,1,1.16,2.32,3.51,3.51,0,0,1-7,0A2.65,2.65,0,0,1,79.4,292H74.76Zm7,1.42a2.14,2.14,0,0,0-2.15,2.15,2.07,2.07,0,0,0,2.15,2.09,2.12,2.12,0,1,0,0-4.24Z"/><path class="cls-2" d="M76,288.58a.94.94,0,0,1-.91-1,.91.91,0,1,1,1.82,0A.94.94,0,0,1,76,288.58Zm2.45-.26v-1.41h6.73v1.41Z"/><path class="cls-2" d="M82.35,278.25v5.37A1.92,1.92,0,0,0,84,281.53a2.17,2.17,0,0,0-1-1.89l.57-1.13a3.54,3.54,0,0,1-1.83,6.57,3.36,3.36,0,0,1-3.49-3.48,3.27,3.27,0,0,1,3.47-3.38Zm-1.14,1.39a1.8,1.8,0,0,0-1.63,1.94,1.87,1.87,0,0,0,1.63,2Z"/><path class="cls-2" d="M81.78,265.61A3.32,3.32,0,0,1,85.29,269a2.67,2.67,0,0,1-1.14,2.34h4.27v1.41h-10V271.3h1A2.73,2.73,0,0,1,78.27,269,3.32,3.32,0,0,1,81.78,265.61Zm0,1.43A2.12,2.12,0,1,0,84,269.13,2.07,2.07,0,0,0,81.8,267Z"/><path class="cls-2" d="M83.1,264.28V263c.53,0,1-.48,1-1.24s-.36-1.25-.86-1.25-.68.36-.8.86l-.21.91c-.33,1.25-1,1.83-2,1.83a2.15,2.15,0,0,1-2-2.39,2.13,2.13,0,0,1,2-2.4v1.36a.93.93,0,0,0-.82,1,.89.89,0,0,0,.82,1c.42,0,.65-.39.75-.8l.25-1a2,2,0,0,1,2-1.76c1.29,0,2,1.27,2,2.66A2.39,2.39,0,0,1,83.1,264.28Z"/><path class="cls-2" d="M78.41,251.34l10,4.18V257l-3.56-1.45-6.45,2.69v-1.53l4.69-1.94-4.69-1.93Z"/><path class="cls-2" d="M81.77,250.6a3.47,3.47,0,0,1-3.5-3.63,3.37,3.37,0,0,1,1.15-2.63l.88.94a2.23,2.23,0,0,0-.71,1.66,2.18,2.18,0,1,0,4.36,0,2.23,2.23,0,0,0-.71-1.66l.88-.94A3.37,3.37,0,0,1,85.27,247,3.48,3.48,0,0,1,81.77,250.6Z"/><path class="cls-2" d="M81.29,236.37h3.85v1.41H81.39a1.55,1.55,0,0,0-1.73,1.53,1.81,1.81,0,0,0,1.89,1.94h3.59v1.42H74.76v-1.42h4.67a2.49,2.49,0,0,1-1.16-2.19C78.27,237.36,79.38,236.35,81.29,236.37Z"/><path class="cls-2" d="M82.35,227.81v5.36A1.91,1.91,0,0,0,84,231.08a2.18,2.18,0,0,0-1-1.89l.57-1.12a3.53,3.53,0,1,1-5.32,3.08,3.27,3.27,0,0,1,3.47-3.37Zm-1.14,1.38a1.8,1.8,0,0,0-1.63,1.95,1.87,1.87,0,0,0,1.63,2Z"/></g></g></svg>