<svg xmlns="http://www.w3.org/2000/svg" viewBox="0 0 179.52 395.85"><defs><style>.cls-1{fill:none;stroke:#fff;stroke-linecap:round;stroke-linejoin:round;stroke-width:3.81px;}.cls-2{fill:#fff;}</style></defs><g id="Ebene_2" data-name="Ebene 2"><g id="Ebene_1-2" data-name="Ebene 1"><line class="cls-1" x1="129.75" y1="73.7" x2="128.19" y2="73.7"/><line class="cls-1" x1="81.89" y1="73.7" x2="83.66" y2="73.7"/><polyline class="cls-1" points="146.7 59.74 143.3 103.31 158.15 144.55"/><path class="cls-1" d="M124.1,1.91l-.27,25.3,23.5,5.25a28.59,28.59,0,0,1,22.24,25.29l8,87.75"/><line class="cls-1" x1="105.82" y1="145.5" x2="105.82" y2="138.92"/><line class="cls-1" x1="67.8" y1="93.38" x2="65.25" y2="60.69"/><path class="cls-1" d="M39.39,93.38l3.32-32.31a33.36,33.36,0,0,1,25.38-29l20.29-4.88,0-25.28"/><path class="cls-2" d="M66.34,368.49,47.59,383.7H66.34v12.15H0V383.7H36.27L23.1,372.76V357.17l19,16.88,24.22-20.69Z"/><path class="cls-2" d="M8.16,327.85A6.39,6.39,0,0,1,2,321.17a6.26,6.26,0,1,1,12.52,0A6.4,6.4,0,0,1,8.16,327.85Zm0,19.2A6.36,6.36,0,0,1,2,340.47a6.26,6.26,0,1,1,12.52,0A6.38,6.38,0,0,1,8.16,347.05Zm36.47,7.24C30.89,354.29,22,343.34,22,331s8.9-23.28,22.64-23.28S67.17,318.66,67.17,331,58.26,354.29,44.63,354.29Zm0-34.24c-6.78,0-11.32,4.92-11.32,10.95S37.85,342,44.63,342a11,11,0,1,0,0-21.9Z"/><path class="cls-2" d="M23.38,267.36,35,270.14a12.64,12.64,0,0,0-1.58,6.22c0,6.21,5.75,10.48,18.09,10.48H66.34V299H23.1V286.93h9.19C25.05,284.52,22,279.6,22,274.22A15.41,15.41,0,0,1,23.38,267.36Z"/><path class="cls-2" d="M44.63,214.29c13.91,0,22.54,10.11,22.54,21.24,0,4.92-1.85,10.86-6.22,13.92H87.58v12.16H23.1V249.45h5.2c-4.36-3.06-6.31-9-6.31-13.92C22,224.4,30.71,214.29,44.63,214.29Zm0,12.43a11.18,11.18,0,1,0,11.13,11.13A11,11,0,0,0,44.63,226.72Z"/><path class="cls-2" d="M48.62,162.79v32.66c5-1.3,7.79-5.38,7.79-11.22a15,15,0,0,0-4.83-11.32l7.15-7.15c5.47,4.09,8.44,11.69,8.44,19.3,0,13.27-9.09,23-22.45,23-14,0-22.73-10.58-22.73-23s8.72-22.45,22-22.45C45.18,162.61,46.67,162.7,48.62,162.79Zm-7.89,12c-5.1.37-8.17,4.64-8.17,10.12,0,4.91,2.32,9.27,8.17,10.57Z"/><path class="cls-2" d="M23.38,122.43,35,125.22a12.64,12.64,0,0,0-1.58,6.22c0,6.21,5.75,10.48,18.09,10.48H66.34v12.15H23.1V142h9.19C25.05,139.6,22,134.68,22,129.3A15.46,15.46,0,0,1,23.38,122.43Z"/><path class="cls-2" d="M74.48,388.27H84.87v1.41h-1A2.7,2.7,0,0,1,85,392a3.51,3.51,0,0,1-7,0,2.65,2.65,0,0,1,1.14-2.34H74.48Zm7,1.43a2.13,2.13,0,0,0-2.15,2.15,2.07,2.07,0,0,0,2.15,2.09,2.12,2.12,0,1,0,0-4.24Z"/><path class="cls-2" d="M78.13,379.35h6.74v1.41h-1A2.71,2.71,0,0,1,85,383.09a3.51,3.51,0,0,1-7,0,2.65,2.65,0,0,1,1.14-2.34h-1Zm3.35,1.43a2.13,2.13,0,0,0-2.15,2.15A2.07,2.07,0,0,0,81.48,385a2.12,2.12,0,1,0,0-4.24Z"/><path class="cls-2" d="M82.82,377.59v-1.32c.53,0,1-.47,1-1.24s-.36-1.25-.86-1.25-.68.36-.79.87l-.22.9c-.33,1.26-1,1.83-2,1.83A2.16,2.16,0,0,1,78,375a2.13,2.13,0,0,1,2-2.39V374a.94.94,0,0,0-.83,1,.9.9,0,0,0,.83,1c.41,0,.64-.39.75-.81l.24-1a2,2,0,0,1,2-1.76c1.28,0,2,1.27,2,2.65A2.39,2.39,0,0,1,82.82,377.59Z"/><path class="cls-2" d="M81.51,359.76A3.31,3.31,0,0,1,85,363.1a2.65,2.65,0,0,1-1.14,2.34h4.27v1.41h-10v-1.41h1A2.73,2.73,0,0,1,78,363.1,3.32,3.32,0,0,1,81.51,359.76Zm0,1.42a2.12,2.12,0,1,0,2.15,2.1A2.07,2.07,0,0,0,81.52,361.18Z"/><path class="cls-2" d="M81,351.63h3.85V353H81.12a1.55,1.55,0,0,0-1.73,1.53,1.81,1.81,0,0,0,1.88,1.95h3.6v1.41H74.48v-1.41h4.68A2.48,2.48,0,0,1,78,354.33C78,352.63,79.1,351.62,81,351.63Z"/><path class="cls-2" d="M78.13,343.54l10,4.18v1.5l-3.56-1.44-6.45,2.68v-1.53L82.82,347l-4.69-1.93Z"/><path class="cls-2" d="M82.82,342.83v-1.32c.53,0,1-.47,1-1.24S83.45,339,83,339s-.68.36-.79.86l-.22.91c-.33,1.26-1,1.83-2,1.83a2.16,2.16,0,0,1-2-2.39,2.13,2.13,0,0,1,2-2.39v1.35a.94.94,0,0,0-.83,1,.9.9,0,0,0,.83,1c.41,0,.64-.39.75-.81l.24-1a2,2,0,0,1,2-1.76c1.28,0,2,1.27,2,2.65A2.39,2.39,0,0,1,82.82,342.83Z"/><path class="cls-2" d="M75.68,336.07a1,1,0,1,1,.91-1A.93.93,0,0,1,75.68,336.07Zm2.45-.26V334.4h6.74v1.41Z"/><path class="cls-2" d="M82.82,332.62v-1.31c.53,0,1-.47,1-1.24s-.36-1.25-.86-1.25-.68.36-.79.86l-.22.91c-.33,1.26-1,1.83-2,1.83A2.16,2.16,0,0,1,78,330a2.13,2.13,0,0,1,2-2.4V329a.93.93,0,0,0-.83,1,.9.9,0,0,0,.83,1c.41,0,.64-.39.75-.81l.24-1a2,2,0,0,1,2-1.75c1.28,0,2,1.26,2,2.65A2.38,2.38,0,0,1,82.82,332.62Z"/><path class="cls-2" d="M81.49,326A3.48,3.48,0,0,1,78,322.4a3.37,3.37,0,0,1,1.15-2.63l.88.94a2.23,2.23,0,0,0-.71,1.66,2.18,2.18,0,1,0,4.36,0,2.19,2.19,0,0,0-.71-1.66l.88-.94A3.37,3.37,0,0,1,85,322.4,3.48,3.48,0,0,1,81.49,326Z"/><path class="cls-2" d="M81,311.79h3.85v1.42H81.12a1.54,1.54,0,0,0-1.73,1.52,1.81,1.81,0,0,0,1.88,1.95h3.6v1.41H74.48v-1.41h4.68A2.48,2.48,0,0,1,78,314.49C78,312.79,79.1,311.78,81,311.79Z"/><path class="cls-2" d="M82.07,303.24v5.36a1.92,1.92,0,0,0,1.63-2.09,2.16,2.16,0,0,0-1-1.89l.56-1.12A3.53,3.53,0,1,1,78,306.58a3.27,3.27,0,0,1,3.47-3.37Zm-1.14,1.38a1.81,1.81,0,0,0-1.63,1.95,1.88,1.88,0,0,0,1.63,2Z"/></g></g></svg>