<svg xmlns="http://www.w3.org/2000/svg" viewBox="0 0 152.03 333.15"><defs><style>.cls-1{fill:none;stroke:#fff;stroke-linecap:round;stroke-linejoin:round;stroke-width:3.81px;}.cls-2{fill:#fff;}</style></defs><g id="Ebene_2" data-name="Ebene 2"><g id="Ebene_1-2" data-name="Ebene 1"><line class="cls-1" x1="67.64" y1="109.12" x2="114.24" y2="109.12"/><polyline class="cls-1" points="68.01 142.06 79.06 142.06 150.12 142.06"/><polygon class="cls-1" points="30.46 38.61 39.51 38.61 78.27 38.61 66.05 1.91 41.49 1.91 30.46 38.61"/><polyline class="cls-1" points="68.01 142.06 79.06 142.06 150.12 142.06"/><line class="cls-1" x1="54.39" y1="38.61" x2="54.39" y2="70.27"/><line class="cls-1" x1="93.82" y1="70.27" x2="54.39" y2="70.27"/><polyline class="cls-1" points="30.46 82.47 30.46 70.27 54.39 70.27"/><polyline class="cls-1" points="126.08 89.45 114.23 89.45 114.23 142.06 137.92 142.06 137.92 89.45 126.08 89.45"/><polyline class="cls-1" points="126.08 89.45 126.08 70.27 111.66 70.27"/><path class="cls-2" d="M1.39,301.52,13,304.3a12.64,12.64,0,0,0-1.58,6.22c0,6.21,5.75,10.48,18.09,10.48H44.35v12.15H1.11V321.09H10.3C3.06,318.68,0,313.76,0,308.38A15.39,15.39,0,0,1,1.39,301.52Z"/><path class="cls-2" d="M1.11,252.16H44.35v12.15H39c4.26,3.06,6.21,9.1,6.21,13.92,0,11.13-8.62,21.25-22.54,21.25S.09,289.36.09,278.23c0-5,1.86-10.86,6.22-13.92H1.11Zm21.53,12.52a11.23,11.23,0,1,0,11.22,11.23A11.18,11.18,0,0,0,22.64,264.68Z"/><path class="cls-2" d="M1.11,199.09H44.35v12.15H37.3c5.66,1.86,8.07,8.72,8.07,13,0,11.32-7.52,17.26-20.51,17.16H1.11V229.24H23.56c6.78,0,9.84-4.08,9.84-8.26,0-4.36-2.32-9.74-10.11-9.74H1.11Z"/><path class="cls-2" d="M20.6,118.37H44.35v12.25H21.52c-6.77,0-9.55,3.52-9.55,7.79-.09,4.83,3,8.26,9.46,8.54H44.35V159.1H21.43c-6.77,0-9.46,3.53-9.46,7.61,0,4.36,2,8.81,9.83,8.81H44.35v12.16H1.11V175.52h7.7C2.88,174.22,0,168.1,0,163.28c0-6.41,3.06-11.42,8.35-13.92C2,146,0,139.34,0,134.89,0,124,7.61,118.37,20.6,118.37Z"/><path class="cls-2" d="M52.37,325.44H62.75v1.41h-1a2.69,2.69,0,0,1,1.16,2.32,3.52,3.52,0,0,1-7,0A2.67,2.67,0,0,1,57,326.85H52.37Zm7,1.43A2.14,2.14,0,0,0,57.21,329a2.07,2.07,0,0,0,2.15,2.09,2.12,2.12,0,1,0,0-4.24Z"/><path class="cls-2" d="M53.57,323.44a1,1,0,1,1,.9-1A.93.93,0,0,1,53.57,323.44Zm2.45-.25v-1.42h6.73v1.42Z"/><path class="cls-2" d="M60,313.12v5.36a1.91,1.91,0,0,0,1.63-2.09,2.17,2.17,0,0,0-.95-1.89l.56-1.12a3.53,3.53,0,1,1-5.32,3.08,3.28,3.28,0,0,1,3.48-3.37Zm-1.13,1.38a1.8,1.8,0,0,0-1.63,1.95,1.87,1.87,0,0,0,1.63,2Z"/><path class="cls-2" d="M56,300.89h5.72c3.13,0,4.37,1.45,4.37,3.71a3.46,3.46,0,0,1-1.86,3.09l-.59-1.2a2.16,2.16,0,0,0,1.14-1.89c0-1.41-.81-2.29-2.94-2.29h-.09a2.76,2.76,0,0,1,1.13,2.32,3.52,3.52,0,0,1-7,0A2.7,2.7,0,0,1,57,302.31H56Zm3.34,1.43a2.14,2.14,0,0,0-2.15,2.15,2.07,2.07,0,0,0,2.15,2.09,2.12,2.12,0,1,0,0-4.24Z"/><path class="cls-2" d="M60,292.25v5.37a1.91,1.91,0,0,0,1.63-2.09,2.16,2.16,0,0,0-.95-1.89l.56-1.13a3.53,3.53,0,1,1-5.32,3.09,3.28,3.28,0,0,1,3.48-3.38Zm-1.13,1.39a1.79,1.79,0,0,0-1.63,1.94,1.87,1.87,0,0,0,1.63,2Z"/><path class="cls-2" d="M60.7,290.92v-1.31a1.1,1.1,0,0,0,1-1.24c0-.78-.36-1.26-.87-1.26s-.67.36-.79.87l-.22.91c-.33,1.25-1,1.83-2,1.83a2.17,2.17,0,0,1-2-2.39,2.14,2.14,0,0,1,2-2.4v1.36a.93.93,0,0,0-.82,1,.89.89,0,0,0,.82,1c.42,0,.65-.39.75-.81l.25-1a2,2,0,0,1,2-1.76c1.29,0,2,1.27,2,2.65A2.4,2.4,0,0,1,60.7,290.92Z"/><path class="cls-2" d="M60,277.5v5.37a1.91,1.91,0,0,0,1.63-2.09,2.16,2.16,0,0,0-.95-1.89l.56-1.13a3.54,3.54,0,0,1-1.83,6.57,3.36,3.36,0,0,1-3.49-3.48,3.27,3.27,0,0,1,3.48-3.37Zm-1.13,1.39a1.8,1.8,0,0,0-1.63,1.95,1.88,1.88,0,0,0,1.63,2Z"/><path class="cls-2" d="M52.37,275.68v-1.41H62.75v1.41Z"/><path class="cls-2" d="M52.37,272v-1.41H62.75V272Z"/><path class="cls-2" d="M60.7,268.81V267.5c.54,0,1-.47,1-1.24s-.36-1.25-.87-1.25-.67.36-.79.86l-.22.91c-.33,1.26-1,1.83-2,1.83a2.16,2.16,0,0,1-2-2.39,2.14,2.14,0,0,1,2-2.39v1.35a.94.94,0,0,0-.82,1,.9.9,0,0,0,.82,1c.42,0,.65-.39.75-.81l.25-1a2,2,0,0,1,2-1.76c1.29,0,2,1.27,2,2.66A2.39,2.39,0,0,1,60.7,268.81Z"/><path class="cls-2" d="M59.38,262.24a3.49,3.49,0,0,1-3.51-3.64A3.37,3.37,0,0,1,57,256l.88.93a2.19,2.19,0,0,0-.71,1.66,2.18,2.18,0,1,0,4.35,0,2.22,2.22,0,0,0-.7-1.66l.88-.93a3.39,3.39,0,0,1,1.15,2.62A3.49,3.49,0,0,1,59.38,262.24Z"/><path class="cls-2" d="M58.9,248h3.85v1.41H59A1.55,1.55,0,0,0,57.27,251a1.81,1.81,0,0,0,1.89,2h3.59v1.41H52.37V252.9H57a2.5,2.5,0,0,1-1.17-2.19C55.87,249,57,248,58.9,248Z"/><path class="cls-2" d="M56,239.18h6.73v1.41h-1a2.69,2.69,0,0,1,1.16,2.33,3.52,3.52,0,0,1-7,0A2.67,2.67,0,0,1,57,240.59H56Zm3.34,1.43a2.14,2.14,0,0,0-2.15,2.15,2.07,2.07,0,0,0,2.15,2.09,2.12,2.12,0,1,0,0-4.24Z"/><path class="cls-2" d="M55.24,234.92H56v-1.54H57.2v1.54h5.55v1.41H57.2v1.3H56v-1.3H55.4c-1.83,0-3-.79-3-2.62V233h1.34v.49C53.71,234.62,54.39,234.94,55.24,234.92Z"/><path class="cls-2" d="M57.2,228.5v1.44h5.55v1.42H57.2v1.21H56v-1.21H53.49v-1.42H56V228.5Z"/></g></g></svg>