<svg id="Ebene_1" data-name="Ebene 1" xmlns="http://www.w3.org/2000/svg" xmlns:xlink="http://www.w3.org/1999/xlink" viewBox="0 0 347.7 218.82"><defs><style>.cls-1{fill:none;}.cls-2{clip-path:url(#clip-path);}.cls-3{fill:#fff;}</style><clipPath id="clip-path" transform="translate(-26 -91.02)"><rect class="cls-1" x="26" y="91.02" width="347.7" height="218.82"/></clipPath></defs><g class="cls-2"><path class="cls-3" d="M74.41,123.12c2-3.29,4.89-5.11,8.32-6.62a59.65,59.65,0,0,1,10.77-3.8c8.57-1.9,15.23,5.52,16.93,13.36,1.62,7.42.59,16.59-5.55,21.75-2.89,2.43-6.51,3.83-10,5.12-4,1.48-8.09,2.88-12.14,4.31C72.83,160.74,63,164.62,53,167.8l3.38,1.67c-4.63-7.53-8.78-15.44-12.7-23.36-3.83-7.72-8.2-15.86-10-24.36-1.53-7.33.31-15.39,6.29-20.29,5.33-4.38,13.76-4.84,19.08-.2,7,6.12,7.39,16.85,9.43,25.24.75,3.08,4.33,3.51,6.23,1.28a27.2,27.2,0,0,1,16-8.94c3-.51,6.78-.83,9.61.35s4.73,4.57,5.5,7.52c1.57,6,.72,14.53-4.23,18.77-2.61,2.23-5.91,3.53-9.08,4.75-3.88,1.48-7.79,2.88-11.71,4.25-9,3.14-18,6-27,9.07l4,.84a120.78,120.78,0,0,1-10.7-17.23,77.42,77.42,0,0,1-7-18,106.19,106.19,0,0,1-1.88-10.93c-.42-3.23-1.17-7.32.51-10.33,1.35-2.42,4.5-3.63,6.93-4.65,2.76-1.16,6.31-2.13,9.15-.66,5.59,2.92,5.95,11.4,7.67,16.66S68.54,132,74.9,131.79c3.11-.1,4.77-3,7.15-4.62a19.38,19.38,0,0,1,7.5-2.93c5.19-.91,12.89,0,13.57,6.43.79,7.49-5.53,12.18-11.59,14.84-8.09,3.55-16.25,6.93-24.38,10.4-4.24,1.81-1.09,8.22,3.13,6.42,8.26-3.5,16.57-6.9,24.78-10.52,7.15-3.15,13.24-8.33,14.91-16.31,1.58-7.58-1.71-14.94-9.26-17.54a26.14,26.14,0,0,0-24.48,4.6,14,14,0,0,0-1.84,1.68s-.66.66-.64.68l1.13-.3-.45-.2c-.42-.52-1.31-.9-1.82-1.41a12.19,12.19,0,0,1-1.47-1.88A19.8,19.8,0,0,1,69,115.88c-1.92-6.86-3.16-15-9.86-19S44,95.5,37.8,99.36c-7.73,4.81-7.37,13.17-6.3,21.21A88,88,0,0,0,39,146.68c3.76,8,8.8,14.94,13.85,22.11a3.3,3.3,0,0,0,3.23,1.11c9.67-2.93,19.28-6.12,28.82-9.44,8.12-2.83,18.23-5.2,23.91-12.19,5.22-6.43,6.09-17.09,3.5-24.76-1.35-4-3.88-7.89-7.61-10s-8.26-2.2-12.38-1.85a34.37,34.37,0,0,0-23.2,12.25l6.22,1.27c-2.3-9.3-3.12-19.67-9.75-27.17-6.07-6.87-15.69-8.61-24.11-5.41-8.7,3.3-14.12,12-15.25,21-1.24,9.92,3.47,19.79,7.4,28.61a185.39,185.39,0,0,0,17.69,30.7,3.14,3.14,0,0,0,3.7.76c10.35-4,21-7.25,31.46-10.89,8.77-3.05,19.22-5.4,25.36-13,6-7.35,6.62-18.49,3.73-27.22s-10.66-16.8-20.45-15.89c-4.82.45-9.76,2.47-14,4.73a22.67,22.67,0,0,0-10.19,10c-1,2,2.38,3.69,3.52,1.77" transform="translate(-26 -91.02)"/><path class="cls-3" d="M67.53,154.8c-2.13.75-4.31,1.4-6.39,2.26a7.71,7.71,0,0,1-2.25.93c-1,0-1.46-.88-2-1.6-2.44-3.34-3.19-6.85-4.43-10.7s-3.52-7-5-10.69a54.85,54.85,0,0,1-2.79-11.31c-.32-1.93-.6-3.87-.86-5.81s-.73-4.36.15-6.33c1.23-2.74,5.17-5.7,8.3-5.36,3.44.36,5.06,4.9,6.22,7.59,1.51,3.5,2.84,7.07,4.46,10.52s3.54,7.31,6.62,9.54c3.63,2.63,7.56,1.47,11.16-.47,3-1.61,5.94-3.52,9.16-4.63,2.11-.73,7-2,7.58,1.23s-1.87,6.73-4,8.86a30.29,30.29,0,0,1-9.88,6.34c-3.81,1.65-7.76,3-11.66,4.41l-6,2.2c-1.63.59-3.61,1.67-5.39,1.66s-3-2.17-3.91-3.4a28.41,28.41,0,0,1-3.15-5.45c-1.9-4.2-2.63-8.83-3.57-13.31S47.55,122,47.36,117.4c-.08-1.92.11-4.34,1.64-5.71,1.34-1.2,3.72-1.17,5.28-.48l-1.58-1.07c1.75,1.62,2.92,4,4.22,6s2.67,3.94,3.82,6c2,3.69,2.55,8.07,5.3,11.38,6.55,7.93,15.94.53,23.63-.94.57-.1,2-.53,2.56-.18-.26-.16,0-.28-.18.18-.58,1.57-2.27,2.54-3.64,3.4a133.09,133.09,0,0,1-11.86,6.59,108.47,108.47,0,0,1-12.7,5.55c-2,.69-2.91.38-4.3-1.24a19.55,19.55,0,0,1-3.14-5.34c-2-4.75-2.28-10.32-3.09-15.35-.58-3.59-2.88-10.16.43-13l-3.62.69c2.18.46,3.43,1.88,4.83,3.53a37.87,37.87,0,0,1,4.1,5.51c2.13,3.75,2.61,8.23,5.55,11.55,3.11,3.53,7.25,4,11.68,3.39,4.95-.72,9.89-1.57,14.83-2.35l-3.67-1.26.34.39c-.28-.58-.57-1.16-.85-1.75-.28-.87.86-1.11-.33-.62a12.35,12.35,0,0,0-1.71,1.09c-1,.61-2,1.2-3,1.78-2.23,1.3-4.51,2.51-6.83,3.65s-4.42,2.06-6.68,3c-1.19.49-2.39.95-3.61,1.39-.43.17-.87.33-1.32.46-.27.07-1.18.1-.84.3-.5-.28-.8-1.7-1-2.2-.46-1.23-.88-2.47-1.31-3.7-.8-2.31-1.56-4.64-2.22-7a63.92,63.92,0,0,1-1.68-7.62c-.33-2.17-1-5.22.07-7.26l-5.73.32a43.36,43.36,0,0,1,6,12c1.3,4.14,1.24,8.59,2.67,12.65,1.27,3.59,5,7.26,9,5.09,1.83-1,3.11-2.85,4.92-3.94a18.22,18.22,0,0,1,2.7-1.32c.48-.18,1.06-.24,1.51-.46,1.17-.57.15,3-1.17-1.63l2.91-4.36a13.62,13.62,0,0,1-14.87-4.72l-4.95,5.52c2.68,1.7,5,4.34,7.93,5.62a10.17,10.17,0,0,0,8.06-.12c2.64-1.06,4.66-3,6.7-5,1.63-1.53,4.15-3.88,6.61-3.84l-2.65-1.32c-.36-1.12-.41-1.15-.14-.08.12.53.21,1.07.28,1.61s.22,1.65-.21,2.11a4,4,0,0,0-.4,5.4c1.23,1.43,4,1.92,5.39.4,3.08-3.31,3.42-7.53,2.24-11.79-1.43-5.21-6.69-4.16-10.5-2.25s-5.88,5.36-9.3,7.5c-1.57,1-2.7,1.1-4.12-.05a70.7,70.7,0,0,0-5.66-4.39c-3.64-2.41-7.47,2.19-5,5.53a20.59,20.59,0,0,0,22,7.11c1.77-.55,3.52-2.29,2.9-4.36-1.31-4.42-5.56-4.9-9.42-3.58a22.4,22.4,0,0,0-5.5,2.78,22.08,22.08,0,0,0-2.36,1.85c-.29.27-1.75,1.46-1.18,1.36l1.87.12c-1.59-.32-1.68-3.64-1.86-4.9a59.76,59.76,0,0,0-1.62-7.94,51.56,51.56,0,0,0-7.4-15.38,3.64,3.64,0,0,0-5.74.32c-2.59,4.77-1.81,10.21-.8,15.34a111.55,111.55,0,0,0,4.41,15.1c1.62,4.66,3.88,9.56,9.77,8.64,4.78-.74,9.76-3.32,14.1-5.38a94.38,94.38,0,0,0,13.57-7.67c2-1.4,3.53-3.63,3-6.2-.64-3.36-3.42-4.19-6.43-3.64l-7.91,1.44c-2.51.46-5.52,1.48-8.08,1.13-2-.29-3-2.23-3.74-4-1.06-2.5-1.73-5.1-3.14-7.46-2.4-4-5.89-9-10.06-11.4-2.32-1.32-4.77-1.89-6.92,0a11.72,11.72,0,0,0-3.53,6.49c-1,5,.58,10.49,1.37,15.43.83,5.16,1.39,10.46,3.49,15.31,1.87,4.32,5.11,9.35,9.92,10.64S70,154,74.37,152.07a146.86,146.86,0,0,0,14-7.14c4.12-2.39,9-4.85,10.84-9.56a7.67,7.67,0,0,0-5.73-10.57c-5-.94-10.71,1.6-15.21,3.59-1.45.65-3.42,1.81-5.08,1.44-2.26-.5-3.06-3.79-3.7-5.64-1.76-5-4.72-9.19-7.64-13.61-1.39-2.09-2.58-4.74-4.8-6s-5.22-1.31-7.57-.91c-5.33.9-8.6,5.3-9.44,10.42S41,124.86,42,130c1.08,5.28,2,10.64,3.79,15.71a33.28,33.28,0,0,0,7.71,12.42c4.28,4.12,9.09,3.08,14.17,1.27,9.77-3.49,21-6.19,29.11-13,6.3-5.23,13.64-18.67,3.86-24.51-4.37-2.62-9.79-1.71-14.3,0a39.52,39.52,0,0,0-5.64,2.81l-2.89,1.72c-.87.51-2.15,1.58-3.17,1.65-1.91.14-3.5-3.25-4.33-4.68a61.45,61.45,0,0,1-3.2-6.58c-1.85-4.37-3.36-9.2-6.4-12.94-6.69-8.2-19.5-3.49-23.08,5.45-1.89,4.7-.51,10.45.24,15.27A54,54,0,0,0,42,139.06c1.08,2.34,2.56,4.47,3.63,6.81a63.92,63.92,0,0,1,2.17,6.66c1.29,3.9,4.3,9.7,8.55,11.05,4.77,1.51,9.68-3.07,13.34-5.47,2-1.35-.24-4-2.17-3.31" transform="translate(-26 -91.02)"/><path class="cls-3" d="M330.52,261.28C336,256,344.16,250.66,352.06,251s13.11,6.86,14.31,14.25a27.9,27.9,0,0,1-.67,11.39c-1.15,4.37-3.08,7.37-7.09,9.56A115.58,115.58,0,0,1,336.53,295a169.85,169.85,0,0,0-25,9.82l3.51,1.2c-1.78-3.92-3.13-7.91-5.07-11.78s-3.85-7.47-6-11.11c-3.81-6.55-8.1-13.11-10.09-20.5-1.77-6.6-1.72-13.83,2.54-19.49s12.19-6.35,18.73-5.08c3.75.73,5,4.18,6.6,7.28a31.84,31.84,0,0,1,2.94,10.75c.43,3.4.66,8.3,4.83,9.15,3.46.72,6.91-2.84,9.62-4.54,5.18-3.24,13.49-7.23,18.87-2.13,4.27,4.05,5.16,13.6,2.61,18.67-3.85,7.63-13.87,9.52-21.25,11.84-4.32,1.36-8.61,2.81-12.84,4.43-2.12.81-4.22,1.64-6.32,2.48l-3.36,1.37-1.25.53-.83.36c-.75.29-.55.27.6-.07l2.32,1.16c-1.33-1.52-2.26-3.81-3.24-5.59q-1.65-3-3.29-6-3.3-6-6.62-11.95c-3.83-6.89-7-13.74-5.78-21.82a11.06,11.06,0,0,1,5.68-8.58c2.65-1.63,6.61-4.07,9.81-2.51,2.77,1.36,3.6,6.49,4.3,9.14,1,3.78,1.21,7.88,2.62,11.53a10.71,10.71,0,0,0,10.49,6.58c4.53-.13,8.27-2.63,11.77-5.26,4.49-3.36-1.24-10-5.67-6.6-2,1.51-4.43,3.63-7.09,3.31s-2.5-3.82-2.95-5.83a97.89,97.89,0,0,0-2.73-9.64c-1-3-2.09-6.05-4.45-8.3-5.12-4.88-12.57-3.44-18.16-.29a26.8,26.8,0,0,0-7.51,5.67c-2.29,2.68-3.29,6-3.9,9.44a29.61,29.61,0,0,0,3,19c3.14,6.27,7,12.25,10.57,18.3,1.81,3.09,3.66,6.16,5.42,9.28,1.62,2.88,3,6.58,6.94,5.38,3.29-1,6.45-2.64,9.69-3.8,3.41-1.22,6.87-2.33,10.32-3.46,11.51-3.77,27.93-6.59,31.45-20.4,2.92-11.45-2-26.62-15.23-27.86-6.5-.61-12.5,2.21-17.81,5.66-1.43.93-2.83,1.9-4.24,2.85l-.69.48q-1.8.9,1.85.91c.16-.23-.31-1.76-.36-2.12a57.47,57.47,0,0,0-2-10.07c-1.85-5.4-5.13-12.67-10.87-14.76a28,28,0,0,0-9.37-1.18,27.68,27.68,0,0,0-9.81,1.53c-13.79,5.21-15.94,22-11.88,34.35,2.39,7.24,6.38,13.68,10.12,20.27,2,3.54,3.87,7.15,5.77,10.75s4.34,7,6.43,10.58c.66,1.14,2.23,2,3.51,1.21,8-4.94,17.63-6.79,26.57-9.42,8.67-2.56,18.74-4.66,25.8-10.69s8.74-18.47,6.6-27.08c-2.22-8.93-9-16.29-18.32-17.63C343.89,243.19,333,249.59,326.8,258c-1.67,2.27,1.66,5.34,3.72,3.33" transform="translate(-26 -91.02)"/><path class="cls-3" d="M343.22,264.23c2.27-.66,4.53-1.33,6.78-2.05,2-.64,3.57-1,5.31.43a7.54,7.54,0,0,1,2.61,9c-1.51,4-3.57,7.17-7.55,9s-8.4,3-12.6,4.41c-4.86,1.61-9.71,3.27-14.55,4.92-1,.34-2,.72-3,1l-.31.1c-.88.12-1,.2-.32.24.65.81-.08-.87-.18-1.05-1.19-2.22-2.33-4.47-3.47-6.71-2.29-4.49-4.51-9-6.73-13.52-1.83-3.74-4.07-7.57-4.2-11.83-.12-3.57,1.14-7.25,4.22-9.3a7.87,7.87,0,0,1,2.08-1c.33-.1.69-.12,1-.21s1.4.27.51-.26-.15-.22-.22,0a7.44,7.44,0,0,0,.28,1.52c.19,1.25.27,2.51.36,3.76.62,8.47,5.88,18.25,14.79,20.43,4.42,1.08,8.67-.35,12.68-2.13,1.93-.86,3.85-1.74,5.81-2.55.94-.39,1.9-.76,2.85-1.12.12-.05,2.35-.88,2-.95.77.17,1.12,2.93,1.13,3.82,0,1.89-1,3-2.53,4.08-3.58,2.5-8,4.15-12.06,5.69-4.66,1.78-9.45,3.23-14.22,4.66-.51.15-1,.27-1.53.43s.24.47-.4,0a11.87,11.87,0,0,1-2.24-2.87,46.32,46.32,0,0,1-3.3-5.76,111.82,111.82,0,0,1-5.46-13.71c-.64-1.88-1.48-3.58-1-5.56a14.13,14.13,0,0,1,.94-3,9.93,9.93,0,0,0,.58-.91c.23-.71,1.64.65-.63-.21l-1.85-1.25c.83,1,.39,3.48.42,4.69a16.35,16.35,0,0,0,1.52,7.2c2.29,4.45,7,8.4,11.26,10.8a24.21,24.21,0,0,0,15.38,2.62,42.69,42.69,0,0,0,8-2c1.28-.44,2.56-.9,3.83-1.38l1.65-.62,1.23-.46c.63-.2.55-.23-.22-.07l-1.86-1.26,0,0-.42-2.15c0,.17-.05.34-.07.52.24-.72.49-1.44.74-2.16.44-.46.29-.4-.45.16l-1.39.85c-.93.55-1.88,1.09-2.83,1.61-1.67.9-3.37,1.75-5.1,2.53a73.39,73.39,0,0,1-10.84,3.91c-2,.53-3.95,1-5.95,1.37-1.7.3-2.34-.06-3.46-1.49a33.07,33.07,0,0,1-5.22-10.88l-7.1,3.46a61.68,61.68,0,0,0,21.21,13.42,4.08,4.08,0,0,0,4.57-1.5,8.46,8.46,0,0,0,1.11-1.88,4.32,4.32,0,0,0,.32-.69c.45-.91-.08-.71-1.59.58l-2-.69a1.4,1.4,0,0,0-.1-.16l-.88-1.81c0,.13.06.27.08.41l.14-2.08-.24.56,1.17-1.72c-1.2.91-3.75,1.34-5.16,1.84-2,.72-2.69,3.53-1.83,5.3,1,2.11,3.28,2.54,5.3,1.83s4.84-1.26,6.61-2.73a4.9,4.9,0,0,0,.72-6.95,5.36,5.36,0,0,0-6.2-1.34c-2.31,1.11-2.57,3.27-4,5l4.57-1.51a46.92,46.92,0,0,1-17.61-11.24c-2.61-2.64-8.31-.79-7.09,3.46a46.74,46.74,0,0,0,4.8,11.41c2.07,3.45,4.64,6.9,8.85,7.67,3.79.69,8.17-.76,11.8-1.78a87.3,87.3,0,0,0,11-3.86A79.2,79.2,0,0,0,354,275.21c1.57-1,3.31-2,3.95-3.82a5.5,5.5,0,0,0-1.72-6c-3.75-3.05-8.49-.12-12.32,1.29A30.2,30.2,0,0,1,332.74,269c-4.06-.12-7.22-1.92-10.28-4.48-2.54-2.11-4.75-4.26-4.77-7.72s.18-7.63-2.38-10.44c-3-3.32-8.16-1.19-10.62,1.66a17.79,17.79,0,0,0-3.75,10.65c0,3.83,2.06,7.9,3.34,11.45,2.54,7.08,5.66,15.18,11,20.72,3.36,3.52,7.11,3.41,11.46,2.12,4.11-1.22,8.21-2.5,12.25-3.92a97.15,97.15,0,0,0,11.22-4.66c3.6-1.8,7.49-3.93,9.55-7.55,3.81-6.66.82-19.63-8.57-19-3.94.28-8.19,2.5-11.74,4.11-2.72,1.23-6.25,3.63-9.39,2.84s-5.9-4.44-7.23-7.22c-1.68-3.52-1-7.62-1.89-11.34-2.12-9.28-12.95-7.85-18.5-2.53-6,5.71-6.94,14.37-4.33,21.92a101.48,101.48,0,0,0,5.29,11.46c2,4.09,4,8.17,6.15,12.22,1.79,3.48,3.55,8.57,7.64,9.9s9.06-1.54,12.78-2.78c4.26-1.43,8.51-2.86,12.75-4.32,3.88-1.33,7.95-2.46,11.64-4.29a19.33,19.33,0,0,0,8.41-7.65c2-3.55,4-7.79,3.79-12-.4-7.18-7.27-15-14.91-13.95-3.94.56-7.47,3.11-10.65,5.32-2.18,1.52-.25,5.41,2.27,4.66" transform="translate(-26 -91.02)"/><path class="cls-3" d="M80.85,161.48c7.51,7.72,17.06,12.39,27.08,16.07a182.07,182.07,0,0,0,30.74,8c20,3.54,40.84,3.65,60.2-3a84.46,84.46,0,0,0,24.32-12.94c6.65-5.13,13.3-11.7,16.9-19.4,3.41-7.28,2.77-17.25-6.37-19.69-10.06-2.68-18.66,6-25,12.59-13.48,13.92-26.57,34.36-20.82,54.57a28.21,28.21,0,0,0,15.73,18.41c7,2.95,15.54,2.65,21.89-1.71a26.94,26.94,0,0,0,8.5-10.5c1-2.06,1.89-4.18,2.72-6.32.67-1.73,1.8-3.83,1.16-5.73-1.16-3.45-5.67-2.77-8.28-1.79A22.72,22.72,0,0,0,220,197.7c-9.87,12.92-12.12,32.43-7.15,47.67a43,43,0,0,0,14.49,20.86C236,273,246.84,277,257,280.8c10.55,4,21.83,8.35,33.17,9.15,9.81.68,20.05-1.57,29.09-5.32,4.51-1.87,8.81-4.22,13.14-6.48,2.41-1.25.64-4.57-1.81-3.7-8.15,2.88-16.49,6-24.93,7.9a52.6,52.6,0,0,1-26.08-.6,264,264,0,0,1-29.24-9.92c-8.48-3.39-17.41-7.07-23.93-13.7-10.19-10.38-13-25.69-10.64-39.67,1.23-7.23,3.89-14.67,8.29-20.59a17.1,17.1,0,0,1,4.11-4c1.31-.89,4.5-2.89,6.16-2.12,2.59,1.19.31,4.82-.44,6.6a56.15,56.15,0,0,1-3,6.26C226.7,212,220,216.5,211.31,215.3c-8-1.1-14-6.36-17.33-13.58-7.85-17.15,1.28-35.54,12.22-49a98.43,98.43,0,0,1,9.62-10.18c3.23-3,6.77-6.24,11.16-7.33,3.64-.9,8.22,0,9.68,3.9,1.16,3,0,6.65-1.34,9.45-3.23,6.74-9.27,12.5-15.06,17.05a79.26,79.26,0,0,1-20.69,11.53c-16.39,6.25-34.3,7.09-51.58,5a190,190,0,0,1-27.55-5.5c-9.08-2.47-18.15-5.36-26.47-9.82-4-2.15-8-4.33-11.88-6.81-.86-.56-2,.6-1.24,1.39" transform="translate(-26 -91.02)"/></g></svg>