<svg xmlns="http://www.w3.org/2000/svg" viewBox="0 0 328.42 366.32"><defs><style>.cls-1{fill:#b2b2b2;}.cls-2{fill:#167d7d;fill-rule:evenodd;}.cls-3{fill:#dadada;}.cls-4{fill:#fff;}</style></defs><g id="mask"><path class="cls-1" d="M46.62,74.71c8.25-7.82,20.51-9.21,31.83-10.21a2.16,2.16,0,0,1,1.47.22A2.12,2.12,0,0,1,80.6,66a91.77,91.77,0,0,1,2.25,39.42L48.9,87"/><path class="cls-2" d="M78.61,80.87c-.59-3-1.26-6-2-8.87l-.29-1.08-.15-.54,0-.13v0s0,0,0,0h0s0,0,0,0H76l-.54,0-2.13.17-4.06.36q-3.92.38-7.22.9a74.46,74.46,0,0,0-10.42,2.48c-2.55.8-4.27,1.29-5,.56-.34-.35-.35-1,0-1.83a10.4,10.4,0,0,1,2-3.16,27.81,27.81,0,0,1,10.95-6.95,53.51,53.51,0,0,1,8.11-2.29c1.44-.29,2.92-.54,4.41-.75.75-.11,1.51-.21,2.26-.3l1.6-.17a16,16,0,0,1,2.18-.07H80.3a2.43,2.43,0,0,1,1,.17,6.43,6.43,0,0,1,.91.37,6.59,6.59,0,0,1,2.32,1.93,3,3,0,0,1,.28.41l.19.53c.49,1.42,1,2.8,1.46,4.26l.23,1,.13.62.25,1.23a69.41,69.41,0,0,1,1.17,10.1,90.57,90.57,0,0,1-.13,9.71c-.09,1.49-.24,2.93-.4,4.32-.08.7-.17,1.38-.25,2.06,0,.33-.11.66-.16,1l-.07.52-.1.76c-.6,4.06-1.32,7.42-2,10.56l-.12.58s0,.11,0,.13l-.15-.09-.29-.17-1.17-.69-2.25-1.34c-1.46-.86-2.91-1.78-4.28-2.63l-2-1.26-1.46-1-3-1.93-6.28-4c-4.39-2.78-9.3-5.8-15.2-9.33,6.18,3,11.4,5.47,16.13,7.63l6.78,3.05,3.24,1.43,1.59.69,1,.38c.65.23,1.23.43,1.77.6l.75.23.35.1.08,0h0s0,0,0-.07v-.28A25.73,25.73,0,0,0,80.4,97l0-.19v-.44l0-.93c0-.63-.06-1.27-.1-1.91-.08-1.29-.17-2.62-.32-4C79.63,86.86,79.22,84,78.61,80.87Z"/><path class="cls-3" d="M47.75,74.67c3,27.33,5.92,54.65,9.8,81.86,4.19,29.35,9.5,58.79,20.44,86.35s27.89,53.36,51.86,70.81C141,321.8,153.4,328,165.81,334c2.16,1.05,4.43,2.11,6.83,2a14,14,0,0,0,5.14-1.58,179.17,179.17,0,0,0,54.08-38.57A212.62,212.62,0,0,0,262,255.06c10.2-17.61,18.37-36.55,22.59-56.46,5-23.66,4.4-48.11,3.74-72.29Q287.19,83.65,286,41c-10.32,18-31.18,26.83-51.14,32.32C178.26,88.88,118.26,86.72,59.94,79.81c-4.63-.54-9.57-1.26-13-4.37"/><path class="cls-2" d="M250.81,280.87a187,187,0,0,1-25.91,28.76,181.39,181.39,0,0,1-31.21,22.58c-1.39.81-2.78,1.58-4.19,2.33s-2.82,1.49-4.24,2.21-2.86,1.41-4.29,2.1c-.72.35-1.41.68-2.27,1a20.9,20.9,0,0,1-2.95,1,13.63,13.63,0,0,1-3.77.45,14.46,14.46,0,0,1-3.58-.54,29.92,29.92,0,0,1-5.17-2.09c-2.77-1.33-5.54-2.67-8.3-4.05-11-5.48-22-11.51-31.72-19.21a139,139,0,0,1-13.63-12.27,159.7,159.7,0,0,1-11.65-13.61c-3.56-4.71-6.8-9.55-9.8-14.45s-5.64-9.91-8.11-14.92C70.25,240.13,64.61,219.8,60.65,201s-6.09-36.2-7.88-51.56-3-28.8-3.85-39.87C47.2,87.48,46.8,74.78,47.75,74.67S51,87.09,54.23,109c1.66,11,3.59,24.26,6,39.46s5.18,32.31,9.44,50.58,10.17,37.69,19.68,56.6c2.4,4.71,5,9.4,7.82,14s6,9.08,9.3,13.45a153.38,153.38,0,0,0,10.9,12.56,129.4,129.4,0,0,0,12.57,11.23c8.87,7,19.12,12.67,29.87,18.06l8.16,4a21.34,21.34,0,0,0,3.31,1.41,4.12,4.12,0,0,0,1,.17,2.45,2.45,0,0,0,.8-.11,19.77,19.77,0,0,0,3.34-1.37c1.35-.65,2.71-1.27,4.05-1.95s2.68-1.34,4-2.06,2.66-1.41,4-2.16a175.74,175.74,0,0,0,29.66-21,182,182,0,0,0,25-26.86A233.91,233.91,0,0,0,263,244a194.8,194.8,0,0,0,13.64-31.36c7-20.86,8.48-41.64,8.74-61.42.12-9.91-.08-19.62-.21-29.17s-.29-18.91-.43-28.16-.29-18.38-.43-27.46q-.07-6.15-.17-12.29l0-4.16,0-2.15v-1l0,.05-.54.83a16.71,16.71,0,0,1-1.14,1.65c-.43.52-.81,1.1-1.29,1.6s-.9,1-1.45,1.57l-1.79,1.72a69.15,69.15,0,0,1-11.16,8.11A113.27,113.27,0,0,1,241.15,73c-8.94,2.65-18.15,4.65-27.61,6.55l-7.17,1.22-3.61.61-3.65.5-7.38,1-7.49.79c-2.52.29-5.06.48-7.61.67s-5.13.42-7.73.55c-5.2.26-10.47.55-15.83.62s-10.81.09-16.35.1-11.17-.21-16.89-.51c-11.45-.5-23.3-1.32-35.57-2.54-3.07-.27-6.16-.64-9.29-1s-6.27-.69-9.45-1.08-6.41-.68-9.63-1.25-6.49-1.6-9-3.86c2.52,2.24,5.82,3.2,9,3.75s6.45.78,9.63,1.14,6.34.68,9.47,1,6.22.62,9.29.85c12.28,1.07,24.12,1.73,35.56,2.07,5.72.22,11.34.22,16.87.27s11-.09,16.3-.35,10.59-.53,15.76-.86c2.58-.18,5.14-.46,7.68-.68s5.07-.47,7.56-.8l7.44-.92,7.31-1.12,3.62-.56,3.58-.67,7.09-1.35c9.33-2,18.46-4.23,27.19-7a109.44,109.44,0,0,0,24.57-10.89,65.23,65.23,0,0,0,10.42-7.93l2.95-3.08c.12-.13.24-.24.37-.4l.38-.52.77-1,1.55-2.08.77-1,.79-1.18,1.57-2.37c.5-.77,1.09-1.62,1.53-2.35l1.4-2.25.61.15h0v.43l0,.58,0,1.15.16,4.64.34,9.41q.27,7.43.55,14.89c.36,9.08.71,18.2,1.07,27.45s.72,18.6,1.09,28.14.78,19.28.89,29.34A280.39,280.39,0,0,1,291,182.34a166.87,166.87,0,0,1-6.51,32.74,203.45,203.45,0,0,1-13.53,33A243.2,243.2,0,0,1,250.81,280.87Z"/><path class="cls-2" d="M131.3,220.86a30.4,30.4,0,0,1-3.75-4.45,23.3,23.3,0,0,1-2.76-5.59,19.68,19.68,0,0,1-1-6.38,22.4,22.4,0,0,1,.89-6,51.21,51.21,0,0,1,3.75-8.94c1.23-2.41,2.26-4.6,3.17-6.75,3.63-8.5,5.27-14.93,7.28-14.86,1,0,1.84,1.76,2.27,4.85a38.19,38.19,0,0,1-.72,12.74,54.77,54.77,0,0,1-2.46,8.2,77.83,77.83,0,0,0-2.75,7.64,12.11,12.11,0,0,0-.16,6.39,16.37,16.37,0,0,0,1.28,3.29,29.88,29.88,0,0,0,2.19,3.4,47.72,47.72,0,0,0,5.87,6.3,56.71,56.71,0,0,0,5.91,4.89,14.22,14.22,0,0,0,5.58,2.48,11,11,0,0,0,5.78-.62c3.93-1.44,7.59-4.49,11-8.38a42.81,42.81,0,0,0,8.56-15.7,49.09,49.09,0,0,1-7,16.86,47.7,47.7,0,0,1-4.79,6.17,26.33,26.33,0,0,1-5.94,4.84,16.17,16.17,0,0,1-7.91,2.27,20.24,20.24,0,0,1-8.51-2,59.39,59.39,0,0,1-7.67-4.37A53.2,53.2,0,0,1,131.3,220.86Z"/><path class="cls-4" d="M248.81,140.19c-.9-1.26-13-17.63-34-16.82-19,.73-29.66,15.09-30.9,16.82-3.1-22.62,14.05-41.26,31.68-41.64C233.65,98.17,251.9,117,248.81,140.19Z"/><path class="cls-2" d="M189.45,126.77c.08.24.2.33.3.34a.25.25,0,0,0,.15,0l.16-.29a2.33,2.33,0,0,0,.11-.24v0h0l0,0,0,0,.79-.57c1.05-.77,2.19-1.41,3.28-2.1a42.43,42.43,0,0,1,14.18-5,29.76,29.76,0,0,1,3.59-.43l1.76-.1.88,0,.87,0,3.42.16,3.29.48a41.08,41.08,0,0,1,11.41,3.95A37.92,37.92,0,0,1,246.59,134c2.32,3.34,2.92,5.67,2.22,6.16s-2.53-.72-5.59-2.76c-1.55-1-3.38-2.22-5.56-3.42a52.64,52.64,0,0,0-7.5-3.42,39.91,39.91,0,0,0-9.28-2l-2.55-.15-2.62.09h-.66l-.67.08-1.33.16a22.57,22.57,0,0,0-2.69.46,36.5,36.5,0,0,0-10.64,4.08c-.83.54-1.71,1-2.53,1.61l-.62.43-.69.5-.69.55-2.73,2.41a23.83,23.83,0,0,0-2.79,3l-1.41,1.66-.18.21-.2.27-.41.55-.8,1.09-6.81,9.19c-.13-1.67-.26-3.33-.39-5q-.22-3.24-.43-6.51c-.11-2-.22-4-.34-6a10.89,10.89,0,0,1,0-1.52l.12-1.63.25-3.25c.06-.61.09-1.19.16-1.8s.21-1.23.31-1.84.32-1.28.47-1.9.36-1.4.44-1.64a17,17,0,0,1,.75-2.11q.4-1,.81-2c.55-1.34,1.28-2.56,1.9-3.8s1.47-2.33,2.18-3.45a40,40,0,0,1,10.67-10.39,34.77,34.77,0,0,1,12.36-5.17c1.08-.16,2.13-.39,3.2-.46l3.2-.12,3.16.29a8.86,8.86,0,0,1,1.54.27l1.53.34A34.49,34.49,0,0,1,233,102.24a38.57,38.57,0,0,1,9.06,9.14,39.55,39.55,0,0,1,6,12.79,38.83,38.83,0,0,1,.78,16,37,37,0,0,0-1.67-15.76,36.57,36.57,0,0,0-6.65-11.87,34.59,34.59,0,0,0-9.17-7.78,29.68,29.68,0,0,0-10.4-3.61l-1.33-.16a7.37,7.37,0,0,0-1.33-.09l-2.65,0-2.62.39c-.87.16-1.72.46-2.58.67a28.92,28.92,0,0,0-9.66,5.34,33.32,33.32,0,0,0-7.77,9.33c-.47,1-1,1.9-1.47,2.93s-.88,2-1.2,3.15l-.48,1.66a12.09,12.09,0,0,0-.43,1.7c-.08.41,0,.27,0,.34a.34.34,0,0,1,0,.08A1.19,1.19,0,0,0,189.45,126.77Z"/><path class="cls-4" d="M136.53,146.16c-.9-1.26-13-17.64-34-16.83-19.05.74-29.66,15.1-30.9,16.83-3.1-22.62,14-41.26,31.68-41.64C121.37,104.14,139.62,122.92,136.53,146.16Z"/><path class="cls-2" d="M77.17,132.74c.08.24.2.33.3.34a.25.25,0,0,0,.15-.05l.16-.29a1.53,1.53,0,0,0,.11-.25v0h0s-.06.05,0,0l.79-.57c1-.78,2.19-1.41,3.28-2.1a42.24,42.24,0,0,1,14.18-5.06,29.72,29.72,0,0,1,3.59-.42l1.76-.1.88,0,.87,0,3.42.15,3.29.49a40.76,40.76,0,0,1,11.41,3.95A37.92,37.92,0,0,1,134.31,140c2.32,3.35,2.92,5.68,2.22,6.17s-2.53-.73-5.59-2.76c-1.55-1-3.38-2.22-5.56-3.42a53.75,53.75,0,0,0-7.5-3.43,40.43,40.43,0,0,0-9.28-2l-2.55-.15-2.62.09h-.66l-.67.08-1.33.16a22.57,22.57,0,0,0-2.69.46,36.75,36.75,0,0,0-10.64,4.07c-.83.55-1.71,1-2.53,1.62l-.62.43-.7.5-.68.54-2.73,2.41a24.68,24.68,0,0,0-2.79,3L76,149.45l-.18.2-.2.28-.41.54-.8,1.1-6.81,9.18-.39-5q-.22-3.24-.43-6.51-.17-3-.34-6a10.89,10.89,0,0,1,0-1.52l.12-1.64.25-3.24c.06-.61.09-1.2.16-1.8s.21-1.23.31-1.84.32-1.28.47-1.91.36-1.39.44-1.63a14.64,14.64,0,0,1,.75-2.11q.41-1,.81-2c.55-1.34,1.28-2.57,1.9-3.8s1.47-2.33,2.18-3.46a40.33,40.33,0,0,1,10.67-10.39,34.93,34.93,0,0,1,12.36-5.16c1.08-.16,2.13-.39,3.2-.47l3.2-.11,3.16.29a9,9,0,0,1,1.54.27l1.53.34a34.29,34.29,0,0,1,11.23,5.19,38.38,38.38,0,0,1,9.06,9.14,39.59,39.59,0,0,1,6,12.78,38.88,38.88,0,0,1,.78,16,37,37,0,0,0-1.67-15.76,36.47,36.47,0,0,0-6.65-11.87,34.59,34.59,0,0,0-9.17-7.78,30,30,0,0,0-10.4-3.62l-1.33-.15a7.37,7.37,0,0,0-1.33-.09l-2.65,0-2.62.38c-.87.16-1.72.46-2.58.68a28.75,28.75,0,0,0-9.66,5.34,33.15,33.15,0,0,0-7.77,9.33c-.47,1-1,1.9-1.47,2.93s-.88,2-1.2,3.15l-.48,1.66a12.09,12.09,0,0,0-.43,1.7c-.08.41,0,.27,0,.34a.49.49,0,0,1,0,.07A1.32,1.32,0,0,0,77.17,132.74Z"/><path class="cls-4" d="M228.4,220.88a92.94,92.94,0,0,1-61.85,27.64A91.54,91.54,0,0,1,107,230.14c1.45,30.47,30.55,53.7,63.56,51.88C204.62,280.14,231.67,252.2,228.4,220.88Z"/><path class="cls-2" d="M103.08,237.62a38.3,38.3,0,0,1-.74-4.72c-.2-1.56-.33-3.07-.48-4.61l-.43-4.78-.11-1.23c0-.41-.08-.86-.09-1.11l-.11-1.93,11.16,8.29c1.8,1.22,3.55,2.29,5.35,3.45.44.28.88.53,1.33.79l1.15.62,1.3.69a102.53,102.53,0,0,0,10.68,4.67,92.57,92.57,0,0,0,42.77,4.83l2.46-.31,1.22-.15,1.19-.23,4.69-.91,4.47-1.14c1.47-.37,2.86-.89,4.25-1.31a108.19,108.19,0,0,0,14.72-6.08c4.23-2.18,7.82-4.32,10.76-6.14,5.83-3.69,9.09-6.08,9.78-5.43s-1.41,4.28-6.61,9.42a79.39,79.39,0,0,1-10.25,8.35,89.59,89.59,0,0,1-15.26,8.24c-1.49.58-3,1.27-4.57,1.79l-4.87,1.6-5.14,1.31-1.31.32-1.35.24-2.72.49a93.43,93.43,0,0,1-23.39.92A94.85,94.85,0,0,1,128.3,248a101.09,101.09,0,0,1-11.89-5.48l-1.44-.81c-.35-.2-.18-.12-.21-.14l0,0-.11-.12-.37-.39-.12-.12s0,0,0,0a.34.34,0,0,0-.06.12,1.5,1.5,0,0,0-.08.43v.19l.07.39a22,22,0,0,0,.68,2.15c.32,1,.73,1.85,1.08,2.77s.8,1.78,1.24,2.64a51.18,51.18,0,0,0,6.2,9.4,56,56,0,0,0,16,13.13,60.23,60.23,0,0,0,17.92,6.5,58.09,58.09,0,0,0,9.16,1.08,59.67,59.67,0,0,0,9.16-.26,62.49,62.49,0,0,0,18-4.6,61.1,61.1,0,0,0,16.89-10.65,56.06,56.06,0,0,0,13.44-17.87,49.67,49.67,0,0,0,4.58-25.43,51.09,51.09,0,0,1-3.73,25.81,58.85,58.85,0,0,1-13,18.9,67.34,67.34,0,0,1-45.46,18.91,64.19,64.19,0,0,1-10-.51,66.26,66.26,0,0,1-20.15-5.84,62.81,62.81,0,0,1-19-13.73,58.79,58.79,0,0,1-7.91-10.56c-.58-1-1.11-2-1.66-3.06s-1-2.12-1.49-3.23a33.45,33.45,0,0,1-1.47-4.12c-.28-.94-.59-1.87-.86-2.83Z"/><path class="cls-2" d="M269.71,74.43a5.78,5.78,0,0,1,1.77,3.09c.27,1.76,1.45,1.09,2.5,2.5a5,5,0,0,1,.91,3,7.29,7.29,0,0,1-1,3.27A16.27,16.27,0,0,1,267.8,92a14,14,0,0,1-10,1.58c-3-.52-5.67-1.56-8.66-2a23.92,23.92,0,0,0-6.9.28,49.84,49.84,0,0,0-6.68,1.58c.4.57,5.52,1.88,5.55,1.68,0,.2,1.18.47,2.5.66a31.16,31.16,0,0,0,3.21.3c3.37.07,1.52,2.16-1,3.41-3.87.52-6.94,1.17-10.59.66-2.71-.39-5-.89-7.62-1.45-1.52,1.31-3.07,3-5.22,2.66a10,10,0,0,1-4.25-1.07,22.82,22.82,0,0,1-9.14,1.63,7.36,7.36,0,0,0,4.52.5c1.25,1.38.62,1.77-.7,2.4a4.69,4.69,0,0,0-2.57.38c-.57.16-1.14.38-1.65.55a8.37,8.37,0,0,1-1.25.35c-1.83.24-1.48,1.58-3.15,2.36-2.49,1.21-5.47,2.3-7.78,4.25a41.09,41.09,0,0,0-8.89,10.26,32.35,32.35,0,0,0-4.46,13.4,48.18,48.18,0,0,1-1.29,6.39,21.82,21.82,0,0,0-.74,6.33,58.35,58.35,0,0,1,8.32-34.83,54,54,0,0,1,12.14-13.66,52,52,0,0,1,7.74-5.06,56,56,0,0,1,8.54-3.6,28.69,28.69,0,0,1,3.76-.92h0c4.44-.92,8.83-1.69,13.07-2.69a58.51,58.51,0,0,0,11.88-3.92,20.38,20.38,0,0,0,6.57-5.43c1.76-2.07,3-4.08,4.32-5.46a3.08,3.08,0,0,1,2.81-1.12,10.4,10.4,0,0,1,2.23,1l1.15.63a3.52,3.52,0,0,1,.48.29,9.87,9.87,0,0,1,1.36-.43,7.48,7.48,0,0,1,1.44-.26A3.75,3.75,0,0,1,269.71,74.43Zm-57.66,29.34c.06.15.4.07.4-.08C212.3,103.78,212.22,103.6,212.05,103.77ZM198.16,103l.05,0c.14-.14.34-.37.06-.27-.09.1.09,0,0,.14C198.05,103.12,198.07,103.12,198.16,103Zm23.08-2.88c-.12-.44-.52,0-.72-.2C220.67,100.17,221,100.15,221.24,100.16Zm47.65-10.41a1.38,1.38,0,0,0-.61.63C268.46,90.33,269.14,89.94,268.89,89.75ZM258.68,75.63c-.17,0-.13.19-.1.31A.23.23,0,0,0,258.68,75.63Zm12.87,11.55c-.17.11-.65.39-.54.58C271.16,87.48,271.47,87.47,271.55,87.18Z"/></g></svg>