<svg xmlns="http://www.w3.org/2000/svg" viewBox="0 0 303.16 351.16"><defs><style>.cls-1{fill:#b2b2b2;}.cls-2{fill:rgb(245, 91, 73);fill-rule:evenodd;}.cls-3{fill:#dadada;}.cls-4{fill:#fff;}</style></defs><g id="mask"><path class="cls-1" d="M18.83,57c8.25-7.82,20.51-9.22,31.83-10.21a1.62,1.62,0,0,1,2.15,1.45,91.78,91.78,0,0,1,2.25,39.42L21.11,69.32"/><path class="cls-2" d="M50.82,63.19c-.59-3-1.26-6-2-8.87l-.29-1.08-.15-.54,0-.14v0h0v0h-.1l-.54.05-2.13.17-4.06.36q-3.91.38-7.22.9A72,72,0,0,0,23.8,56.47c-2.55.79-4.27,1.29-5,.56-.34-.36-.35-1,0-1.83a10,10,0,0,1,2-3.16,27.82,27.82,0,0,1,11-7,53.51,53.51,0,0,1,8.11-2.28c1.44-.3,2.92-.54,4.41-.76.75-.1,1.51-.21,2.27-.29l1.59-.18a20.09,20.09,0,0,1,2.18-.07h2.19a2.4,2.4,0,0,1,1,.17,6.43,6.43,0,0,1,.91.37,6.74,6.74,0,0,1,1.67,1.18,7.48,7.48,0,0,1,.65.74,3.07,3.07,0,0,1,.28.42l.19.53c.49,1.41,1,2.8,1.46,4.26l.23,1,.13.61L59.27,52a69.25,69.25,0,0,1,1.17,10.1,90.38,90.38,0,0,1-.13,9.7c-.09,1.5-.24,2.94-.4,4.33-.08.69-.17,1.38-.25,2l-.15,1-.08.53-.1.75c-.59,4.06-1.31,7.42-2,10.56l-.12.59s0,.11,0,.13L57,91.64l-.29-.17-1.17-.69L53.3,89.44c-1.46-.86-2.91-1.78-4.28-2.63l-2-1.27-1.46-1-2.95-1.93-6.27-4c-4.4-2.78-9.31-5.81-15.21-9.33,6.18,3,11.4,5.46,16.13,7.62L44,80l3.23,1.42,1.59.7,1,.37c.64.24,1.23.44,1.76.61l.75.23.35.09.08,0h0a.17.17,0,0,0,0-.07v-.28a25.63,25.63,0,0,0-.25-3.75l0-.2v-.43l0-.94c0-.62-.06-1.26-.1-1.91-.08-1.28-.17-2.61-.32-4C51.84,69.18,51.43,66.28,50.82,63.19Z"/><path class="cls-3" d="M20,57c3,27.32,5.92,54.65,9.8,81.86C34,168.2,39.26,197.64,50.2,225.2S78.09,278.55,102.06,296c11.14,8.11,23.55,14.27,36,20.27,2.16,1,4.43,2.11,6.83,2A14.15,14.15,0,0,0,150,316.7a179.21,179.21,0,0,0,54.08-38.58,212.55,212.55,0,0,0,30.14-40.74c10.2-17.62,18.37-36.55,22.59-56.46,5-23.66,4.4-48.11,3.74-72.29Q259.4,66,258.24,23.3c-10.32,18-31.17,26.83-51.14,32.32C150.47,71.19,90.47,69,32.15,62.13c-4.63-.55-9.57-1.26-13-4.37"/><path class="cls-2" d="M223,263.18A187.55,187.55,0,0,1,197.11,292a181.39,181.39,0,0,1-31.21,22.58q-2.07,1.2-4.19,2.33c-1.4.77-2.82,1.49-4.24,2.21s-2.86,1.41-4.29,2.1c-.72.34-1.41.68-2.27,1.05a21,21,0,0,1-2.95,1,13.26,13.26,0,0,1-3.77.46,15,15,0,0,1-3.58-.54,30.74,30.74,0,0,1-5.17-2.09q-4.16-2-8.3-4.05c-11-5.49-22-11.51-31.72-19.22a137.67,137.67,0,0,1-13.63-12.26,161.26,161.26,0,0,1-11.65-13.61c-3.56-4.71-6.8-9.55-9.8-14.45s-5.64-9.92-8.11-14.92c-9.77-20.12-15.41-40.45-19.37-59.22S26.77,147.16,25,131.8,22,103,21.13,91.93C19.41,69.79,19,57.09,20,57s3.2,12.41,6.48,34.33c1.66,11,3.59,24.26,6,39.46s5.19,32.31,9.44,50.57S52.06,219.05,61.56,238c2.4,4.7,5,9.39,7.82,14s6,9.09,9.3,13.46A155.07,155.07,0,0,0,89.58,278a130.73,130.73,0,0,0,12.57,11.23c8.87,7,19.12,12.67,29.87,18.06l8.16,4a21.2,21.2,0,0,0,3.32,1.42,3.86,3.86,0,0,0,.95.16,2.68,2.68,0,0,0,.8-.1,20,20,0,0,0,3.34-1.38c1.35-.64,2.71-1.26,4-1.95s2.68-1.33,4-2.05,2.66-1.42,4-2.16a175.79,175.79,0,0,0,29.66-21,181.93,181.93,0,0,0,25-26.85,234.56,234.56,0,0,0,19.95-31.08,194.9,194.9,0,0,0,13.64-31.37c7-20.86,8.48-41.63,8.74-61.41.12-9.91-.07-19.62-.21-29.17s-.29-18.91-.43-28.16-.29-18.38-.42-27.46q-.09-6.16-.18-12.29l0-4.16,0-2.15v-1l0,0-.54.84a17.84,17.84,0,0,1-1.14,1.64c-.43.53-.8,1.1-1.29,1.6s-.9,1-1.45,1.58l-1.78,1.72a70.29,70.29,0,0,1-11.17,8.11,113.27,113.27,0,0,1-25.53,10.71C204.42,58,195.21,60,185.75,61.89l-7.16,1.22-3.62.61-3.65.5-7.38,1-7.49.79c-2.52.3-5.06.49-7.61.67s-5.13.43-7.73.56c-5.2.25-10.47.55-15.83.61s-10.81.1-16.35.1-11.17-.21-16.89-.5c-11.45-.51-23.29-1.32-35.57-2.55-3.07-.26-6.16-.64-9.29-1s-6.27-.69-9.45-1.07-6.41-.69-9.63-1.26-6.49-1.59-9-3.85c2.52,2.23,5.82,3.2,9,3.74s6.45.78,9.63,1.15,6.34.68,9.47,1,6.22.62,9.29.85c12.28,1.06,24.12,1.72,35.56,2.07,5.72.21,11.34.21,16.87.26s11-.08,16.3-.35,10.59-.52,15.76-.86c2.58-.17,5.14-.46,7.68-.68s5.07-.46,7.56-.8l7.44-.91L171,62.07l3.62-.57,3.58-.67,7.09-1.34c9.33-2.05,18.46-4.23,27.19-7A109.89,109.89,0,0,0,237,41.59a65.83,65.83,0,0,0,10.42-7.93l2.95-3.08c.12-.14.24-.24.37-.4l.38-.52.77-1,1.55-2.08.78-1.06.78-1.17,1.57-2.37c.5-.78,1.09-1.62,1.53-2.35l1.4-2.25.61.14,0,0v.43l0,.58,0,1.15.16,4.63.34,9.41q.27,7.44.55,14.9c.36,9.07.71,18.2,1.07,27.44s.72,18.6,1.09,28.14.78,19.28.89,29.34a280.3,280.3,0,0,1-1.19,31.13,166.83,166.83,0,0,1-6.51,32.75,203.45,203.45,0,0,1-13.53,33A242.49,242.49,0,0,1,223,263.18Z"/><path class="cls-2" d="M103.51,203.18a31.49,31.49,0,0,1-3.75-4.45A23.68,23.68,0,0,1,97,193.14a19.76,19.76,0,0,1-1-6.38,22.54,22.54,0,0,1,.89-6,50.29,50.29,0,0,1,3.76-8.93c1.22-2.42,2.25-4.6,3.16-6.75,3.63-8.51,5.27-14.94,7.28-14.86,1,0,1.84,1.76,2.27,4.85a38.19,38.19,0,0,1-.72,12.74,55,55,0,0,1-2.46,8.19,78.77,78.77,0,0,0-2.75,7.64,12.11,12.11,0,0,0-.16,6.39,15.92,15.92,0,0,0,1.28,3.29,28.22,28.22,0,0,0,2.19,3.4,47.72,47.72,0,0,0,5.87,6.3,56.9,56.9,0,0,0,5.91,4.9,14.51,14.51,0,0,0,5.58,2.48,11.09,11.09,0,0,0,5.78-.62c3.93-1.45,7.59-4.49,11-8.38a42.78,42.78,0,0,0,8.56-15.71,49.15,49.15,0,0,1-7,16.87,47.51,47.51,0,0,1-4.79,6.17,26.29,26.29,0,0,1-5.94,4.83,16.18,16.18,0,0,1-7.91,2.28,20.25,20.25,0,0,1-8.51-2,60.5,60.5,0,0,1-7.67-4.36A53.85,53.85,0,0,1,103.51,203.18Z"/><path class="cls-4" d="M220.77,76.42c-.53,1.46-7.94,20.45-28.35,25.19-18.58,4.31-32.6-6.75-34.24-8.09,3,22.63,24.41,36.1,41.52,31.82C217.22,121,229.87,98,220.77,76.42Z"/><path class="cls-2" d="M155.93,103.79l-1.1-3.06-.55-1.55a11.3,11.3,0,0,1-.37-1.47l-1.26-5.88c-.43-2.14-.87-4.27-1.3-6.39-.31-1.65-.63-3.29-.94-4.93l9,7.07,1.07.84.53.42.27.21.22.15,1.8,1.23a23.08,23.08,0,0,0,3.49,2.17L170,94.21l.81.35.8.29.72.26c.94.37,1.92.58,2.86.89a37,37,0,0,0,11.33,1.13,22.17,22.17,0,0,0,2.72-.27l1.33-.2.66-.09.65-.17,2.55-.6,2.41-.82a40.55,40.55,0,0,0,8.43-4.38,53.36,53.36,0,0,0,6.33-5.27c1.79-1.74,3.23-3.4,4.46-4.77,2.42-2.77,3.86-4.43,4.67-4.14s.84,2.7-.51,6.54a38,38,0,0,1-9.54,14.21,41,41,0,0,1-10,6.82l-3,1.34-3.26,1-.83.26-.86.19-1.73.37a29.34,29.34,0,0,1-3.56.54,42.52,42.52,0,0,1-15-1.14c-1.23-.38-2.5-.69-3.71-1.17l-.92-.33c-.12,0,0,0,0,0h0v0a1.22,1.22,0,0,0-.17-.2l-.23-.24a.22.22,0,0,0-.16,0c-.09,0-.18.15-.2.4a1,1,0,0,0,0,.24.21.21,0,0,1,0,.08c0,.06-.07-.06.11.32a11.25,11.25,0,0,0,.86,1.52c.31.5.61,1,.9,1.48.6,1,1.35,1.82,2,2.72s1.47,1.63,2.18,2.44a33.25,33.25,0,0,0,10,7,29,29,0,0,0,10.73,2.62c.89,0,1.79,0,2.67,0l2.63-.32,2.57-.66a6.84,6.84,0,0,0,1.25-.43l1.25-.5a30.18,30.18,0,0,0,9.08-6.23,34.77,34.77,0,0,0,6.79-9.92,36.41,36.41,0,0,0,3.29-13.2,37,37,0,0,0-2.54-15.65,38.73,38.73,0,0,1,3.47,15.67A39.4,39.4,0,0,1,221.81,106a38.33,38.33,0,0,1-6.34,11.21,34.45,34.45,0,0,1-9.46,8l-1.38.73a9.16,9.16,0,0,1-1.42.66l-3,1.11-3.12.74c-1.05.2-2.13.26-3.21.39a34.9,34.9,0,0,1-13.28-1.73,40.11,40.11,0,0,1-13-7.21c-1-.9-2.06-1.75-3-2.75s-2-2-2.83-3.17l-1.32-1.75a18.27,18.27,0,0,1-1.28-1.84c-.14-.22-.54-.93-.85-1.47s-.69-1.15-1-1.71l-.78-1.69C156.33,104.92,156.15,104.36,155.93,103.79Z"/><path class="cls-4" d="M108.74,89.27c-.9,1.26-13,17.63-34,16.82-19-.74-29.66-15.09-30.9-16.82-3.1,22.61,14,41.25,31.68,41.63C93.58,131.29,111.83,112.5,108.74,89.27Z"/><path class="cls-2" d="M39,98.59l-.25-3.25L38.6,93.7a12.43,12.43,0,0,1,0-1.51c.11-2,.23-4,.34-6q.21-3.25.43-6.51l.39-5,6.81,9.19L47.4,85l.41.55.2.27.18.21,1.41,1.65a24,24,0,0,0,2.79,3l2.73,2.41.69.55.69.49.62.44c.82.6,1.7,1.06,2.53,1.61a36.75,36.75,0,0,0,10.64,4.07,20.72,20.72,0,0,0,2.69.46l1.33.16.67.08.66,0,2.62.09,2.55-.16a40.43,40.43,0,0,0,9.28-2,53.77,53.77,0,0,0,7.5-3.42c2.18-1.21,4-2.43,5.56-3.42,3.06-2,4.89-3.26,5.59-2.76s.1,2.81-2.22,6.16a37.81,37.81,0,0,1-12.94,11.2,40.64,40.64,0,0,1-11.41,4l-3.29.49-3.42.15-.87,0-.88,0-1.76-.1a27.84,27.84,0,0,1-3.59-.42,42.24,42.24,0,0,1-14.18-5.06c-1.09-.69-2.23-1.32-3.28-2.1l-.79-.56,0,0h0v0a1.1,1.1,0,0,0-.11-.25l-.16-.29a.19.19,0,0,0-.15,0c-.1,0-.22.1-.3.33a.78.78,0,0,0-.05.23.69.69,0,0,1,0,.08c0,.06,0-.08,0,.33a11.75,11.75,0,0,0,.43,1.7c.16.56.32,1.12.48,1.66.32,1.1.82,2.11,1.2,3.16s1,2,1.47,2.92a33.15,33.15,0,0,0,7.77,9.33,29,29,0,0,0,9.66,5.35c.86.21,1.71.51,2.58.67l2.62.38,2.65,0a6.56,6.56,0,0,0,1.33-.09l1.33-.15a29.91,29.91,0,0,0,10.4-3.62,34.59,34.59,0,0,0,9.17-7.78A36.52,36.52,0,0,0,107.07,105a37,37,0,0,0,1.67-15.76,38.83,38.83,0,0,1-.78,16,39.59,39.59,0,0,1-6,12.78,38.43,38.43,0,0,1-9.06,9.15,34.7,34.7,0,0,1-11.23,5.19l-1.53.34a9.92,9.92,0,0,1-1.54.27l-3.16.28-3.2-.11c-1.07-.08-2.12-.31-3.2-.46a35,35,0,0,1-12.36-5.17A40,40,0,0,1,46,117.17c-.71-1.12-1.52-2.23-2.18-3.45s-1.36-2.47-1.9-3.8c-.27-.68-.54-1.36-.82-2a17,17,0,0,1-.74-2.11c-.08-.25-.28-1-.44-1.64s-.36-1.29-.47-1.9-.21-1.23-.31-1.84S39,99.19,39,98.59Z"/><path class="cls-4" d="M194.82,274.56c-3.11-3.43-22.18-23.76-51.57-22.38-26.49,1.24-43,19.26-46.48,23.29-1-30.49,20.73-56.07,47.34-57C171.56,217.49,195.23,243.08,194.82,274.56Z"/><path class="cls-2" d="M102.83,261.8a1.34,1.34,0,0,0,.16.55c.08.06.11.21.27-.1a2.59,2.59,0,0,0,.27-.46s0,0,0,0,0,0,0,0l.28-.22,1.11-.86c.73-.58,1.52-1.08,2.27-1.63,1.51-1.1,3.12-2,4.69-3A68,68,0,0,1,132,248.27a62.32,62.32,0,0,1,57.82,18.12c4.12,4.44,5.63,7.61,5,8.17s-3.39-1.33-8.17-4.38a88.63,88.63,0,0,0-20.72-10.07,61.94,61.94,0,0,0-14.87-2.72,58.39,58.39,0,0,0-16.76,1.39,63.68,63.68,0,0,0-16.94,6.74c-1.33.83-2.73,1.6-4,2.53-.66.46-1.34.88-2,1.37l-1,.73-.77.57c-.37.27-.68.55-1,.83l-4,3.56-.5.44-.52.55-1,1.11-2.08,2.2L91.74,289c-.09-3.17,0-8.43,0-12.48l.05-3.19c0-1.06,0-2.1.14-3.26l.28-3.38c.16-1.16.37-2.34.56-3.5.15-.91.28-1.82.48-2.72.16-.66.32-1.31.49-2,.24-1,.59-2,.88-3s.67-2,1-2.91.76-1.87,1.13-2.79a61.37,61.37,0,0,1,5.5-10.08A56.42,56.42,0,0,1,116.7,225a49.65,49.65,0,0,1,17-7.65,45.67,45.67,0,0,1,17.52-.61,48.1,48.1,0,0,1,8.41,2.17,50.68,50.68,0,0,1,7.92,3.76,52.4,52.4,0,0,1,13.82,11.87,57.85,57.85,0,0,1,9.92,17.44,61.18,61.18,0,0,1,3.56,22.62,59.23,59.23,0,0,0-4.42-22.28,54.8,54.8,0,0,0-10.52-16.51,48.37,48.37,0,0,0-13.81-10.48,44.62,44.62,0,0,0-7.59-3,42.23,42.23,0,0,0-7.81-1.44,40.52,40.52,0,0,0-15.57,1.71,43.74,43.74,0,0,0-14.32,7.81,49.46,49.46,0,0,0-11.59,13.72,53.58,53.58,0,0,0-4.13,9c-.26.81-.55,1.63-.8,2.46s-.49,1.68-.7,2.54-.43,1.72-.58,2.61l-.12.67,0,.17v.09C102.82,261.69,102.82,261.75,102.83,261.8Z"/><path class="cls-2" d="M249.94,56.54a9.27,9.27,0,0,1,.48,3.34c-.07,1.48.92,1.55,1.55,3.13,1.57,3.93-.09,5.61-2.59,7.34-3.59,2.6-8.89,1.23-13.59,3.18-3.26,1.39-5.92,5.45-7.62,8.42.63.19,4.86-1.68,4.73-1.83.28.3,3.74-1.82,4.28-2.18,2.19-1.42,2.35.89,1.64,3-1,1.11-1.93,2.25-2.9,3.3a16.37,16.37,0,0,1-3.57,3,33.46,33.46,0,0,1-3.27,1.76,32.58,32.58,0,0,1-3.44,1.45,12,12,0,0,1-1.09,2.91,4.47,4.47,0,0,1-2.44,2c-1.49.4-3.23,1-4.67.46a11.56,11.56,0,0,1-9.21,1.81,5.51,5.51,0,0,0,4.48,1c1.3,1.36.59,1.84-1,2.44-.37-.24-1.61,0-2.9.07a13.75,13.75,0,0,1-3.23.15c-1.84-.41-2,1-3.95.94-2.84-.08-5.74-1-8.47-1.15-4.31-.31-8.11-.84-11.92-1.09s-7.61-.25-11.78-.91a8.31,8.31,0,0,1-4.52-2.52,16.46,16.46,0,0,1-2.58-3.73,9.25,9.25,0,0,0,4.72,3.85,18.53,18.53,0,0,0,6.53,1.31,48.77,48.77,0,0,0,7.09-.32c2.43-.25,4.88-.51,7.3-.82a89.88,89.88,0,0,0,14.2-2.81,38.42,38.42,0,0,0,12.53-6c.72-.57,1.55-1.06,2.34-1.67h0a31.36,31.36,0,0,0,7.05-7.55,78.19,78.19,0,0,0,5.31-9.39,77.2,77.2,0,0,0,3-8.19,28.93,28.93,0,0,1,1.89-4.23c.39-.69.81-1.35,1.26-2a18.52,18.52,0,0,1,1.62-1.81,5.67,5.67,0,0,1,4.45-2,5.46,5.46,0,0,1,2,1.46c.36.35.69.7.92,1a2.07,2.07,0,0,1,.35.44C247,53.76,249.26,54.41,249.94,56.54ZM211,99.88c0,.16.42.1.44,0C211.27,99.91,211.21,99.73,211,99.88Zm-12-5.39h.05c.15,0,.37-.15.14-.2s.05.09,0,.13C198.9,94.49,198.91,94.5,199,94.49Zm21.53.17c-.26-.36-.52.18-.78.08C220,94.89,220.26,94.76,220.53,94.66Zm28.88-25.92a.41.41,0,0,0-.25.4C249.28,69.11,249.65,68.94,249.41,68.74ZM238.27,55.36c-.22,0-.18.25-.16.39A.38.38,0,0,0,238.27,55.36Zm12.42,12c-.1,0-.38.14-.26.32C250.48,67.48,250.69,67.55,250.69,67.34Z"/></g></svg>