<svg xmlns="http://www.w3.org/2000/svg" viewBox="0 0 472.42 164.21"><defs><style>.cls-1{fill:#f6f6f6;}.cls-2,.cls-3{fill:#167d7d;}.cls-2{opacity:0.63;}</style></defs><g id="pflaster"><rect class="cls-1" x="30.52" y="30.8" width="408.68" height="109.26"/><rect class="cls-2" x="30.52" y="30.8" width="408.68" height="104.88"/><circle class="cls-1" cx="46.34" cy="40.91" r="1.58"/><circle class="cls-1" cx="66.66" cy="40.91" r="1.58"/><circle class="cls-1" cx="85.74" cy="40.91" r="1.58"/><circle class="cls-1" cx="104.3" cy="40.91" r="1.58"/><circle class="cls-1" cx="122.34" cy="40.91" r="1.58"/><circle class="cls-1" cx="323.87" cy="40.91" r="1.58"/><circle class="cls-1" cx="344.18" cy="40.91" r="1.58"/><circle class="cls-1" cx="363.27" cy="40.91" r="1.58"/><circle class="cls-1" cx="381.83" cy="40.91" r="1.58"/><circle class="cls-1" cx="399.87" cy="40.91" r="1.58"/><circle class="cls-1" cx="419.83" cy="40.91" r="1.58"/><circle class="cls-1" cx="43.95" cy="61.48" r="1.58"/><circle class="cls-1" cx="64.26" cy="61.48" r="1.58"/><circle class="cls-1" cx="83.34" cy="61.48" r="1.58"/><circle class="cls-1" cx="101.9" cy="61.48" r="1.58"/><circle class="cls-1" cx="119.94" cy="61.48" r="1.58"/><circle class="cls-1" cx="139.9" cy="61.48" r="1.58"/><circle class="cls-1" cx="321.47" cy="61.48" r="1.58"/><circle class="cls-1" cx="341.79" cy="61.48" r="1.58"/><circle class="cls-1" cx="360.87" cy="61.48" r="1.58"/><circle class="cls-1" cx="379.43" cy="61.48" r="1.58"/><circle class="cls-1" cx="397.47" cy="61.48" r="1.58"/><circle class="cls-1" cx="417.43" cy="61.48" r="1.58"/><circle class="cls-1" cx="44.7" cy="82.05" r="1.58"/><circle class="cls-1" cx="65.01" cy="82.05" r="1.58"/><circle class="cls-1" cx="84.1" cy="82.05" r="1.58"/><circle class="cls-1" cx="102.66" cy="82.05" r="1.58"/><circle class="cls-1" cx="120.7" cy="82.05" r="1.58"/><circle class="cls-1" cx="140.66" cy="82.05" r="1.58"/><circle class="cls-1" cx="322.23" cy="82.05" r="1.58"/><circle class="cls-1" cx="342.54" cy="82.05" r="1.58"/><circle class="cls-1" cx="361.63" cy="82.05" r="1.58"/><circle class="cls-1" cx="380.19" cy="82.05" r="1.58"/><circle class="cls-1" cx="398.22" cy="82.05" r="1.58"/><circle class="cls-1" cx="418.18" cy="82.05" r="1.58"/><circle class="cls-1" cx="44.34" cy="102.63" r="1.58"/><circle class="cls-1" cx="64.65" cy="102.63" r="1.58"/><circle class="cls-1" cx="83.73" cy="102.63" r="1.58"/><circle class="cls-1" cx="102.29" cy="102.63" r="1.58"/><circle class="cls-1" cx="120.33" cy="102.63" r="1.58"/><circle class="cls-1" cx="140.29" cy="102.63" r="1.58"/><circle class="cls-1" cx="321.87" cy="102.63" r="1.58"/><circle class="cls-1" cx="342.18" cy="102.63" r="1.58"/><circle class="cls-1" cx="361.26" cy="102.63" r="1.58"/><circle class="cls-1" cx="379.82" cy="102.63" r="1.58"/><circle class="cls-1" cx="397.86" cy="102.63" r="1.58"/><circle class="cls-1" cx="417.82" cy="102.63" r="1.58"/><circle class="cls-1" cx="43.99" cy="123.2" r="1.58"/><circle class="cls-1" cx="64.3" cy="123.2" r="1.58"/><circle class="cls-1" cx="83.38" cy="123.2" r="1.58"/><circle class="cls-1" cx="101.94" cy="123.2" r="1.58"/><circle class="cls-1" cx="119.98" cy="123.2" r="1.58"/><circle class="cls-1" cx="139.94" cy="123.2" r="1.58"/><circle class="cls-1" cx="321.52" cy="123.2" r="1.58"/><circle class="cls-1" cx="341.83" cy="123.2" r="1.58"/><circle class="cls-1" cx="360.91" cy="123.2" r="1.58"/><circle class="cls-1" cx="379.47" cy="123.2" r="1.58"/><circle class="cls-1" cx="397.51" cy="123.2" r="1.58"/><circle class="cls-1" cx="417.47" cy="123.2" r="1.58"/><rect class="cls-3" x="161.34" y="28.56" width="136.9" height="109.52" rx="12"/><circle class="cls-1" cx="169.55" cy="35.04" r="1.58"/><circle class="cls-1" cx="181.45" cy="48.35" r="1.58"/><circle class="cls-1" cx="193.36" cy="63.76" r="1.58"/><circle class="cls-1" cx="204.74" cy="80.48" r="1.58"/><circle class="cls-1" cx="216.12" cy="96.24" r="1.58"/><circle class="cls-1" cx="228.03" cy="114.1" r="1.58"/><circle class="cls-1" cx="240.81" cy="128.46" r="1.58"/><circle class="cls-1" cx="195.43" cy="32.2" r="1.58"/><circle class="cls-1" cx="207.34" cy="45.5" r="1.58"/><circle class="cls-1" cx="219.25" cy="60.91" r="1.58"/><circle class="cls-1" cx="230.63" cy="77.63" r="1.58"/><circle class="cls-1" cx="242.01" cy="93.39" r="1.58"/><circle class="cls-1" cx="253.92" cy="111.25" r="1.58"/><circle class="cls-1" cx="266.7" cy="125.61" r="1.58"/><circle class="cls-1" cx="226.8" cy="29.35" r="1.58"/><circle class="cls-1" cx="238.71" cy="42.66" r="1.58"/><circle class="cls-1" cx="250.62" cy="58.07" r="1.58"/><circle class="cls-1" cx="262" cy="74.79" r="1.58"/><circle class="cls-1" cx="273.38" cy="90.55" r="1.58"/><circle class="cls-1" cx="285.29" cy="108.41" r="1.58"/><circle class="cls-1" cx="296.49" cy="128.46" r="1.58"/><circle class="cls-1" cx="257.07" cy="29.66" r="1.58"/><circle class="cls-1" cx="268.97" cy="45.07" r="1.58"/><circle class="cls-1" cx="280.36" cy="61.79" r="1.58"/><circle class="cls-1" cx="291.74" cy="77.55" r="1.58"/><circle class="cls-1" cx="292.87" cy="42.22" r="1.58"/><circle class="cls-1" cx="140.66" cy="41.08" r="1.58"/><circle class="cls-1" cx="169.63" cy="74.13" r="1.58"/><circle class="cls-1" cx="181.02" cy="90.85" r="1.58"/><circle class="cls-1" cx="192.4" cy="106.61" r="1.58"/><circle class="cls-1" cx="173.47" cy="122.06" r="1.58"/><circle class="cls-1" cx="185.38" cy="135.68" r="1.58"/><circle class="cls-1" cx="162.67" cy="103.46" r="1.58"/><circle class="cls-1" cx="204.3" cy="124.47" r="1.58"/></g></svg>