<svg xmlns="http://www.w3.org/2000/svg" xmlns:xlink="http://www.w3.org/1999/xlink" viewBox="0 0 426.95 437.05"><defs><style>.cls-1{fill:url(#Dégradé_sans_nom_173);}.cls-2{fill:url(#Dégradé_sans_nom_173-2);}.cls-3{fill:url(#Dégradé_sans_nom_173-3);}.cls-4{fill:url(#Dégradé_sans_nom_173-4);}.cls-5{fill:url(#Dégradé_sans_nom_173-5);}.cls-6{fill:#167d7d;}.cls-7{fill:url(#Dégradé_sans_nom_178);}.cls-8{fill:url(#Dégradé_sans_nom_173-6);}.cls-9{fill:url(#Dégradé_sans_nom_173-7);}.cls-10{fill:url(#Dégradé_sans_nom_173-8);}.cls-11{fill:url(#Dégradé_sans_nom_173-9);}.cls-12{fill:url(#Dégradé_sans_nom_173-10);}.cls-13{fill:url(#Dégradé_sans_nom_173-11);}.cls-14{fill:url(#Dégradé_sans_nom_173-12);}.cls-15{fill:url(#Dégradé_sans_nom_173-13);}.cls-16{fill:url(#Dégradé_sans_nom_173-14);}.cls-17{fill:url(#Dégradé_sans_nom_173-15);}.cls-18{fill:url(#Dégradé_sans_nom_173-16);}.cls-19{fill:url(#Dégradé_sans_nom_186);}.cls-20{fill:url(#Dégradé_sans_nom_204);}.cls-21{fill:url(#Dégradé_sans_nom_204-2);}.cls-22{fill:url(#Dégradé_sans_nom_204-3);}.cls-23{fill:url(#Dégradé_sans_nom_204-4);}.cls-24{fill:url(#Dégradé_sans_nom_193);}.cls-25{fill:url(#Dégradé_sans_nom_173-17);}.cls-26{fill:url(#Dégradé_sans_nom_173-18);}.cls-27{fill:url(#Dégradé_sans_nom_173-19);}.cls-28{fill:url(#Dégradé_sans_nom_215);}.cls-29{fill:#1d1d1b;}.cls-30{fill:#3c3c3b;opacity:0.66;}</style><linearGradient id="Dégradé_sans_nom_173" x1="-6909.18" y1="-2764" x2="-6909.18" y2="-2815.09" gradientTransform="translate(-6361.6 3545.99) rotate(132.05)" gradientUnits="userSpaceOnUse"><stop offset="0.15" stop-color="#b2b2b2"/><stop offset="0.45" stop-color="#1d1d1b"/><stop offset="1" stop-color="#1d1d1b"/></linearGradient><linearGradient id="Dégradé_sans_nom_173-2" x1="-471.94" y1="2127.32" x2="-471.94" y2="2076.23" gradientTransform="translate(-549.24 -1935.65) rotate(-30.89)" xlink:href="#Dégradé_sans_nom_173"/><linearGradient id="Dégradé_sans_nom_173-3" x1="-6521.91" y1="3108.43" x2="-6521.91" y2="3057.34" gradientTransform="matrix(-0.63, -0.77, 0.77, -0.63, -6434.88, -2805.83)" xlink:href="#Dégradé_sans_nom_173"/><linearGradient id="Dégradé_sans_nom_173-4" x1="-7930.47" y1="1137.72" x2="-7930.47" y2="1086.63" gradientTransform="translate(-7730.19 -716.84) rotate(-164.22)" xlink:href="#Dégradé_sans_nom_173"/><linearGradient id="Dégradé_sans_nom_173-5" x1="-1424.99" y1="-2337.67" x2="-1424.99" y2="-2388.76" gradientTransform="translate(-442.15 2792.98) rotate(46.47)" xlink:href="#Dégradé_sans_nom_173"/><linearGradient id="Dégradé_sans_nom_178" x1="201.63" y1="96.26" x2="201.63" y2="22.66" gradientUnits="userSpaceOnUse"><stop offset="0" stop-color="#b2b2b2"/><stop offset="0.15" stop-color="#b2b2b2"/><stop offset="0.32" stop-color="#1d1d1b"/><stop offset="1" stop-color="#1d1d1b"/></linearGradient><linearGradient id="Dégradé_sans_nom_173-6" x1="-1987.48" y1="2734.5" x2="-1987.48" y2="2683.41" gradientTransform="matrix(0.49, -0.87, 1.12, 0.64, -1980.63, -3298.13)" xlink:href="#Dégradé_sans_nom_173"/><linearGradient id="Dégradé_sans_nom_173-7" x1="-5753.7" y1="2855.13" x2="-5753.7" y2="2804.04" gradientTransform="matrix(-0.44, -0.9, 1.15, -0.57, -5702.68, -3247.68)" xlink:href="#Dégradé_sans_nom_173"/><linearGradient id="Dégradé_sans_nom_173-8" x1="-4302.66" y1="3982.31" x2="-4302.66" y2="3931.22" gradientTransform="translate(-4233.32 -3747.02) rotate(-94.5)" xlink:href="#Dégradé_sans_nom_173"/><linearGradient id="Dégradé_sans_nom_173-9" x1="-7530.42" y1="1856.01" x2="-7530.42" y2="1804.91" gradientTransform="translate(-7384.09 -1421.81) rotate(-153.35)" xlink:href="#Dégradé_sans_nom_173"/><linearGradient id="Dégradé_sans_nom_173-10" x1="-7958.57" y1="-320.56" x2="-7958.57" y2="-371.66" gradientTransform="translate(-7731.05 830.93) rotate(174.16)" xlink:href="#Dégradé_sans_nom_173"/><linearGradient id="Dégradé_sans_nom_173-11" x1="-7798.31" y1="1010.23" x2="-7798.31" y2="959.14" gradientTransform="matrix(-0.95, -0.32, 0.43, -1.27, -7688.49, -882.34)" xlink:href="#Dégradé_sans_nom_173"/><linearGradient id="Dégradé_sans_nom_173-12" x1="-7720.87" y1="-1606" x2="-7720.87" y2="-1657.1" gradientTransform="translate(-7400.01 2234.56) rotate(154.53)" xlink:href="#Dégradé_sans_nom_173"/><linearGradient id="Dégradé_sans_nom_173-13" x1="-6851.15" y1="-2012.68" x2="-6851.15" y2="-2063.77" gradientTransform="matrix(-0.67, 0.74, -1.01, -0.91, -6321.35, 3582.3)" xlink:href="#Dégradé_sans_nom_173"/><linearGradient id="Dégradé_sans_nom_173-14" x1="-3062.2" y1="-2453.97" x2="-3062.2" y2="-2505.06" gradientTransform="matrix(0.32, 0.95, -1.29, 0.44, -1909.14, 4176.91)" xlink:href="#Dégradé_sans_nom_173"/><linearGradient id="Dégradé_sans_nom_173-15" x1="88.82" y1="-1180" x2="88.82" y2="-1231.1" gradientTransform="translate(-198 1192.84) rotate(19.12)" xlink:href="#Dégradé_sans_nom_173"/><linearGradient id="Dégradé_sans_nom_173-16" x1="-380.88" y1="2124.08" x2="-380.88" y2="2072.99" gradientTransform="matrix(0.86, -0.51, 0.51, 0.86, -558.31, -1893.83)" xlink:href="#Dégradé_sans_nom_173"/><linearGradient id="Dégradé_sans_nom_186" x1="72.96" y1="-1098.03" x2="72.96" y2="-1149.13" gradientTransform="translate(-198 1192.84) rotate(19.12)" gradientUnits="userSpaceOnUse"><stop offset="0" stop-color="#b2b2b2"/><stop offset="0.25" stop-color="#b2b2b2"/><stop offset="0.52" stop-color="#1d1d1b"/></linearGradient><linearGradient id="Dégradé_sans_nom_204" x1="-5280.77" y1="3806.45" x2="-5280.77" y2="3755.36" gradientTransform="translate(-5412.98 -3112.63) rotate(-113.3)" gradientUnits="userSpaceOnUse"><stop offset="0" stop-color="#b2b2b2"/><stop offset="0.26" stop-color="#1d1d1b"/><stop offset="1" stop-color="#1d1d1b"/></linearGradient><linearGradient id="Dégradé_sans_nom_204-2" x1="-2649.26" y1="4038.24" x2="-2649.26" y2="3987.15" gradientTransform="translate(-3281.52 -3200.85) rotate(-78.33)" xlink:href="#Dégradé_sans_nom_204"/><linearGradient id="Dégradé_sans_nom_204-3" x1="-6825.81" y1="-1808.41" x2="-6825.81" y2="-1859.5" gradientTransform="translate(-6425.57 2643.7) rotate(145.7)" xlink:href="#Dégradé_sans_nom_204"/><linearGradient id="Dégradé_sans_nom_204-4" x1="-4937.5" y1="-3233.03" x2="-4937.5" y2="-3284.12" gradientTransform="translate(-4434.52 3803.06) rotate(109.54)" xlink:href="#Dégradé_sans_nom_204"/><linearGradient id="Dégradé_sans_nom_193" x1="-925.29" y1="-2829.53" x2="-925.29" y2="-2880.62" gradientTransform="matrix(0.66, 0.75, -0.75, 0.66, -1209.82, 2722.04)" gradientUnits="userSpaceOnUse"><stop offset="0" stop-color="#b2b2b2"/><stop offset="0.38" stop-color="#1d1d1b"/><stop offset="1" stop-color="#1d1d1b"/></linearGradient><linearGradient id="Dégradé_sans_nom_173-17" x1="-3017.57" y1="-3774.77" x2="-3017.57" y2="-3825.86" gradientTransform="translate(-3131.27 3601.81) rotate(84.38)" xlink:href="#Dégradé_sans_nom_173"/><linearGradient id="Dégradé_sans_nom_173-18" x1="-5000.22" y1="-3418.32" x2="-5000.22" y2="-3469.41" gradientTransform="translate(-4932.88 3351.97) rotate(115.3)" xlink:href="#Dégradé_sans_nom_173"/><linearGradient id="Dégradé_sans_nom_173-19" x1="-1676.39" y1="2771.87" x2="-1676.39" y2="2720.78" gradientTransform="matrix(0.68, -0.84, 0.93, 0.75, -1248.33, -3291.66)" xlink:href="#Dégradé_sans_nom_173"/><linearGradient id="Dégradé_sans_nom_215" x1="-6120.06" y1="-2864.94" x2="-6120.06" y2="-2938.53" gradientTransform="matrix(-0.65, 0.76, -0.76, -0.65, -5934.63, 3039.13)" gradientUnits="userSpaceOnUse"><stop offset="0" stop-color="#b2b2b2"/><stop offset="0.21" stop-color="#b2b2b2"/><stop offset="0.26" stop-color="#b2b2b2"/><stop offset="0.34" stop-color="#1d1d1b"/><stop offset="1" stop-color="#1d1d1b"/></linearGradient></defs><g id="corona"><path class="cls-1" d="M330.07,308.79c2.58.5,5.26-.59,7.53-2.76,3.71,3.57,8.39,4.84,11.85,2.79,3.11-1.84,4.45-5.9,3.85-10.4,4.53.14,8.44-1.61,9.95-4.89,1.68-3.66-.07-8.18-4-11.51,1.92-2.47,2.73-5.26,2-7.76-1.54-5-8.83-7.05-16.28-4.51a19.2,19.2,0,0,0-8.2,5.31l-13.9-12.54-8,8.89L328.73,284a18.94,18.94,0,0,0-4.81,9.09C322.16,300.73,324.91,307.77,330.07,308.79Z"/><path class="cls-2" d="M139.27,89c-2.32-1.24-5.21-1-8,.43-2.5-4.5-6.6-7.09-10.51-6.15-3.52.85-6,4.34-6.73,8.82-4.29-1.46-8.54-.94-11,1.76-2.67,3-2.33,7.83.45,12.17-2.57,1.8-4.16,4.22-4.16,6.85,0,5.26,6.37,9.32,14.24,9.08a19.26,19.26,0,0,0,9.4-2.67l9.61,16.06,10.28-6.15-9.62-16.08a18.87,18.87,0,0,0,7.26-7.27C144.47,99.07,143.9,91.53,139.27,89Z"/><path class="cls-3" d="M53.67,287.55c-.9,2.46-.23,5.29,1.57,7.85-4.08,3.14-6.05,7.56-4.55,11.29,1.34,3.36,5.16,5.3,9.69,5.39-.82,4.46.31,8.58,3.33,10.58,3.35,2.21,8.09,1.17,12-2.2,2.16,2.28,4.79,3.5,7.38,3.12,5.21-.76,8.31-7.66,6.93-15.41a19.22,19.22,0,0,0-4-8.91l14.5-11.83-7.57-9.29L78.4,290a18.79,18.79,0,0,0-8.25-6.13C62.84,281,55.45,282.6,53.67,287.55Z"/><path class="cls-4" d="M178.44,374.3c.69,2.53,2.85,4.46,5.8,5.53-1.55,4.91-.62,9.67,2.74,11.86,3,2,7.27,1.38,11-1.15,1.89,4.13,5.18,6.86,8.8,6.76,4-.11,7.3-3.68,8.54-8.67,3.08.63,5.93.12,7.84-1.68,3.83-3.61,2.41-11-3.17-16.59a19.16,19.16,0,0,0-8.38-5l5.09-18-11.53-3.26-5.1,18a18.9,18.9,0,0,0-10.27-.29C182.17,363.64,177.07,369.22,178.44,374.3Z"/><path class="cls-5" d="M313.45,141.58c.71-2.53-.17-5.29-2.16-7.72,3.84-3.43,5.47-8,3.69-11.6-1.59-3.25-5.54-4.89-10.07-4.64.48-4.51-1-8.54-4.12-10.3-3.51-1.95-8.15-.56-11.77,3.1-2.32-2.11-5-3.13-7.6-2.56-5.13,1.15-7.7,8.26-5.74,15.89a19.21,19.21,0,0,0,4.66,8.58l-13.57,12.9,8.25,8.68L288.6,141a18.93,18.93,0,0,0,8.69,5.49C304.81,148.85,312,146.64,313.45,141.58Z"/><ellipse class="cls-6" cx="206.41" cy="233.6" rx="141" ry="149"/><path class="cls-7" d="M225.69,43.88a8.66,8.66,0,0,0-7.33-5.39c.16-7.41-2.1-13.64-6.07-15.37-3.57-1.55-7.62.94-10.66,5.93-3-5-7.08-7.48-10.65-5.93-4,1.73-6.24,8-6.07,15.37a8.66,8.66,0,0,0-7.33,5.39c-2.8,6.5.7,16.24,7.82,21.76a15.74,15.74,0,0,0,9.76,3.65v27h12.39v-27c3.19.23,6.86-1,10.32-3.63C225,60.12,228.49,50.38,225.69,43.88Z"/><path class="cls-8" d="M62.42,126a8.35,8.35,0,0,0-7.69,3.77c-5.68-3.41-11.59-4.26-14.83-1.69-2.92,2.31-2.91,6.81-.5,11.57-5.32.35-9.19,2.64-9.7,6.33-.55,4.1,3.2,8.75,9,11.89a8.36,8.36,0,0,0,.68,8.54c3.71,5.22,12.94,6.58,20.62,3a16,16,0,0,0,7.5-6.58l20.92,11.91,5.93-10.41L73.44,152.4a15.67,15.67,0,0,0,2.11-10.26C74.68,133.72,68.8,126.47,62.42,126Z"/><path class="cls-9" d="M84.51,286.07a8.36,8.36,0,0,0-1.18,8.49c-6,2.79-10,7.21-9.71,11.33.28,3.71,4,6.23,9.3,6.9-2.68,4.6-3,9.09-.18,11.57,3.08,2.76,9,2.26,14.9-.81a8.35,8.35,0,0,0,7.46,4.22c6.4-.14,12.7-7,14.07-15.38a16,16,0,0,0-1.26-9.9l21.59-10.66-5.3-10.74-21.61,10.67a15.73,15.73,0,0,0-7.31-7.51C97.82,280.27,88.52,281.08,84.51,286.07Z"/><path class="cls-10" d="M36.2,209.62C34.06,211.14,33,213.84,33,217c-5.15.25-9.28,2.77-10.18,6.69-.81,3.53,1.23,7.29,4.91,10-3.22,3.2-4.64,7.23-3.29,10.59,1.49,3.73,6,5.57,11.09,5,.48,3.1,1.94,5.6,4.29,6.77,4.71,2.34,11.19-1.57,14.47-8.73a19.09,19.09,0,0,0,1.78-9.6l18.67-1.47-.94-11.94-18.68,1.47A19,19,0,0,0,51.86,216C47.5,209.41,40.49,206.57,36.2,209.62Z"/><path class="cls-11" d="M141.82,318.65c.2,2.62,2,4.92,4.66,6.53-2.45,4.52-2.44,9.37.45,12.16,2.61,2.52,6.88,2.72,11.06,1,1.07,4.41,3.79,7.71,7.36,8.29,4,.65,7.86-2.24,10-6.9,2.89,1.2,5.79,1.23,8-.17,4.44-2.82,4.44-10.39,0-16.9a19.07,19.07,0,0,0-7.29-6.49l8.4-16.73L173.8,294l-8.41,16.75a18.92,18.92,0,0,0-10-2.22C147.49,308.88,141.43,313.41,141.82,318.65Z"/><path class="cls-12" d="M199.41,378.56c1.57,2.1,4.29,3.09,7.43,3,.36,5.13,3,9.21,6.92,10,3.54.72,7.25-1.4,9.83-5.14,3.27,3.14,7.34,4.47,10.66,3,3.7-1.59,5.43-6.11,4.75-11.21,3.09-.55,5.56-2.07,6.67-4.45,2.23-4.76-1.83-11.14-9.06-14.25A19.13,19.13,0,0,0,227,358l-1.91-18.62-11.91,1.22,1.9,18.64a18.88,18.88,0,0,0-9.66,3.52C198.94,367.27,196.26,374.34,199.41,378.56Z"/><path class="cls-13" d="M94.41,377.17a8.35,8.35,0,0,0,5.1,7c-2.37,6.49-2.16,12.69.95,15.45,2.81,2.48,7.26,1.53,11.53-1.92,1.29,5.34,4.25,8.8,8,8.53,4.15-.29,8.09-5.08,10.16-11.67a8.38,8.38,0,0,0,8.32-2.48c4.5-4.87,4.21-14.56-.65-21.63a15.57,15.57,0,0,0-7.84-6.25l8.07-23.8-11.35-3.85-8.07,23.82a15.28,15.28,0,0,0-10.53,0C99.92,363.06,93.8,370.56,94.41,377.17Z"/><path class="cls-14" d="M255.87,407.48c2.18,1.45,5.08,1.47,8,.33,2.07,4.71,5.91,7.68,9.89,7.11,3.58-.51,6.36-3.76,7.53-8.14,4.14,1.86,8.41,1.74,11.07-.72,2.94-2.73,3.06-7.58.7-12.15,2.73-1.56,4.54-3.82,4.79-6.43.5-5.24-5.46-9.89-13.32-10.39a19.14,19.14,0,0,0-9.61,1.77L266.87,362l-10.81,5.15L264.11,384a19,19,0,0,0-7.91,6.55C251.63,397,251.49,404.56,255.87,407.48Z"/><path class="cls-15" d="M322.32,379.94a8.39,8.39,0,0,0,8.53-1.85c5.09,4.8,10.92,7.12,14.7,5.37,3.41-1.58,4.27-6.07,2.75-11.4,5.46,1,9.83-.35,11.05-3.9,1.36-4-1.54-9.51-6.85-14.08a8.35,8.35,0,0,0,1-8.67c-2.75-6.12-11.85-9.77-20.33-8.16a15.43,15.43,0,0,0-8.88,4.7l-18.91-17.06-8,8.89,18.93,17.08a15.13,15.13,0,0,0-4.13,9.69C311.38,369.15,316,377.83,322.32,379.94Z"/><path class="cls-16" d="M316.46,206.55A8.37,8.37,0,0,0,319,198.2c6.68-2.12,11.54-6.08,11.84-10.24.28-3.75-3.21-6.68-8.62-7.94,3.51-4.31,4.48-8.77,2-11.56-2.78-3.1-9.06-3.27-15.63-.86a8.35,8.35,0,0,0-7.11-5.06c-6.69-.58-14.3,5.6-17,13.79a15.42,15.42,0,0,0-.22,10L260.1,194.6,264,205.93l24.13-8.23a15.14,15.14,0,0,0,6.46,8.33C301.71,210.86,311.52,211.09,316.46,206.55Z"/><path class="cls-17" d="M306.29,80.28c-.54-2.57-2.59-4.62-5.47-5.86,1.84-4.81,1.19-9.61-2.05-12-2.91-2.16-7.17-1.8-11.08.51-1.64-4.23-4.76-7.15-8.38-7.26-4-.12-7.5,3.25-9,8.16-3-.81-5.91-.47-7.92,1.21-4,3.38-3.05,10.88,2.2,16.75a19.2,19.2,0,0,0,8.08,5.49L266.5,105l11.32,3.92L284,91.19a18.81,18.81,0,0,0,10.24.88C302,90.71,307.37,85.43,306.29,80.28Z"/><path class="cls-18" d="M188.14,88.42c-2.3-1.27-5.19-1-8,.35-2.46-4.52-6.53-7.15-10.45-6.25-3.53.82-6,4.29-6.81,8.76-4.28-1.5-8.53-1-11,1.66-2.7,3-2.4,7.8.33,12.17-2.58,1.77-4.19,4.18-4.22,6.81,0,5.26,6.29,9.38,14.16,9.21a19.15,19.15,0,0,0,9.42-2.58l9.46,16.15,10.34-6-9.47-16.17a18.9,18.9,0,0,0,7.33-7.21C193.25,98.49,192.75,90.94,188.14,88.42Z"/><path class="cls-19" d="M264.46,152.53c-.54-2.57-2.59-4.62-5.47-5.86,1.83-4.81,1.19-9.61-2.05-12-2.91-2.15-7.17-1.79-11.08.51-1.64-4.23-4.76-7.15-8.38-7.26-4-.12-7.5,3.25-9,8.16-3-.81-5.91-.47-7.92,1.22-4,3.38-3.05,10.88,2.2,16.75a19.08,19.08,0,0,0,8.08,5.48l-6.13,17.69L236,181.14l6.13-17.7a19,19,0,0,0,10.25.89C260.12,163,265.53,157.68,264.46,152.53Z"/><path class="cls-20" d="M129.31,224.76c-1.53,2.13-1.66,5-.63,8-4.79,1.89-7.9,5.6-7.48,9.6.37,3.6,3.51,6.51,7.85,7.84-2,4.07-2.06,8.34.3,11.09,2.62,3.05,7.45,3.34,12.12,1.16,1.44,2.79,3.64,4.68,6.24,5,5.21.7,10.08-5.09,10.88-12.92a19.31,19.31,0,0,0-1.4-9.67l17.19-7.4-4.74-11-17.21,7.41a18.87,18.87,0,0,0-6.25-8.16C139.94,220.93,132.39,220.49,129.31,224.76Z"/><path class="cls-21" d="M106.29,180.52c-2.48.86-4.24,3.16-5.1,6.18-5-1.2-9.68.07-11.63,3.58-1.76,3.17-.86,7.35,1.94,10.92-4,2.18-6.47,5.66-6.11,9.26.4,4,4.19,7,9.26,7.9-.41,3.11.3,5.92,2.23,7.7,3.87,3.56,11.18,1.61,16.32-4.35a19.07,19.07,0,0,0,4.39-8.73l18.34,3.79L138.35,205,120,201.25a18.85,18.85,0,0,0-.45-10.27C117.19,183.47,111.26,178.78,106.29,180.52Z"/><path class="cls-22" d="M233.44,333.85c2.38,1.1,5.25.67,8-.91,2.77,4.34,7,6.68,10.86,5.51,3.46-1.05,5.72-4.69,6.19-9.2,4.38,1.2,8.59.43,10.83-2.41,2.49-3.15,1.86-8-1.17-12.12,2.46-2,3.9-4.46,3.75-7.08-.31-5.25-6.92-8.93-14.77-8.22a19.13,19.13,0,0,0-9.21,3.22l-10.55-15.46-9.9,6.75L238,309.41a18.86,18.86,0,0,0-6.81,7.69C227.65,324.15,228.67,331.64,233.44,333.85Z"/><path class="cls-23" d="M290,265.08c2.57-.51,4.64-2.55,5.9-5.42,4.79,1.87,9.6,1.25,12-2,2.18-2.9,1.85-7.16-.43-11.08,4.25-1.62,7.19-4.72,7.32-8.34.16-4-3.19-7.52-8.09-9.09.83-3,.51-5.91-1.16-7.93-3.35-4.06-10.85-3.13-16.76,2.07a19.25,19.25,0,0,0-5.55,8l-17.64-6.26-4,11.29,17.65,6.27a18.94,18.94,0,0,0-1,10.23C279.64,260.67,284.88,266.12,290,265.08Z"/><path class="cls-24" d="M357.45,158.71c.81-2.5.05-5.3-1.83-7.81,4-3.26,5.8-7.75,4.18-11.43-1.45-3.31-5.33-5.12-9.87-5.06.68-4.49-.58-8.57-3.67-10.47-3.42-2.1-8.12-.91-11.89,2.59-2.23-2.2-4.9-3.34-7.48-2.88-5.18.93-8.05,7.93-6.42,15.63a19.21,19.21,0,0,0,4.29,8.78l-14.11,12.3,7.87,9,14.13-12.31a18.89,18.89,0,0,0,8.44,5.85C348.5,165.6,355.83,163.71,357.45,158.71Z"/><path class="cls-25" d="M368.35,248.71c2.11-1.57,3.12-4.29,3-7.42,5.13-.35,9.22-2.95,10-6.88.74-3.55-1.37-7.27-5.1-9.85,3.15-3.27,4.5-7.32,3.08-10.66-1.57-3.7-6.09-5.45-11.19-4.79-.53-3.09-2.05-5.56-4.42-6.68-4.76-2.25-11.15,1.78-14.29,9a19.15,19.15,0,0,0-1.6,9.64l-18.63,1.83,1.17,11.92L349.1,233a18.87,18.87,0,0,0,3.48,9.67C357.06,249.13,364.13,251.84,368.35,248.71Z"/><path class="cls-26" d="M317.13,328.32c2.61-.25,4.87-2.07,6.41-4.8,4.59,2.34,9.43,2.21,12.15-.75,2.46-2.66,2.56-6.93.69-11.07,4.38-1.18,7.62-4,8.12-7.55.55-4-2.42-7.81-7.14-9.86,1.13-2.93,1.1-5.83-.36-8-2.93-4.37-10.49-4.2-16.89.38a19.14,19.14,0,0,0-6.32,7.45l-16.93-8-5.12,10.83,16.94,8a19,19,0,0,0-2,10.09C307.23,322.89,311.89,328.84,317.13,328.32Z"/><path class="cls-27" d="M167.61,155.92c-3-.56-6,.69-8.31,3.15-4.67-4-10.17-5.41-13.9-3.08-3.36,2.09-4.41,6.68-3.19,11.76-5.22-.13-9.49,1.86-10.84,5.58-1.5,4.13,1,9.22,5.92,12.95-1.92,2.81-2.52,5.95-1.35,8.78,2.36,5.67,10.95,7.9,19.19,5a19.21,19.21,0,0,0,8.77-6l17.4,14.07L189.45,198l-17.4-14.08a18.93,18.93,0,0,0,4.44-10.28C177.62,165,173.64,157,167.61,155.92Z"/><path class="cls-28" d="M236.08,283.34a8.66,8.66,0,0,0,8.85-2.09c5.54,4.92,11.75,7.23,15.64,5.33,3.5-1.72,4.22-6.42,2.39-12,5.77.91,10.29-.55,11.42-4.29,1.25-4.14-2-9.9-7.78-14.57a8.7,8.7,0,0,0,.64-9.08c-3.15-6.34-12.84-10-21.65-8.13a15.77,15.77,0,0,0-9.1,5.07l-20.55-17.46-8,9.45,20.57,17.47c-2.24,2.28-3.72,5.84-3.92,10.21C224.16,272.29,229.31,281.26,236.08,283.34Z"/><ellipse class="cls-29" cx="203.96" cy="164.89" rx="3.21" ry="3.37"/><ellipse class="cls-30" cx="203.96" cy="164.89" rx="3.21" ry="3.37"/><ellipse class="cls-29" cx="244.27" cy="209.44" rx="3.21" ry="3.37"/><ellipse class="cls-30" cx="244.27" cy="209.44" rx="3.21" ry="3.37"/><ellipse class="cls-29" cx="320.33" cy="267.24" rx="3.21" ry="3.37"/><ellipse class="cls-30" cx="320.33" cy="267.24" rx="3.21" ry="3.37"/><ellipse class="cls-29" cx="235.15" cy="109.8" rx="3.21" ry="3.37"/><ellipse class="cls-30" cx="235.15" cy="109.8" rx="3.21" ry="3.37"/><ellipse class="cls-29" cx="181.15" cy="239.42" rx="3.21" ry="3.37"/><ellipse class="cls-30" cx="181.15" cy="239.42" rx="3.21" ry="3.37"/><ellipse class="cls-29" cx="210.81" cy="295.71" rx="3.21" ry="3.37"/><ellipse class="cls-30" cx="210.81" cy="295.71" rx="3.21" ry="3.37"/><ellipse class="cls-29" cx="182.67" cy="357.75" rx="3.21" ry="3.37"/><ellipse class="cls-30" cx="182.67" cy="357.75" rx="3.21" ry="3.37"/><ellipse class="cls-29" cx="99" cy="251.59" rx="3.21" ry="3.37"/><ellipse class="cls-30" cx="99" cy="251.59" rx="3.21" ry="3.37"/></g></svg>