<svg id="Ebene_1" data-name="Ebene 1" xmlns="http://www.w3.org/2000/svg" viewBox="0 0 730.24 1500"><defs><style>.cls-1,.cls-3,.cls-4,.cls-5{fill:rgb(245, 91, 73);}.cls-2{fill:#1d1d1b;}.cls-3{opacity:0.1;}.cls-4{opacity:0.25;}.cls-5{opacity:0.4;}</style></defs><path class="cls-1" d="M546.07,935.72c-31,16.13-90.93,31.79-215.07,16.54-188.6-23.16-187-17.85-219.28-31.5-26.07-11,96.1-44.63,220.88-36.21a799.87,799.87,0,0,1,97.1,11.59C481.37,905.65,551.31,924,550,932.86,549.79,934.42,547.33,935.06,546.07,935.72Z"/><path class="cls-2" d="M292.63,842.57a625.35,625.35,0,0,0-76.15,4.73c-12.81,1.65-25.56,3.76-38.2,6.46a335.29,335.29,0,0,0-35.82,9.46c-21.32,7.08-41.81,18.07-55.41,36.45-6.25,8.46-10.85,18.87-9.37,29.58a23.13,23.13,0,0,0,11.65,17c6.31,3.63,13.67,5.08,20.79,6.1,3.84.55,7.7,1,11.56,1.44l2.38.29.68.09,1.39.2c1.6.23,3.2.49,4.79.82,1.4.29,2.79.63,4.15,1.05a3.27,3.27,0,1,0,1.74-6.31c-6.36-2-13.16-2.45-19.74-3.23l-2.48-.3-1.25-.16c-.18,0-.81-.11-.1,0l-.83-.12c-1.75-.24-3.49-.51-5.23-.83a62.06,62.06,0,0,1-10.11-2.62l-1.19-.46c-.14-.06-.58-.24.08,0l-.46-.2c-.76-.34-1.5-.7-2.22-1.09s-1.41-.8-2.08-1.25l-.78-.54s-.65-.5-.24-.17-.33-.28-.4-.34a21,21,0,0,1-1.53-1.45c-.27-.28-.52-.58-.78-.87-.11-.12-.2-.24-.3-.36.54.65,0,0-.06-.09-.4-.59-.79-1.19-1.14-1.82-.2-.35-.37-.72-.55-1.08l-.21-.45c.33.74,0,0,0-.15A20.66,20.66,0,0,1,84,927.29a27.84,27.84,0,0,1-.07-3.29c0-.61.08-1.22.14-1.83,0-.4.08-.64.2-1.31a38.12,38.12,0,0,1,5.34-13.3c10.92-17.88,30-29.14,49.4-36.22a289.64,289.64,0,0,1,34.45-9.81c12-2.77,24.11-5,36.3-6.76a586.53,586.53,0,0,1,73.73-5.55c3.05-.05,6.09-.08,9.14-.1,4.21,0,4.22-6.57,0-6.55Z"/><path class="cls-2" d="M109.28,922.86c44.37,7.82,88.54,16.78,133,24.16,44.2,7.33,88.76,13.11,133.58,14.6a596.79,596.79,0,0,0,134.72-10.46c15.38-3,32.07-7.51,43.5-18.89,5.7-5.68,10.62-13.74,10.64-22a21.44,21.44,0,0,0-4.14-12.62c-3.12-4.27-7.5-6.86-12-9.54-35.76-21.43-77-27.81-117.55-33.73-5-.74-10.05-1.48-15.07-2.25a3.38,3.38,0,0,0-4,2.28c-.45,1.55.54,3.76,2.29,4,39,6,79.33,9.94,115.5,27q6.87,3.24,13.46,7.06c4.25,2.47,9.2,4.86,12.11,9,5,7,2.5,15-2,21.55-8.72,12.64-25.19,17.59-39.42,20.73-41.95,9.28-85.39,12.37-128.28,11.54-43.57-.83-86.93-5.9-129.94-12.73s-85.93-15.43-128.87-23.23q-7.89-1.44-15.79-2.83c-4.13-.72-5.89,5.59-1.74,6.32Z"/><path class="cls-2" d="M104.72,952.77l7.19,157.86,7.15,157,4,88.6c.19,4.2,6.74,4.22,6.55,0l-7.19-157.86-7.16-157.05-4-88.6c-.19-4.2-6.74-4.22-6.55,0Z"/><path class="cls-2" d="M543.54,936.25q-10.92,40.82-19.56,82.18t-14.92,83.14q-6.3,41.79-10.28,83.89t-5.59,84.29q-1.6,42-.86,84c.06,3.57.14,7.14.22,10.71.11,4.21,6.66,4.23,6.55,0q-1-42,.26-84t5-83.91q3.65-41.85,9.61-83.46t14.3-82.83q8.29-41.21,18.89-81.9,1.35-5.19,2.74-10.36c1.09-4.08-5.23-5.82-6.32-1.75Z"/><path class="cls-2" d="M136.93,1386.73c22.79,11.7,47.43,19,72.32,24.7,24,5.48,48.24,10.26,72.49,14.53,23.81,4.2,47.82,7.57,72,8.77,23.75,1.18,47.69.16,71.06-4.41a213.25,213.25,0,0,0,34.08-9.6c5.65-2.13,11.22-4.5,16.66-7.12,4.92-2.36,10.45-4.65,13.81-9.16a10.42,10.42,0,0,0,2.15-7.48c-.23-1.76-1.35-3.28-3.28-3.28-1.59,0-3.5,1.51-3.27,3.28.61,4.8-5.09,7.16-8.59,9-5.17,2.63-10.46,5-15.85,7.19a210,210,0,0,1-33.1,10c-22.38,4.84-45.39,6.11-68.24,5.3-23.37-.82-46.6-3.82-69.63-7.72-23.57-4-47.06-8.71-70.41-13.77-24-5.21-48-11.43-70.42-21.73q-4.27-2-8.45-4.11c-3.75-1.93-7.06,3.72-3.31,5.65Z"/><path class="cls-2" d="M527,1033.5a42,42,0,0,1,3.38-3.15l.92-.74.48-.38c-.11.09-.45.34.07,0,.68-.51,1.37-1,2.06-1.49a105.05,105.05,0,0,1,10.09-6.17,162.63,162.63,0,0,1,23.2-10.33c3.77-1.35,7.59-2.57,11.47-3.6q2.6-.69,5.22-1.24c.79-.16,1.57-.31,2.36-.45l1.13-.18.56-.08c.42-.07-.57.06.07,0a72.38,72.38,0,0,1,28.18,2,55.77,55.77,0,0,1,24,13.82,69.29,69.29,0,0,1,14.49,22c7.28,17,9.68,35.91,10.59,54.22a244.28,244.28,0,0,1-3.35,55.18,198.81,198.81,0,0,1-16.4,51.73,149.61,149.61,0,0,1-30.77,43c-13.41,12.87-30.61,24.14-49.73,24.92a58.88,58.88,0,0,1-6.37-.11c-1.19-.08-2.36-.21-3.54-.35-.44,0,.59.09-.24,0l-.9-.14c-.69-.1-1.38-.22-2.06-.35a68.71,68.71,0,0,1-7.87-2c-1.37-.44-2.72-.92-4.06-1.45l-1-.4c-.45-.19.49.21,0,0l-.49-.21c-.71-.31-1.42-.64-2.11-1a60.88,60.88,0,0,1-8.12-4.72c-.65-.45-1.3-.91-1.93-1.38l-.48-.36c.44.33,0,0,0,0l-1.19-1q-2-1.65-3.82-3.45a63.78,63.78,0,0,1-13-18.37,81,81,0,0,1-4.62-12.15c-1.2-4-7.53-2.31-6.31,1.75,4.81,16.11,13.86,30.75,27.8,40.45A68,68,0,0,0,558.31,1279c17.67,1.32,34.69-5.85,48.66-16.23,15.29-11.35,27.89-26.15,37.57-42.5a191.66,191.66,0,0,0,20.87-52.31,244,244,0,0,0,6.71-57.41c0-19.29-1.67-39.15-7.2-57.69s-15.88-36.3-33.32-45.92c-16.58-9.15-36.57-10.44-54.68-5.64a165.56,165.56,0,0,0-24.76,9,126.24,126.24,0,0,0-22.08,12.18,52.38,52.38,0,0,0-7.71,6.46c-2.91,3.06,1.71,7.69,4.63,4.63Z"/><path class="cls-2" d="M534.6,1068.11a49.39,49.39,0,0,1,11.09-10.4,51.53,51.53,0,0,1,6.54-3.73,44.67,44.67,0,0,1,6.48-2.51,47.43,47.43,0,0,1,28.42-.11q1.61.5,3.18,1.11c1,.41,2,.82,3.25,1.47a47.39,47.39,0,0,1,6.66,4.09,39.91,39.91,0,0,1,11.43,13c5.94,11,6.4,24.07,7.05,36.28,1.44,27,2.64,55.06-6.16,81-3.46,10.18-8.76,20.46-15.63,28.64a64.44,64.44,0,0,1-11.38,10.73,54.65,54.65,0,0,1-6.83,4.17,35.85,35.85,0,0,1-6.32,2.62,41.4,41.4,0,0,1-26.32-.54,39.06,39.06,0,0,1-20.41-16.17,36.82,36.82,0,0,1-3-6.13,3.36,3.36,0,0,0-4-2.29,3.3,3.3,0,0,0-2.29,4,44.13,44.13,0,0,0,20.12,23.41,48.81,48.81,0,0,0,29.39,5.73c23.22-2.92,40.21-22.5,49.21-42.84,11.49-26,11.88-55,10.64-82.86-.31-7-.59-13.93-1.21-20.87a87.9,87.9,0,0,0-3.68-20,46.51,46.51,0,0,0-10.17-17.36A50,50,0,0,0,596.25,1048c-20-9.69-44.59-5.45-60.78,9.53a51.82,51.82,0,0,0-5.5,6,3.39,3.39,0,0,0,0,4.63c1.14,1.13,3.53,1.39,4.63,0Z"/><path class="cls-3" d="M437.43,728.64C431,792,396.07,873.4,389.46,870.92c-4-1.5-11.27-39.84-39.71-94.3-33.91-65-86.74-103-127.39-132.35-77.92-56.19-100.78-43-124.08-81.07-35.91-58.65-9.18-135,5-175.37,15.58-44.47,98-168.54,114.33-162,12.19,4.86,23.53,81.24,81.07,170.41,61.2,94.83,95.77,94.79,125.56,172C447.56,628.67,442,684.07,437.43,728.64Z"/><path class="cls-4" d="M325.74,878.74c-3.81,0-61.73-109.46-64.58-134.36-4.46-38.88,5.72-69.23,7.9-75.45,26.23-75,84.91-64.33,124.39-133.77,24.95-43.9,24.29-120.86,7.76-183.62-4.89-18.59-19.5-45.7-24.82-86-1.79-13.66-9.92-117.46-.67-123.89,11.69-8.12,91.93,54,107.38,79.49,23.76,39.24,31.66,108.34,34.33,126.43,18.78,127.1,28.17,190.65,16.9,215.26-37.57,82-136.54,76-146.3,150.09-4.44,33.7,2.6,39.13-12.2,67.41C361,808.73,330.82,878.71,325.74,878.74Z"/><path class="cls-5" d="M377,866.23c12.46,3.91-40.09-53.47-99.27-117.46-39.25-42.45-51.45-52.21-52.94-72.79-1.87-26,15.93-32.92,51.29-94.31,29.12-50.55,25.46-60.43,48-87.68,21.84-26.44,43.32-39,71.14-56.25,106.19-66,159.29-99,177-134,27.35-54.06,13.06-112.6,6.62-139-11-45-37.07-94-53-91-13,2.45-5.34,37.26-29.77,79.41-14.64,25.26-30.72,35.75-69.49,66.18-50.24,39.44-78.32,61.48-99.26,82.72-52.47,53.2-33.54,74.34-94.3,168.75-51.72,80.35-77.25,83.41-86,132.35C135.21,669,170.38,725,180.11,740.5,238.54,833.53,355.89,859.61,377,866.23Z"/></svg>