<svg id="Ebene_1" data-name="Ebene 1" xmlns="http://www.w3.org/2000/svg" xmlns:xlink="http://www.w3.org/1999/xlink" viewBox="0 0 186.26 172.04"><defs><style>.cls-1,.cls-3{fill:none;}.cls-2{clip-path:url(#clip-path);}.cls-3{stroke:#1d1d1b;stroke-miterlimit:10;stroke-width:5.81px;}</style><clipPath id="clip-path"><rect class="cls-1" x="2.74" y="2.86" width="180.67" height="165.86"/></clipPath></defs><g class="cls-2"><path class="cls-3" d="M175.43,56.94c3.37,2.61,6.78,6.72,3.37,9.72-1.89,1.67-5.05,2-7.88,2.26l-14.58,1.19c-1.91.15-4.14.45-5.18,1.7-1.18,1.41-.14,3.08.53,4.55,1.32,2.89,1.18,6.12,1.13,9.24-.21,14,13.32,19.63,16.66,28.32,3.81,9.9-5.21,12.11,1.72,28.07,1,2.34,1.82,4.9.74,7.35-1.88,4.3-8.67,6.25-14.53,7.43a476.29,476.29,0,0,1-89.23,9.3c-6.88.06-14.1-.1-19.74-2.68-6.35-2.9-9.56-8.32-12.34-13.5-10.83-20.12-20-40.84-26.17-62.27-5.39-18.82-7.63-40.5,8.54-57,6.78-6.91,16.2-12.2,26-16.72C53,10,65.59,8.24,74.94,6.13c5.91-1.33,12.11-.68,20.68,3.06C122.51,20.91,154,40.31,175.43,56.94Z"/><path class="cls-3" d="M77.37,40.19c-4.15-.73-8.4-1.45-12.53-.91s-8.22,2.63-9.57,6a11.77,11.77,0,0,0-.32,6.1,64.11,64.11,0,0,0,8,23.13c1.77,3.09,3.88,6.41,3.11,9.73-.83,3.62-4.8,6-8.67,7.52-5.31,2.15-12.21,3.36-16.8,0-2.51-1.83-3.72-4.63-4.44-7.35a14.08,14.08,0,0,1-.3-7.47c2-7,11.68-10,20.12-10.71a100,100,0,0,1,19,.13c4.3.44,9,1.08,12.6-.88a9.29,9.29,0,0,0,4.59-8.08c.07-3.15-1-6.25-2.12-9.29a12.41,12.41,0,0,0-2.81-5.07A13,13,0,0,0,80.6,40.2c-13-2.44-25.69,3-38.56,5.19a79,79,0,0,1-25.59.09c.11,5,6,8.46,11.36,10.64a144.47,144.47,0,0,0,30.61,8.65c1.68.28,3.81.37,4.64-.88a3,3,0,0,0,.17-2.3A33.69,33.69,0,0,0,52.35,43.38,240.91,240.91,0,0,1,87.7,33c4.58-1,9.55-1.79,14-.22,6.19,2.19,9.16,8.15,11.5,13.53,1.07,2.47,2.15,4.95,3.22,7.43a6.81,6.81,0,0,1,.86,4c-.43,2.15-2.84,3.5-5.12,4.45a60.49,60.49,0,0,1-22.36,4.52c-6.61.07-14.26-1.49-17.36-6.57-4.07-6.68,2.26-14.23,2.63-21.65a6.91,6.91,0,0,0-1.27-4.76,9.88,9.88,0,0,0-3.37-2.44c-6.89-3.43-15.11-4.18-22.94-3.74-7.59.42-15.45,2.08-20.77,6.62s-7.06,12.58-2.16,17.71c3.38,3.54,8.9,4.91,14.09,5.78a131.58,131.58,0,0,0,29.79,1.5c2-.13,4.23-.35,5.79-1.47s2.23-3,3.34-4.52,3.36-2.81,5.26-2a5.12,5.12,0,0,1,2,2.07l8.5,13A2.82,2.82,0,0,1,94,68.66a3.24,3.24,0,0,1-1.81,1.41,71.57,71.57,0,0,1-28.41,6.05c-1.63,0-3.41-.07-4.67-1a3.75,3.75,0,0,1-.76-5,12,12,0,0,1,4.49-3.7c16.57-9.51,31.55-15.13,51.54-17.26-11.07-8-21.07-13.07-35.31-13.25S50.74,40,40,47.66"/></g></svg>