<svg id="Ebene_1" data-name="Ebene 1" xmlns="http://www.w3.org/2000/svg" xmlns:xlink="http://www.w3.org/1999/xlink" viewBox="0 0 211.43 100.79"><defs><style>.cls-1,.cls-3{fill:none;}.cls-2{clip-path:url(#clip-path);}.cls-3{stroke:#1d1d1b;stroke-miterlimit:10;stroke-width:3.31px;}</style><clipPath id="clip-path"><rect class="cls-1" x="1.76" y="2.24" width="207.12" height="96.56"/></clipPath></defs><g class="cls-2"><path class="cls-3" d="M194.47,34.4c.24,1.83,1.19,5.66,1.59,7.46s.92,3.69,2.7,5,5.1,2.11,8.45,1.31a16.7,16.7,0,0,0-3.39-10.72c-1.36-1.83-3.12-3.54-3.79-5.57M178.7,47.54c2,3.92,1.78,8.53,4.36,12.24a7.34,7.34,0,0,0,7.79,2.86,2.86,2.86,0,0,0,.88-.36,1.52,1.52,0,0,0,.57-1.56c-.53-6-4.3-13.76-6.72-19.38M148.06,62.19c2.61,4.44,7.37,8.19,13.72,10.83a7.11,7.11,0,0,0,2.16.61c2,.2,4.32-.66,6.25-1.52a5,5,0,0,0,1.39-.8A1.48,1.48,0,0,0,172,70a12,12,0,0,0-1.5-5.8,21.64,21.64,0,0,0-3-3.2,47.29,47.29,0,0,1-5.16-6.69m-50.53,19.1c1.61,3.31-1.5,7.56-.05,10.91.93,2.17,3.86,3.77,7.69,4.21a18.31,18.31,0,0,0,5.25-.17,22.63,22.63,0,0,0,9.67-4.7,7.83,7.83,0,0,0,1.82-1.75,3.44,3.44,0,0,0,.47-2.11,17.63,17.63,0,0,0-2-7.83c-.55-1.06,1.32-4.91-.46-5.29m-54.1,12c1.46,2.78.5,6.1,0,9.26-.28,1.82,0,4,2.94,4.3a13.89,13.89,0,0,0,2.4,0c3.21-.26,6.9-.67,9.2-2.27a5.24,5.24,0,0,0,2.22-4.73c.06-2.38,1.12-7.14,1.19-9.53M41.54,77c2.91,5.15-1.26,12,.54,17.49a3.27,3.27,0,0,0,1,1.64c1.32,1.13,4,1.1,6.33,1,3.52-.22,7.67-.77,9.85-2.87,1.56-1.52,1.53-3.35,1.44-5-.18-3.27-.37-6.54-.55-9.81M10.67,71.21c.76,2.29,1.51,4.63.95,7.13-.24,1.07-.72,2.16-1,3.23a8.33,8.33,0,0,0,.73,6.36,1.9,1.9,0,0,0,.94.91,7.17,7.17,0,0,0,3.45,0c2.66-.41,5.77-1,7.15-2.51a3.11,3.11,0,0,0,.68-2.74,37.69,37.69,0,0,1,.43-10M4.4,67.51c1.12,5.34,4.91,10.12,11,13.62,6.36,3.67,15,5.85,23.42,8a42.49,42.49,0,0,0,9.88,1.64,61.87,61.87,0,0,0,8.68-.7c24.09-3.09,48.26-6.2,72.27-11,18.33-3.64,37.55-8.68,51.15-17.61,8.86-5.82,14.49-12.75,19.94-19.52,1.24-1.54,2.5-3.11,2.85-4.67a7.43,7.43,0,0,0-.2-3.32c-.69-3.1,1-7.82.3-10.92M3.61,65.92a3.94,3.94,0,0,0,2.55,3.23c2.37,1,39.71,9.23,43.89,9.13,26.41-.64,30.92,1.18,59.71-4.93,28.32-6,37.86-12.32,65.83-25.36,5.82-2.72,22.81-16.66,25.95-19.48,2.15-1.94,2.42-3.8,2.11-5.46-2.41-12.6-41.42-20.44-74.4-19C94.28,5.63,47.43,24,25.91,37.62,10.91,47.14,2,57.5,3.61,65.92Z"/><path class="cls-3" d="M101.37,18.89a76.08,76.08,0,0,1,12.16-3.76c6-1.15,11.63-.71,16.92-.26.89.08,1.9.22,2,.72,0,.3-.31.65-.61,1-4.15,4.47-3,8.79-1.75,12.72a5.28,5.28,0,0,0,1.71,2.89,18.4,18.4,0,0,0,4.64,1.91,21.51,21.51,0,0,1,5.41,2.69c.3.21.59.44.55.76s-.67.87-1.26,1.28C135,43,128.53,47.36,125.7,52a9.2,9.2,0,0,0-1.48,4.56c0,1.23-2.63,2.43-4.67,2.19a78.36,78.36,0,0,0-12.86-.37,62.84,62.84,0,0,0-7.71.8c-5.64,1-11.15,3-16.74,4.39-1.79.45-3.44.07-3.53-.84C78,55.6,69.64,50.26,57.22,49c-1.44-.15-2-1-1.31-1.86a6,6,0,0,0,1.1-5c-.28-1.43-2.93-4.8-1-6.38,1.09-.88,6-2.26,7.66-2.87L71,30.18Z"/><path class="cls-3" d="M102.79,44.49l.16,0c3.13-.56,8.31-.54,7.32,1.85a5.71,5.71,0,0,1-3,2.45c-4.15,1.79-8.84,3.48-13.2,3.87a8.55,8.55,0,0,1-2.5-.06c-.7-.16-1.2-.53-1.15-1s.8-1.23,1.56-1.8a31.66,31.66,0,0,1,8.71-4.67c2.31-.76,2.14-.74,2.44-2.15q.38-1.74.81-3.48a105.07,105.07,0,0,1,3.74-12.18c.2-.55-.41-.89-1.33-.79s-1.57.08-2.47.2-1.87.17-2.8.27a64.83,64.83,0,0,0-8,1.5,31,31,0,0,1-1.48,5.28,71.22,71.22,0,0,0,14.14-1.4"/></g></svg>