<svg id="Ebene_1" data-name="Ebene 1" xmlns="http://www.w3.org/2000/svg" xmlns:xlink="http://www.w3.org/1999/xlink" viewBox="0 0 198.1 147.87"><defs><style>.cls-1,.cls-3{fill:none;}.cls-2{clip-path:url(#clip-path);}.cls-3{stroke:#1d1d1b;stroke-miterlimit:10;stroke-width:4.12px;}</style><clipPath id="clip-path"><rect class="cls-1" x="2.98" y="2.85" width="192.28" height="141.9"/></clipPath></defs><g class="cls-2"><path class="cls-3" d="M181.14,87.53c-.45,3-1,9.47-1.31,12.49s-.53,6.25.49,9.17,3.62,5.56,6.78,5.74A47.74,47.74,0,0,0,188,96.49c-.5-3.48-1.39-6.95-1.25-10.46m-23.86,15.44c.32,7.08-1.53,14.28-.64,21.27.47,3.74,2.4,7.87,5.64,7.92a1.69,1.69,0,0,0,.88-.19,3.15,3.15,0,0,0,1-2.23c1.71-9.8,1.24-23.65,1.18-33.59m-39.61,16.7a50.16,50.16,0,0,0,7.88,23.11,7,7,0,0,0,1.63,1.91c1.65,1.18,3.94.82,5.9.3a3.39,3.39,0,0,0,1.48-.67,3.34,3.34,0,0,0,.79-1.94,34.73,34.73,0,0,0,.79-9.84,46.43,46.43,0,0,0-1.39-6.35,111.14,111.14,0,0,1-2-12.83m-50.13,8.28c.19,5.93-4,11.32-4,17.25a12.83,12.83,0,0,0,5.09,10,10.25,10.25,0,0,0,4.55,2c3.56.55,7-1.2,10-3.23a8.64,8.64,0,0,0,2.18-2,8.46,8.46,0,0,0,1.17-3.14A51.85,51.85,0,0,0,116.43,121c-.09-1.91,2.89-7.2,1.5-8.56M67.3,107.89c.25,5-1.77,9.86-3.31,14.66-.89,2.76-1.39,6.32,1,8.08a8,8,0,0,0,2.07,1c2.83,1,6.15,2,8.7.4,2.21-1.33,3-4,3.58-6.51.92-3.75,3.52-10.83,4.44-14.58M34.88,88.5c.64,9.42-5.38,18.45-5.81,27.92a9,9,0,0,0,.25,3c.72,2.36,3,3.46,5.07,4.26,3.1,1.19,6.86,2.12,9.47-.27,1.88-1.72,2.52-4.62,3-7.3q1.53-7.87,3-15.76M10.51,65.92c-.18,4-.37,8-1.75,11.71-.59,1.59-1.39,3.09-2,4.67A23.79,23.79,0,0,0,5.09,92.69a3.73,3.73,0,0,0,.48,1.85,4.4,4.4,0,0,0,3,1.47c2.42.5,5.32.87,7-.87a7.29,7.29,0,0,0,1.56-4A104.68,104.68,0,0,1,21.06,75.5M6.46,57.34A48.93,48.93,0,0,0,11,83.66c4.13,8.58,10.71,15.77,17.2,22.84,2.37,2.57,4.79,5.19,7.88,6.88A32.65,32.65,0,0,0,43.73,116c21.75,5.58,43.57,11.17,65.84,14,17,2.2,35.27,2.58,50.13-5.66,9.67-5.37,17-13.89,24.07-22.23a21.58,21.58,0,0,0,4.11-6.15,21.09,21.09,0,0,0,1-5.35c.53-5.2,3.65-12,4.17-17.17M6.35,54.49a9.06,9.06,0,0,0,1,6.22C9.05,63.3,38.09,92.57,41.71,94.23c22.85,10.46,26.06,15.3,52.91,18.15,26.41,2.8,36.84-3.06,65.48-11.55,6-1.77,25.51-16.46,29.2-19.56a11.26,11.26,0,0,0,3.76-7.74c2.45-21-28.15-50.35-56.93-62.36-30.51-12.73-77.22-4-100.54,8.21C19.33,27.92,8,40.44,6.35,54.49Z"/><path class="cls-3" d="M107.16,21.92c4-.64,8-1.28,12-.71,5.69.82,10.38,4.05,14.82,7.18.75.52,1.57,1.21,1.42,2.05a2.76,2.76,0,0,1-.88,1.32c-5.25,5.5-5.85,13.11-6.2,20.14a14.41,14.41,0,0,0,.43,5.52c.66,1.93,2.1,3.54,3.33,5.23a29.23,29.23,0,0,1,3.72,6.85A2.38,2.38,0,0,1,136,71c-.2.68-.91,1.14-1.57,1.54-6.86,4.17-14.08,8.42-18.23,14.73a21.59,21.59,0,0,0-3,6.84,3.12,3.12,0,0,1-4.87,1.49,48.41,48.41,0,0,0-11-6.38,32.91,32.91,0,0,0-7-2.15c-5.27-.91-10.81,0-16.18-.29a2.7,2.7,0,0,1-2.76-3c2-12-3.32-24.52-13.66-32.22A2.51,2.51,0,0,1,57.22,48,15.38,15.38,0,0,0,60,40.26c.29-2.49-.78-9.22,1.5-10.95,1.27-.95,6.08-1,7.71-1.27l7.38-1.19Z"/><path class="cls-3" d="M99.07,65.52l.17,0c3.17.52,8.06,3,6.18,6.76a5.85,5.85,0,0,1-3.81,2.85c-4.63,1.13-9.73,1.85-14,.43a5.54,5.54,0,0,1-2.34-1.3,2.46,2.46,0,0,1-.67-2.39,5,5,0,0,1,2.19-2.4,22.62,22.62,0,0,1,10.07-4c2.48-.22,2.32-.27,3.16-2.61q1-2.87,2.13-5.71c2.68-7,5.2-12.92,8.36-19.57a1.4,1.4,0,0,0-.94-2c-.79-.24-1.52-.62-2.42-.84s-1.83-.6-2.75-.88a36.93,36.93,0,0,0-8.14-1.2,82.14,82.14,0,0,1-3.49,8.53,42.05,42.05,0,0,0,13.91,4.36"/></g></svg>