<svg id="Ebene_1" data-name="Ebene 1" xmlns="http://www.w3.org/2000/svg" xmlns:xlink="http://www.w3.org/1999/xlink" viewBox="0 0 187.2 183.41"><defs><style>.cls-1,.cls-3,.cls-4{fill:none;}.cls-2{clip-path:url(#clip-path);}.cls-3{stroke:#1d1d1b;}.cls-3,.cls-4{stroke-miterlimit:10;stroke-width:5.59px;}.cls-4{stroke:#167d7d;}</style><clipPath id="clip-path"><rect class="cls-1" x="2.09" y="2.45" width="182.23" height="177.65"/></clipPath></defs><g class="cls-2"><path class="cls-3" d="M77,16.25a60,60,0,0,0-49.09,18c-7,7.4-11.8,16.42-16.51,25.33C9.09,63.89,6.76,68.3,5.68,73.06c-1.16,5.1-.83,10.36-.38,15.53a327.94,327.94,0,0,0,5.4,37c.94,4.61,2,9.27,4.35,13.37a43.82,43.82,0,0,0,7.74,9.31,202.4,202.4,0,0,0,17.88,15.57c6.5,5,13.49,9.75,21.54,11.91,7.09,1.91,14.62,1.72,22,1.39,12.3-.56,24.58-1.47,36.86-2.38,6.45-.48,13-1,19.17-2.82,10.08-3,18.69-9.46,27-15.77,4.2-3.16,8.51-6.46,11.07-11,2.78-4.89,3.16-10.65,3.16-16.17,0-37.48-15.94-74.74-44.4-99.72a87.8,87.8,0,0,0-20.82-14c-7-3.25-14.58-5.3-22.09-7.32C89.62,6.7,85,5.45,80.18,5.27c-7.88-.3-15.6,2.3-23.09,4.85m1.57,138.93c6.46-6.19,13-12.45,20.86-16.89,10.61-6,23.1-8.37,35.29-8s24.12,3.18,35.57,7M112.82,58.69a8.91,8.91,0,0,1,3,2.09c3.06,2.85,6.19,5.8,7.9,9.57s1.66,8.61-1.24,11.71m-75.31-12a33.08,33.08,0,0,1,17.68,22c.8,3.5.69,7.82-2.35,10"/><path class="cls-4" d="M52.62,138.31c8.19-1.15,12.56,1.62,18.8,2.61,5.76.91,13.52.26,21.17-1.12s15.3-3.47,22.87-5.54a82.38,82.38,0,0,0,13.2-4.39,44.94,44.94,0,0,0,8.57-5.51l10.84-8.3"/></g></svg>