<?xml version="1.0" encoding="utf-8"?>
<!-- Generator: Adobe Illustrator 24.2.0, SVG Export Plug-In . SVG Version: 6.00 Build 0)  -->
<svg version="1.1" id="Ebene_1" xmlns="http://www.w3.org/2000/svg" xmlns:xlink="http://www.w3.org/1999/xlink" x="0px" y="0px"
	 viewBox="0 0 255.83 221.62" style="enable-background:new 0 0 255.83 221.62;" xml:space="preserve">
<style type="text/css">
	.st0{fill:rgb(245, 91, 73);}
</style>
<path class="st0" d="M238.46,65.62c3.45-4.19,0.95-13.3-0.59-17.84c-2.05-6.03-5.91-9.8-10.17-14.25
	c-5.42-5.66-9.68-12.78-10.18-20.76c-0.1-1.54-0.06-3.1,0.14-4.63c0.12-0.94,0.23-2.07,0.58-2.95c0.13-0.33,0.52,0.43,0.54,0.37
	c-0.89,3.47-4.37,6.89-6.26,9.84c-6.45,10.04-2.5,22.92,1.66,32.88c0.22,0.54-0.63,0.85-0.85,0.31c-3.28-7.85-5.37-14.29-4.6-22.89
	c0.3-3.37,0.66-6.64,2.32-9.64c2.35-4.27,5.49-8,7.68-12.41c0.27-0.54,1-0.17,0.83,0.37c-2.43,7.78-0.65,15.62,3.63,22.41
	c3.33,5.3,8.58,8.87,12.07,13.99c2.84,4.16,4.36,9.04,5.14,13.97c0.62,3.89,1.47,8.55-1.22,11.81
	C238.79,66.64,238.08,66.07,238.46,65.62L238.46,65.62z"/>
<path class="st0" d="M214.8,12.08c-0.31,5.32-0.36,10.82,1.14,15.99c1.58,5.45,5.26,9.82,8.59,14.29c2.78,3.73,6.04,6.87,9.03,10.39
	c2.86,3.37,4.38,7.6,5.76,11.73c0.18,0.55-0.67,0.86-0.85,0.31c-2.02-6.05-4.74-10.47-9.16-15.07c-3.71-3.86-6.89-8.46-9.95-12.84
	c-5.27-7.55-5.98-15.96-5.45-24.96C213.94,11.35,214.84,11.5,214.8,12.08L214.8,12.08z"/>
<path class="st0" d="M236.5,59.39c0.04-7.88-1.44-15.43-5.49-22.28c-0.29-0.5,0.44-1.03,0.74-0.52c4.13,6.98,5.69,14.66,5.65,22.72
	C237.4,59.88,236.5,59.97,236.5,59.39L236.5,59.39z"/>
<path class="st0" d="M234.38,54.94c0.17-3.83-2.84-8.88-4.48-12.27c-1.68-3.47-3.28-6.74-3.49-10.65c-0.03-0.58,0.87-0.66,0.9-0.08
	c0.27,5.1,3.04,9.21,4.99,13.77c1.23,2.88,3.11,6.18,2.97,9.37C235.24,55.68,234.35,55.52,234.38,54.94L234.38,54.94z"/>
<path class="st0" d="M227.07,47.13c-2.1-6.61-5.28-13.04-4.6-20.15c0.06-0.58,0.95-0.43,0.89,0.15c-0.66,6.93,2.51,13.26,4.56,19.69
	C228.1,47.37,227.25,47.68,227.07,47.13L227.07,47.13z"/>
<path class="st0" d="M221.68,40.43c-2.76-6.71-4.73-12.7-2.72-19.94c0.15-0.56,1.05-0.41,0.89,0.15
	c-1.96,7.07-0.01,12.96,2.68,19.48C222.75,40.66,221.9,40.97,221.68,40.43L221.68,40.43z"/>
<path class="st0" d="M217.75,35.31c-2.46-8.2-5.22-16.03-0.19-23.83c0.32-0.49,1.02,0.09,0.7,0.57c-4.82,7.47-2,15.16,0.34,22.95
	C218.77,35.55,217.92,35.87,217.75,35.31L217.75,35.31z"/>
<path class="st0" d="M218.88,37.63c-4.74-3.87-8.12-8.98-9.81-14.86c-0.16-0.56,0.69-0.87,0.85-0.31c1.65,5.75,4.9,10.69,9.53,14.47
	C219.9,37.3,219.33,38,218.88,37.63L218.88,37.63z"/>
<path class="st0" d="M222.54,42.17c-0.71-1.1-1.56-2.32-2.58-3.16c-1.51-1.24-3.55-1.63-5.29-2.46c-2.47-1.17-4.36-2.84-5.92-5.07
	c-0.34-0.48,0.4-1,0.74-0.52c2.65,3.77,5.9,4.41,9.7,6.45c1.74,0.93,3.03,2.59,4.09,4.23C223.59,42.14,222.85,42.66,222.54,42.17
	L222.54,42.17z"/>
<path class="st0" d="M224.27,43.72c-5.73-0.84-10.52-2.26-14.74-6.47c-0.41-0.41,0.16-1.11,0.57-0.7c4.08,4.06,8.79,5.46,14.32,6.27
	C225,42.91,224.85,43.81,224.27,43.72L224.27,43.72z"/>
<path class="st0" d="M227.91,48.03c-5.86-0.13-11.48-2.42-16.55-5.2c-0.51-0.28-0.14-1.11,0.37-0.83c4.93,2.7,10.41,5,16.1,5.12
	C228.41,47.14,228.49,48.04,227.91,48.03L227.91,48.03z"/>
<path class="st0" d="M236.55,58.95c-5.53-3.7-11.68-6.24-18.15-7.76c-0.57-0.13-0.42-1.03,0.15-0.89
	c6.62,1.55,12.91,4.17,18.57,7.95C237.61,58.57,237.03,59.27,236.55,58.95L236.55,58.95z"/>
<path class="st0" d="M231.08,51.69c-6.35-0.53-12.73-2.06-18.31-5.19c-0.51-0.28-0.14-1.11,0.37-0.83
	c5.52,3.1,11.81,4.61,18.09,5.13C231.82,50.84,231.66,51.74,231.08,51.69L231.08,51.69z"/>
<path class="st0" d="M189.87,85.92c-0.33,0.58-0.77,1.07-1.13,1.63c-0.72,1.12-0.7,2.19-0.66,3.46c0.06,1.96,0.27,3.89,0.87,5.76
	c0.18,0.55-0.68,0.87-0.85,0.31c-0.68-2.15-0.89-4.35-0.93-6.59c-0.01-0.75-0.07-1.55,0.17-2.27c0.34-1.02,1.2-1.77,1.72-2.68
	C189.33,85.04,190.16,85.41,189.87,85.92L189.87,85.92z"/>
<path class="st0" d="M190.87,76.1c-6.07,1.82-8.35,10.67-7.87,16.17c0.05,0.58-0.85,0.66-0.9,0.08c-0.51-5.92,2-15.17,8.47-17.11
	C191.12,75.08,191.43,75.93,190.87,76.1L190.87,76.1z"/>
<path class="st0" d="M198.36,68.63c-3.16,5.45-5.47,11.77-3.66,18.06c0.16,0.56-0.69,0.87-0.85,0.31
	c-1.87-6.53,0.39-13.08,3.69-18.75C197.82,67.75,198.65,68.12,198.36,68.63L198.36,68.63z"/>
<path class="st0" d="M205.13,65.8c-3.24,3.13-5.18,7.19-4.36,11.74c0.1,0.57-0.8,0.65-0.9,0.08c-0.86-4.76,1.17-9.12,4.56-12.4
	C204.84,64.82,205.55,65.39,205.13,65.8L205.13,65.8z"/>
<path class="st0" d="M213.83,65.53c-1.86,0.9-3.76,1.82-5.35,3.15c-1.03,0.86-3.86,3.77-3.06,5.39c0.26,0.52-0.59,0.83-0.85,0.31
	c-0.71-1.43,0.87-3.69,1.73-4.76c1.86-2.32,4.6-3.66,7.23-4.94C214.04,64.42,214.35,65.28,213.83,65.53L213.83,65.53z"/>
<path class="st0" d="M222.1,66.78c-1.25,0.04-2.9,1.02-3.93,1.64c-1.29,0.78-2.4,1.78-3.39,2.91c-0.38,0.44-1.09-0.13-0.7-0.57
	c1.19-1.37,2.54-2.53,4.13-3.4c1.09-0.6,2.54-1.44,3.8-1.48C222.6,65.86,222.69,66.76,222.1,66.78L222.1,66.78z"/>
<path class="st0" d="M221.95,66.19c-1.88-1.78-3.99-3.2-6.13-4.65c-1.67-1.13-3.88-2.31-4.89-4.11c-0.28-0.5,0.46-1.03,0.74-0.52
	c1.08,1.94,3.69,3.24,5.48,4.44c1.89,1.28,3.72,2.58,5.37,4.14C222.95,65.88,222.38,66.59,221.95,66.19L221.95,66.19z"/>
<path class="st0" d="M213.04,65.16c-2.05-1.61-4.06-3.29-6.25-4.71c-2.74-1.78-5.55-2.59-8.71-3.34c-0.57-0.13-0.42-1.03,0.15-0.89
	c2.92,0.69,5.51,1.33,8.11,2.89c2.58,1.55,4.91,3.5,7.27,5.36C214.07,64.82,213.5,65.52,213.04,65.16L213.04,65.16z"/>
<path class="st0" d="M206.28,65.25c-5.81-3.55-12.37-4.69-19.09-3.83c-0.58,0.07-0.66-0.83-0.08-0.9c6.86-0.88,13.61,0.28,19.55,3.9
	C207.14,64.73,206.77,65.56,206.28,65.25L206.28,65.25z"/>
<path class="st0" d="M199.47,67.32c-2.76-1.01-5.57-2.29-8.51-2.63c-2.8-0.33-5.63,0.14-8.41,0.48c-0.58,0.07-0.66-0.83-0.08-0.9
	c2.85-0.36,5.76-0.81,8.64-0.47c3.02,0.36,5.89,1.66,8.73,2.7C200.39,66.7,200.01,67.52,199.47,67.32L199.47,67.32z"/>
<path class="st0" d="M197.38,68.64c-8.74,0.64-19.32,5.56-18.84,15.83c0.03,0.58-0.88,0.66-0.9,0.08
	c-0.52-11.05,10.15-16.11,19.66-16.81C197.88,67.69,197.96,68.6,197.38,68.64L197.38,68.64z"/>
<path class="st0" d="M180.08,43.29c-10.47-16.39-31.59-10.66-46.77-18.25c-2.72-1.36-4.25-3.67-6.61-5.28
	c-8.28-5.64-5.73,7.9-4,11.84c3.87,8.86,14.47,13.36,23.52,15.17c4.56,0.91,9.04,0.48,13.58-0.38c3.34-0.63,6.56-2.08,9.89-2.58
	c-0.11,0.02,2.6-0.08,2.61-0.1c0.47-0.53-5.03-3.36-5.89-3.7c-4.08-1.61-8.44-2.44-12.75-3.11c-6.41-0.98-13.07-1.63-18.77-5.01
	c-5.32-3.15-11.52-8.78-12.24-15.27c-0.06-0.58,0.84-0.66,0.9-0.08c0.71,6.46,7.62,12.52,13.18,15.33
	c4.75,2.41,10.13,3.12,15.34,3.88c7.49,1.1,16.67,2.23,21.79,8.44c0.25,0.3-0.07,0.8-0.45,0.71c-3.55-0.83-6.63,0.82-9.98,1.66
	c-3.49,0.87-7.17,1.53-10.77,1.66c-5.86,0.21-11.49-1.64-16.79-4c-5.81-2.59-10.29-4.94-13.29-10.79c-2.2-4.28-3.36-9.36-1.82-14.06
	c0.98-2.98,1.7-4.49,4.4-2.56c3.42,2.44,5.2,5.86,9.3,7.75c3.85,1.77,8.12,2.58,12.28,3.28c12.44,2.1,26.63,3.24,34.09,14.92
	C181.14,43.26,180.4,43.78,180.08,43.29L180.08,43.29z"/>
<path class="st0" d="M168.97,33.09c2.47,1.93,3.87,3.38,4.77,6.4c0.5,1.67,1.04,3.46,0.07,5.03c-0.3,0.49-1.13,0.12-0.83-0.37
	c0.96-1.56,0.19-3.52-0.34-5.12c-0.8-2.4-2.35-3.75-4.25-5.24C167.94,33.44,168.51,32.74,168.97,33.09L168.97,33.09z"/>
<path class="st0" d="M170.23,41.88c-0.64-2.2-2.94-3.81-4.42-5.45c-1.27-1.41-2.28-2.95-3.16-4.63c-0.27-0.51,0.59-0.82,0.85-0.31
	c1.29,2.48,3.03,4.31,4.92,6.34c1.06,1.14,2.22,2.22,2.66,3.74C171.24,42.13,170.39,42.44,170.23,41.88L170.23,41.88z"/>
<path class="st0" d="M161.71,37.92c-2.12-4.16-7.93-6.82-12.02-8.62c-0.54-0.24-0.16-1.06,0.37-0.83
	c4.39,1.94,10.22,4.68,12.49,9.14C162.82,38.13,161.97,38.43,161.71,37.92L161.71,37.92z"/>
<path class="st0" d="M154.71,36.51c-1.66-1.93-3.19-3.72-5.44-4.96c-1.71-0.94-3.39-1.57-4.72-3.04c-0.39-0.43,0.35-0.95,0.74-0.52
	c1.7,1.87,4.34,2.48,6.33,3.99c1.48,1.12,2.64,2.61,3.84,4.01C155.83,36.43,155.09,36.95,154.71,36.51L154.71,36.51z"/>
<path class="st0" d="M148.74,35.7c-2.63-3.05-6.43-4.75-8.91-7.95c-0.36-0.46,0.38-0.98,0.74-0.52c2.48,3.19,6.29,4.89,8.91,7.95
	C149.86,35.62,149.12,36.14,148.74,35.7L148.74,35.7z"/>
<path class="st0" d="M142.07,34.61c-3.98-2.12-8.43-5.6-9.9-10.02c-0.18-0.55,0.67-0.87,0.85-0.31c1.37,4.13,5.68,7.51,9.42,9.5
	C142.96,34.06,142.59,34.89,142.07,34.61L142.07,34.61z"/>
<path class="st0" d="M144.63,35.75c-4,0.72-8.04,0.55-11.92-0.73c-4.68-1.54-7.5-5.74-11.97-7.33c-0.55-0.2-0.17-1.02,0.37-0.83
	c3.74,1.33,6.06,4.73,9.66,6.42c4.31,2.02,9.14,2.4,13.78,1.56C145.13,34.74,145.2,35.64,144.63,35.75L144.63,35.75z"/>
<path class="st0" d="M134.11,31.41c-5.13-1.59-10.01-4.06-13.83-7.9c-0.41-0.41,0.16-1.12,0.57-0.7c3.77,3.79,8.56,6.21,13.63,7.78
	C135.04,30.75,134.66,31.58,134.11,31.41L134.11,31.41z"/>
<path class="st0" d="M154.86,37.05c-2.21,0.62-4.03,2.04-6.29,2.58c-2.73,0.65-5.84,0.78-8.63,0.61
	c-5.83-0.35-11.15-2.87-16.34-5.37c-0.53-0.25-0.15-1.08,0.37-0.83c4.63,2.23,9.44,4.61,14.62,5.17c2.72,0.29,5.74,0.26,8.44-0.21
	c2.77-0.48,4.86-2.06,7.5-2.81C155.11,36.04,155.43,36.89,154.86,37.05L154.86,37.05z"/>
<path class="st0" d="M162.06,38.31c-3.3-0.67-5.8,1.23-8.66,2.34c-2.38,0.92-4.88,1.33-7.38,1.76c-3.47,0.6-7.25,1.71-10.78,1.43
	c-0.58-0.05-0.43-0.94,0.15-0.89c4.5,0.36,10.23-1.17,14.54-2.22c4.06-0.99,7.98-4.19,12.29-3.3
	C162.78,37.54,162.63,38.43,162.06,38.31L162.06,38.31z"/>
<path class="st0" d="M165.24,39.61c-2.89,0.06-6.14,3.94-8.68,5.15c-3.29,1.57-6.81,2.43-10.44,2.64c-0.58,0.03-0.66-0.87-0.08-0.9
	c4.71-0.28,9.46-1.68,13.35-4.41c1.69-1.19,3.55-3.33,5.77-3.38C165.74,38.7,165.83,39.6,165.24,39.61L165.24,39.61z"/>
<path class="st0" d="M170.4,42.64c-2-0.06-3.24,1.62-4.51,2.86c-1.15,1.13-2.51,1.83-4.07,2.21c-0.56,0.14-0.88-0.71-0.31-0.85
	c2.52-0.62,3.54-2.24,5.43-3.76c0.9-0.73,2.2-1.4,3.38-1.36C170.9,41.75,170.99,42.65,170.4,42.64L170.4,42.64z"/>
<path class="st0" d="M162.89,51.31c0.02,7.36-7.39,14.54-12.56,18.96c-4.73,4.04-10.08,6.77-13.32,12.32
	c-2.67,4.57-2,9.64-4.01,14.2c-0.07,0.15-0.21,0.25-0.37,0.26c-3.79,0.39-7.07-3.49-9.05-6.25c-3.25-4.54-5.5-10.37-5.05-16.03
	c0.41-5.21,4.09-9.42,7.64-12.96c1.96-1.95,4.09-3.72,6.46-5.14c3.19-1.91,6.84-2.83,9.72-5.27c0.45-0.38,0.97,0.36,0.52,0.74
	c-3.55,3.01-8.2,4.02-11.98,6.76c-3.77,2.72-8.23,7.17-10.27,11.46c-2.81,5.91-0.55,13.26,2.73,18.49c1.03,1.63,2.31,3.64,3.84,4.79
	c1.38,1.59,3.21,1.8,5.5,0.62c0.14-1.05,0.29-2.09,0.44-3.13c1.13-6.74,4.3-12.14,9.68-16.41c3.95-3.13,7.94-5.72,11.35-9.55
	c3.41-3.83,7.84-8.31,7.82-13.78C161.99,50.81,162.89,50.73,162.89,51.31L162.89,51.31z"/>
<path class="st0" d="M155.1,52.07c-2.79,2.06-5.17,4.45-8.05,6.4c-3.93,2.66-7.61,5.9-10.82,9.4c-3.82,4.16-6.22,8.82-5.98,14.6
	c0.18,4.24,1.23,8.49,1.96,12.66c0.1,0.57-0.8,0.65-0.9,0.08c-1.59-9.07-3.81-17.44,2.1-25.39c2.68-3.6,6.23-6.75,9.69-9.59
	c3.69-3.03,7.63-6.06,11.47-8.9C155.05,50.98,155.57,51.72,155.1,52.07L155.1,52.07z"/>
<path class="st0" d="M130.08,85.71c-2.3,2.21-3.32,5.33-2.4,8.44c0.17,0.56-0.69,0.87-0.85,0.31c-1.01-3.39,0.01-6.88,2.55-9.32
	C129.79,84.74,130.5,85.31,130.08,85.71L130.08,85.71z"/>
<path class="st0" d="M131.25,74.86c-4.48,3.09-7.52,9.45-7.11,14.96c0.04,0.58-0.86,0.66-0.9,0.08c-0.44-5.84,2.71-12.49,7.48-15.78
	C131.2,73.79,131.73,74.53,131.25,74.86L131.25,74.86z"/>
<path class="st0" d="M119.85,83.54c1.1-2.53,1.11-5.23,2.11-7.73c0.94-2.35,2.85-4.6,4.62-6.34c4.02-3.94,9.44-6.86,14.86-8.28
	c0.56-0.15,0.88,0.7,0.31,0.85c-5.44,1.42-10.75,4.29-14.7,8.33c-2.29,2.34-3.98,4.86-4.81,8.09c-0.49,1.92-0.76,3.59-1.56,5.45
	C120.44,84.45,119.61,84.08,119.85,83.54L119.85,83.54z"/>
<path class="st0" d="M149.61,56.18c-2.31,0.55-4.34,1.77-6.6,2.5c-2.48,0.81-5.08,1.17-7.53,2.12c-5.92,2.29-12.46,6.68-15.64,12.3
	c-0.29,0.5-1.11,0.13-0.83-0.37c2.84-5.01,7.76-8.55,12.78-11.18c2.55-1.34,5.14-2.19,7.91-2.92c3.29-0.87,6.32-2.52,9.59-3.3
	C149.86,55.19,150.18,56.04,149.61,56.18L149.61,56.18z"/>
<path class="st0" d="M153.92,53.26c2.72,3.9,1.79,8.49,0.68,12.78c-0.14,0.56-1.04,0.41-0.89-0.15c1.04-4.04,2.05-8.41-0.53-12.11
	C152.85,53.31,153.59,52.78,153.92,53.26L153.92,53.26z"/>
<path class="st0" d="M151.63,54.74c0.55,2.36-0.31,4.17-1.17,6.36c-1.38,3.53-3.67,7.76-3.84,11.57c-0.03,0.58-0.92,0.42-0.89-0.15
	c0.12-2.67,1.44-5.23,2.37-7.7c1.07-2.84,3.39-6.7,2.68-9.78C150.65,54.49,151.5,54.17,151.63,54.74L151.63,54.74z"/>
<path class="st0" d="M148.04,57.3c-4.59,5.54-7.01,12.29-6.95,19.49c0,0.58-0.9,0.67-0.9,0.08c-0.06-7.44,2.41-14.41,7.16-20.14
	C147.71,56.27,148.41,56.85,148.04,57.3L148.04,57.3z"/>
<path class="st0" d="M139.5,64.59c-1.11,2.81-2.91,5.07-3.51,8.11c-0.58,2.95-0.32,5.9,0.63,8.74c0.19,0.55-0.67,0.86-0.85,0.31
	c-0.92-2.75-1.24-5.61-0.79-8.48c0.53-3.41,2.47-5.92,3.7-9.05C138.89,63.67,139.71,64.05,139.5,64.59L139.5,64.59z"/>
<path class="st0" d="M132.98,72.16c-1.14,5.01-0.42,9.99,1.53,14.69c0.22,0.54-0.63,0.85-0.85,0.31
	c-2.01-4.83-2.75-10.01-1.57-15.15C132.22,71.44,133.11,71.59,132.98,72.16L132.98,72.16z"/>
<path class="st0" d="M79.07,65.08c3.25,8.77,9.76,15.47,11.9,24.86c1.97,8.65-0.38,14.65-4.58,22.18c-0.26,0.47-0.88,0.25-0.86-0.26
	c0.31-6.56-5.76-8.95-9.73-12.66c-2.1-1.96-3.78-4.33-4.96-6.95c-2.62-5.81-2.47-12.19-0.67-18.2c0.17-0.55,1.06-0.41,0.89,0.15
	c-2.79,9.32-0.98,18.93,6.62,25.42c2.51,2.14,5.51,3.78,7.31,6.65c0.55,0.87,1.88,3.93,1.38,4.02c1.71-0.32,4.33-9.85,4.47-10.99
	c0.55-4.53-0.57-9.44-2.08-13.65c-2.6-7.27-7.9-13.1-10.55-20.26C78.01,64.84,78.87,64.53,79.07,65.08L79.07,65.08z"/>
<path class="st0" d="M75.61,69.46c-1.78,5.14-0.22,10.35,2.21,14.97c1.87,3.56,4.85,6.19,6.84,9.63c2.68,4.63,2.39,10.04,1.65,15.15
	c-0.08,0.58-0.98,0.43-0.89-0.15c0.63-4.4,0.98-9.06-0.86-13.24c-1.77-4.02-5.5-6.97-7.55-10.89c-2.59-4.93-4.08-10.45-2.22-15.85
	C74.97,68.53,75.8,68.91,75.61,69.46L75.61,69.46z"/>
<path class="st0" d="M89.69,102.46c-1.45-5.27-3.53-10.8-8.94-13.09c-0.54-0.23-0.16-1.05,0.37-0.83c5.61,2.37,7.91,8.1,9.42,13.61
	C90.7,102.71,89.85,103.03,89.69,102.46L89.69,102.46z"/>
<path class="st0" d="M90.87,95.67c-4.93-7.33-11.72-12.62-16.77-19.91c-0.33-0.48,0.41-1.01,0.74-0.52
	c5.05,7.29,11.82,12.55,16.77,19.91C91.93,95.63,91.19,96.15,90.87,95.67L90.87,95.67z"/>
<path class="st0" d="M88.74,86.74c-5.87-3.25-10.65-9.71-14.35-15.16c-0.33-0.48,0.41-1.01,0.74-0.52
	c3.63,5.35,8.22,11.67,13.98,14.86C89.62,86.2,89.25,87.02,88.74,86.74L88.74,86.74z"/>
<path class="st0" d="M85.7,79.72c-4.09-3.14-7.85-6.99-9.7-11.88c-0.21-0.55,0.65-0.86,0.85-0.31c1.79,4.74,5.46,8.45,9.42,11.49
	C86.74,79.38,86.17,80.08,85.7,79.72L85.7,79.72z"/>
<path class="st0" d="M74.51,76.12c-0.75,1.19-1.62,2.05-2.11,3.39c-0.53,1.47-0.7,3.08-0.82,4.63c-0.24,2.99-0.29,5.84,0.57,8.74
	c0.16,0.56-0.69,0.87-0.85,0.31c-0.9-3.04-0.86-6.06-0.61-9.2c0.13-1.61,0.33-3.26,0.85-4.8c0.5-1.49,1.45-2.34,2.27-3.64
	C74.12,75.05,74.81,75.63,74.51,76.12L74.51,76.12z"/>
<path class="st0" d="M76.75,82.13c2.32,5.31,0.62,10.05-1.1,15.25c-0.18,0.55-1.01,0.18-0.83-0.37c1.65-4.97,3.3-9.48,1.08-14.57
	C75.67,81.91,76.52,81.6,76.75,82.13L76.75,82.13z"/>
<path class="st0" d="M81.45,89.76c0.9,1.99,0.93,4.11,0.46,6.22c-0.46,2.06-1.35,3.77-2.17,5.66c-0.23,0.54-1.06,0.16-0.83-0.37
	c0.72-1.65,1.51-3.1,1.97-4.89c0.54-2.13,0.63-4.27-0.29-6.3C80.36,89.53,81.21,89.23,81.45,89.76L81.45,89.76z"/>
<path class="st0" d="M84.19,94.08c0.24,1.69,0.47,3.4,0.27,5.1c-0.21,1.74-1,3.27-1.76,4.82c-0.26,0.52-1.08,0.15-0.83-0.37
	c0.73-1.48,1.5-2.93,1.7-4.6c0.19-1.62-0.05-3.26-0.28-4.87C83.21,93.59,84.11,93.51,84.19,94.08L84.19,94.08z"/>
<path class="st0" d="M64.31,69.87c-5.89,2.88-12.31,3.91-18.46,6.03c-3.02,1.04-5.9,2.38-8.74,3.84c-4.28,2.19-6.36,4.67-8.59,8.88
	c-0.43,0.8-1.14,1.73-1.49,2.54c0.52-1.21-2.08,0.86,1.03-1.53c1.46-1.12,3.7-1.28,5.45-1.17c6.75,0.41,11.96,3.87,18.77,0.56
	c0.52-0.25,0.83,0.6,0.31,0.85c-3.16,1.53-6.63,2.01-10.11,1.53c-6.22-0.85-10.81-3.89-16.42,0.92c-0.39,0.34-0.93-0.27-0.61-0.66
	c2.38-2.91,3.27-6.87,6-9.51c2.06-1.98,5.15-3.22,7.7-4.45c7.99-3.84,16.92-4.82,24.86-8.7C64.53,68.76,64.83,69.62,64.31,69.87
	L64.31,69.87z"/>
<path class="st0" d="M57.64,79.45c-5.06,1.38-10.28,2.1-15.31,3.56c-5.13,1.49-8.84,4.41-13.3,7.1c-0.5,0.3-1.03-0.44-0.52-0.74
	c4.1-2.47,7.29-5.19,11.93-6.73c5.5-1.82,11.32-2.53,16.9-4.05C57.89,78.44,58.21,79.29,57.64,79.45L57.64,79.45z"/>
<path class="st0" d="M58.02,77.71c-0.98-0.91-2.1-1.88-3.35-2.37c-1.23-0.48-2.58-0.27-3.75-0.94c-0.5-0.29-0.13-1.11,0.37-0.83
	c1.25,0.71,2.76,0.46,4.06,1.08c1.2,0.57,2.27,1.46,3.24,2.35C59.02,77.4,58.45,78.11,58.02,77.71L58.02,77.71z"/>
<path class="st0" d="M52.7,80.32c-2.36-2.01-5.96-3.11-9.01-3.32c-0.58-0.04-0.43-0.93,0.15-0.89c3.2,0.22,6.96,1.41,9.43,3.51
	C53.72,80,53.15,80.7,52.7,80.32L52.7,80.32z"/>
<path class="st0" d="M46.6,81.53c-1.53-1.1-3.48-1.18-5.29-1.42c-1.54-0.2-3.27-0.77-4.79-0.23c-0.55,0.19-0.86-0.66-0.31-0.85
	c1.71-0.6,3.51-0.03,5.25,0.19c2,0.26,4.03,0.39,5.71,1.61C47.65,81.17,47.08,81.87,46.6,81.53L46.6,81.53z"/>
<path class="st0" d="M39.64,83.87c-1.26,0.3-2.52,0.87-3.84,0.76c-0.7-0.06-1.36-0.3-2.07-0.35c-0.91-0.06-1.83,0.02-2.74,0.05
	c-0.58,0.02-0.67-0.88-0.08-0.9c1.27-0.05,2.57-0.16,3.83,0.07c1.72,0.32,2.92-0.08,4.58-0.48C39.89,82.88,40.21,83.73,39.64,83.87
	L39.64,83.87z"/>
<path class="st0" d="M54.53,80.4c-2.47,5.18-9.45,8.37-14.66,9.93c-0.56,0.17-0.87-0.68-0.31-0.85c4.89-1.46,11.81-4.57,14.14-9.45
	C53.96,79.5,54.78,79.88,54.53,80.4L54.53,80.4z"/>
<path class="st0" d="M50.17,81.65c-3.78,3.58-10.66,2.66-13.28,7.48c-0.28,0.51-1.1,0.14-0.83-0.37c2.8-5.16,9.48-3.96,13.4-7.68
	C49.89,80.68,50.6,81.25,50.17,81.65L50.17,81.65z"/>
<path class="st0" d="M52.31,103.7c1.81,0.66,3.94,0.43,5.81,1.09c2.34,0.82,4.63,2.21,6.6,3.7c3.89,2.96,7.14,7.03,8.74,11.69
	c1.59,4.64,0.95,9.02-0.27,13.66c-0.73,2.75-1.92,5.78-1.71,8.67c0.24,3.22,1.72,6.72,2.41,9.92c0.09,0.43-0.46,0.57-0.74,0.39
	c-4.22-2.69-8.05-5.35-11.68-8.8c-3.26-3.09-7.27-6.76-9.25-10.88c-1.53-3.16-1.8-6.76-1.71-10.22c0.13-5.24,2.11-12.17,0.36-17.17
	c-0.08-0.22,0.03-0.52,0.27-0.58c6.45-1.7,9.58,9.61,10.65,13.95c1.08,4.39,1.59,8.71,1.9,13.21c0.21,2.97,0.46,6.51,1.68,9.25
	c1.49,3.34,5.15,6.07,7.66,8.62c0.41,0.41-0.16,1.12-0.57,0.7c-3.75-3.8-7.47-6.55-8.72-11.86c-1.64-6.99-1.28-14.13-3.19-21.14
	c-0.96-3.54-2.36-8.78-5.69-10.81c-4.47-2.73-2.77,2.62-2.87,5.39c-0.3,8.6-2.24,17.28,4,24.33c2.52,2.85,5.21,5.76,8.02,8.29
	c1.62,1.46,5.39,5.56,7.68,5.72c1.04,0.92,1.23,0.39,0.58-1.59c-0.19-0.85-0.41-1.69-0.66-2.52c-0.31-1.1-0.71-2.18-0.88-3.31
	c-0.39-2.58,0.29-5,0.95-7.49c2.06-7.73,2.82-14.47-2.26-21.36c-2.63-3.57-6.26-6.56-10.33-8.35c-2.4-1.06-4.8-0.8-7.15-1.66
	C51.38,104.33,51.76,103.5,52.31,103.7L52.31,103.7z"/>
<path class="st0" d="M71,117.23c-1.99-1.45-4.07-2.74-6.22-3.94c-1.94-1.08-4.45-2.86-6.73-2.88c-0.58-0.01-0.66-0.91-0.08-0.9
	c2.32,0.02,4.32,1.39,6.31,2.47c2.53,1.37,4.98,2.85,7.3,4.54C72.05,116.87,71.47,117.57,71,117.23L71,117.23z"/>
<path class="st0" d="M59.54,112.35c6.35,2.81,11.32,7.32,14.71,13.39c0.28,0.5-0.45,1.03-0.74,0.52
	c-3.32-5.95-8.11-10.33-14.35-13.09C58.63,112.94,59.01,112.12,59.54,112.35L59.54,112.35z"/>
<path class="st0" d="M61.86,118.29c4.84,3.04,9.09,6.42,12.01,11.4c0.29,0.5-0.44,1.03-0.74,0.52c-2.89-4.92-7.07-8.23-11.84-11.22
	C60.79,118.69,61.37,117.99,61.86,118.29L61.86,118.29z"/>
<path class="st0" d="M62.69,123.38c4.38,2.89,8.21,6.21,10.2,11.17c0.22,0.54-0.64,0.85-0.85,0.31c-1.92-4.81-5.7-8-9.92-10.78
	C61.63,123.76,62.21,123.06,62.69,123.38L62.69,123.38z"/>
<path class="st0" d="M63.76,129.27c2.88,3.36,5.45,6.92,7.74,10.7c0.3,0.5-0.44,1.02-0.74,0.52c-2.29-3.78-4.86-7.34-7.74-10.7
	C62.64,129.36,63.38,128.83,63.76,129.27L63.76,129.27z"/>
<path class="st0" d="M58.39,110.67c-2.5,8.69-5.1,16.45-2.9,25.54c0.14,0.56-0.71,0.88-0.85,0.31c-2.25-9.31,0.29-17.06,2.86-26
	C57.65,109.96,58.55,110.11,58.39,110.67L58.39,110.67z"/>
<path class="st0" d="M60.32,115.35c-1.32,4.84-1.68,9.76-1.63,14.77c0.04,3.46,0.93,6.95,0.59,10.38c-0.06,0.58-0.95,0.43-0.89-0.15
	c0.41-4.19-0.67-8.63-0.59-12.89c0.08-4.16,0.53-8.24,1.63-12.26C59.58,114.64,60.48,114.79,60.32,115.35L60.32,115.35z"/>
<path class="st0" d="M62.14,122.2c-0.96,4.08-1.84,7.69-1.01,11.9c0.64,3.25,1.53,6.31,1.14,9.66c-0.07,0.58-0.96,0.43-0.89-0.15
	c0.46-4.01-1.06-7.65-1.52-11.57c-0.4-3.44,0.61-6.68,1.39-10C61.38,121.48,62.28,121.63,62.14,122.2L62.14,122.2z"/>
<path class="st0" d="M46.05,105.86c-5.14,6.46-12.71,5.03-19.72,7.38c-5.93,1.99-11.75,4.13-14.73,10.03
	c-1.2,2.38-1.9,4.98-2.56,7.54c-0.19,0.72-1.91,6-1.61,6.32c-0.28-0.3,5.82-5.47,6.63-6c3.3-2.16,7.13-3.41,10.69-5.07
	c5.15-2.41,9.32-5.39,12.54-10.12c2.26-3.33,3.57-6.77,6.87-9.23c0.47-0.35,0.99,0.39,0.52,0.74c-3.67,2.73-5.19,7.22-7.92,10.77
	c-2.11,2.75-4.57,4.86-7.57,6.61c-3.18,1.85-6.64,3.1-9.97,4.64c-5,2.31-8.44,5.57-12.36,9.36c-0.38,0.36-0.92,0.03-0.76-0.47
	c2.48-7.82,3.08-18.29,11.25-22.61c3.24-1.71,7.37-3.18,10.95-3.96c6.17-1.35,12.68-1,17.04-6.49
	C45.71,104.83,46.41,105.41,46.05,105.86L46.05,105.86z"/>
<path class="st0" d="M40.1,110.95c-3.57,5.4-10.16,6.6-15.41,9.85c-6.54,4.05-13.83,9.13-16.93,16.4c-0.23,0.54-1.05,0.16-0.83-0.37
	c2.52-5.92,7.45-9.83,12.53-13.53c2.59-1.89,5.23-3.71,8.1-5.16c4.36-2.21,8.96-3.41,11.83-7.75
	C39.72,109.89,40.42,110.46,40.1,110.95L40.1,110.95z"/>
<path class="st0" d="M33.1,116.6c-0.57,1.63-1.04,3.36-1.88,4.88c-0.7,1.27-1.66,2.39-2.55,3.53c-0.36,0.46-1.06-0.11-0.7-0.57
	c0.95-1.22,1.99-2.41,2.68-3.81c0.69-1.39,1.12-2.93,1.63-4.4C32.47,115.68,33.29,116.06,33.1,116.6L33.1,116.6z"/>
<path class="st0" d="M32.73,116.87c-4.8-0.12-9.59,0.38-14.39,0.3c-0.22,0-0.37-0.1-0.47-0.3c-0.13-0.12-0.28-0.21-0.44-0.27
	c-0.14-0.07-0.27-0.21-0.26-0.37c0-0.02,0-0.05,0-0.07c0-0.58,0.9-0.66,0.9-0.08c0,0.42,4.44,0.15,5.14,0.13
	c3.15-0.13,6.29-0.31,9.44-0.24C33.22,115.98,33.31,116.88,32.73,116.87L32.73,116.87z"/>
<path class="st0" d="M25.13,120.19c-2.46,0.02-4.82-0.18-7.16,0.75c-2.18,0.87-4.28,2.06-6.39,3.09c-0.52,0.25-0.83-0.6-0.31-0.85
	c2.31-1.13,4.65-2.53,7.09-3.37c2.14-0.73,4.46-0.5,6.69-0.52C25.63,119.28,25.71,120.18,25.13,120.19L25.13,120.19z"/>
<path class="st0" d="M21.76,122.76c-1.57,2.06-3.63,4.55-4.33,7.07c-0.15,0.56-1.05,0.41-0.89-0.15c0.76-2.73,2.82-5.27,4.52-7.49
	C21.41,121.72,22.11,122.3,21.76,122.76L21.76,122.76z"/>
<path class="st0" d="M29.64,138.67c-7.22,1.82-15.98,5-20.85,10.94c-5.36,6.53-5.27,15.48-2.52,23.07
	c2.13,5.9,4.96,11.11,6.23,17.32c0.26,1.26,2.31,14.12,0.03,13.82c0.14,0.02,3.87-5.75,4.34-6.49c2.13-3.35,3.97-7.05,4.59-11.01
	c1.02-6.49-0.85-12.86-2.08-19.17c-0.94-4.85-1.77-10.24-0.22-15.06c0.78-2.41,2.27-4.26,3.88-6.17c2.4-2.83,4.56-5.85,6.96-8.68
	c0.38-0.45,1.08,0.13,0.7,0.57c-5,5.89-11.42,12.21-11.46,20.33c-0.03,6.06,1.86,11.91,2.83,17.84
	c1.94,11.87-2.91,20.35-10.02,29.44c-0.32,0.4-0.98-0.01-0.76-0.47c3.5-7.45,0.17-18.26-2.97-25.35
	c-2.51-5.69-4.99-11.08-4.86-17.44c0.29-14.32,13.51-21.22,25.86-24.33C29.89,137.68,30.21,138.53,29.64,138.67L29.64,138.67z"/>
<path class="st0" d="M30.03,138.74c-5.03,4.14-11.43,8.11-14.29,14.15c-3.29,6.96-1.22,13.43,0.48,20.45
	c1.13,4.64,1.06,8.58,0.27,13.25c-0.84,4.99-0.19,10.23-1.81,15.07c-0.19,0.55-1.01,0.17-0.83-0.37c1.18-3.51,0.82-7.01,1.13-10.63
	c0.24-2.83,1.04-5.6,1.26-8.43c0.55-6.85-2.85-12.97-3.27-19.69c-0.73-11.67,8.47-17.89,16.53-24.53
	C29.96,137.63,30.48,138.37,30.03,138.74L30.03,138.74z"/>
<path class="st0" d="M22.98,144.41c-2.99,2.06-6.05,3.96-9.2,5.74c-3.32,1.87-7.1,3.68-8.81,7.33c-0.25,0.53-1.07,0.16-0.83-0.37
	c1.33-2.84,3.89-4.67,6.5-6.24c3.97-2.38,7.99-4.57,11.81-7.2C22.94,143.34,23.47,144.07,22.98,144.41L22.98,144.41z"/>
<path class="st0" d="M15.89,152.34c-5.24,5.05-9.69,10.34-10.36,17.85c-0.05,0.58-0.95,0.43-0.89-0.15
	c0.68-7.66,5.19-13.1,10.55-18.27C15.6,151.36,16.31,151.93,15.89,152.34L15.89,152.34z"/>
<path class="st0" d="M13.47,162.24c-4.23,5.47-4.23,12.32-3.6,18.88c0.06,0.58-0.85,0.66-0.9,0.08c-0.65-6.81-0.58-13.87,3.8-19.54
	C13.13,161.21,13.83,161.78,13.47,162.24L13.47,162.24z"/>
<path class="st0" d="M14.75,169.72c-1.34,3.89-1.92,7.89-1.61,12c0.21,2.83,0.57,5.47-0.16,8.25c-0.15,0.56-1.04,0.41-0.89-0.15
	c0.96-3.64-0.02-7.26,0.06-10.94c0.06-3.27,0.72-6.45,1.78-9.53C14.11,168.8,14.93,169.17,14.75,169.72L14.75,169.72z"/>
<path class="st0" d="M17.55,150.44c-0.87,2.13-0.35,5.73-0.37,8.05c-0.02,3.21,0.25,6.26,2.29,8.92c0.36,0.46-0.38,0.99-0.74,0.52
	c-2.13-2.78-2.48-5.94-2.45-9.36c0.02-2.55-0.54-6.09,0.44-8.5C16.94,149.53,17.77,149.9,17.55,150.44L17.55,150.44z"/>
<path class="st0" d="M14,158.23c0.78,8.1,2.72,18.31,7.84,24.94c0.36,0.46-0.38,0.99-0.74,0.52c-5.23-6.77-7.19-17.02-8-25.38
	C13.04,157.73,13.95,157.65,14,158.23L14,158.23z"/>
<path class="st0" d="M17.01,182.93c0.19,1.84,1.17,3.58,1.56,5.39c0.43,2.02,0.58,4.06,0.59,6.12c0,0.58-0.9,0.67-0.9,0.08
	c-0.02-2.16-0.17-4.31-0.67-6.41c-0.41-1.72-1.3-3.34-1.48-5.09C16.04,182.43,16.95,182.35,17.01,182.93L17.01,182.93z"/>
<path class="st0" d="M207.96,46.68c-9.32-3.51-19.23-4.83-29.05-2.95c-10.36,1.98-19.95,5.51-30.61,5.82
	c-9.09,0.27-17.88-1.56-26.84-2.82c-11.35-1.61-21.14-0.7-31.3,4.9c-9.47,5.22-19.05,10.83-26.05,19.25
	c-5.8,6.96-9.83,15.17-13.3,23.48c-3.39,8.12-6.28,16.44-9.79,24.52c-1.59,3.66-3.31,7.27-5.26,10.75
	c-0.15,0.28-0.32,0.55-0.48,0.82c-1.41,1.67-2.78,3.36-3.84,5.15c-1.87,3.16,0.64,0.02,1.57-1.41c0.79-1.22,1.54-2.47,2.27-3.74
	c1.47-1.74,2.97-3.47,4.2-5.3c2.9-4.3,5.52-8.78,8.03-13.32c4.44-8.02,8.54-16.23,13.22-24.12C69.31,73.24,80.3,60.17,96.3,53.77
	c8.3-3.32,17.24-4.69,26.16-4.11c9.97,0.65,19.49,2.43,29.53,1.49c18.91-1.77,38.02-7.83,56.59-0.78
	c8.82,3.35,16.59,9.08,23.05,15.89c2.05,2.16,3.95,4.45,5.75,6.82c-0.25,0.17-0.5,0.34-0.74,0.52c-1.13-1.49-2.3-2.96-3.53-4.37
	c-6.1-7-13.53-13.03-22.04-16.85c-17.15-7.68-35.09-3.43-52.86-1.05c-8.57,1.15-16.91,1.41-25.5,0.38
	c-10.7-1.29-20.81-1.96-31.28,1.21C82.46,58.68,69.96,73.51,60.38,90.1c-9.54,16.5-17.08,34.35-30.35,48.35
	c-0.4,0.42-1.05-0.1-0.7-0.57c11.42-15.41,15.76-34.31,23.99-51.36c3.84-7.95,8.62-15.52,15.15-21.54
	c7.42-6.83,17.01-12.51,26.19-16.66c18.42-8.32,38.67,1.74,57.87,0.09c11-0.94,21.26-5.6,32.24-6.38c8.56-0.61,17.1,1.22,25.02,4.39
	c11.45,4.58,24.73,12.4,32.74,23.1c-0.25,0.17-0.5,0.34-0.74,0.52C233.58,59.06,219.69,51.1,207.96,46.68z"/>
<path class="st0" d="M31.44,135.6c1.06-1.79,2.43-3.48,3.84-5.15c-0.73,1.26-1.48,2.51-2.27,3.74
	C32.07,135.62,29.57,138.76,31.44,135.6z"/>
<path class="st0" d="M195.59,97.87c0.74,0.86,1.54,1.69,2.42,2.45c0.06,0.05,0.1,0.1,0.12,0.16c-0.11,0.08-0.23,0.16-0.34,0.24
	C196.97,99.95,196.23,98.96,195.59,97.87z"/>
<path class="st0" d="M198,100.32c-0.88-0.75-1.68-1.58-2.42-2.45c-1.41-2.41-2.31-5.34-2.3-7.52c0.01-5.13,3.25-9.53,7.01-12.72
	c4.75-4.04,9.99-6.34,16.09-7.36c3.66-0.61,7.33-1.02,10.88-2.16c1.79-0.58,2.69-0.46,0.43-0.76c-1.65-0.22-3.32-0.26-4.97-0.47
	c-9.5-1.26-20.61-3.97-27.77,4.42c-6.76,7.92-5.76,19.09,0.64,26.57c0.64,1.1,1.38,2.08,2.2,2.84c-0.13,0.09-0.26,0.18-0.39,0.28
	c-8.87-7.63-11-21.01-3.15-30.26c9.39-11.07,24.64-3.89,36.71-4.3c0.4-0.01,0.73,0.59,0.3,0.82c-7.7,4.24-16.95,2.83-24.65,7.09
	c-4.73,2.62-9.68,6.52-11.6,11.74c-1.98,5.4,0.09,10.3,3.81,13.91c-0.23,0.16-0.46,0.32-0.69,0.48
	C198.1,100.42,198.06,100.36,198,100.32z"/>
<path class="st0" d="M178.54,87.36c-3.64-7.64-2.09-17.42,4-23.24c5.88-5.62,14.07-9.41,22.32-8.63
	c8.73,0.83,18.52,4.93,25.53,10.08c0.47,0.35-0.1,1.05-0.57,0.7c-12.54-9.21-30.39-13.99-43.7-3.99
	c-8.06,6.06-11.44,17.09-5.93,26.2c3.33,5.52,10.59,10.32,16.94,12.69c-0.15,0.1-0.3,0.21-0.45,0.31
	C189.36,98.58,182.04,94.7,178.54,87.36z"/>
<path class="st0" d="M198.05,100.95c0.27,0.23,0.54,0.44,0.82,0.61c-0.07,0.05-0.14,0.1-0.21,0.15c-0.51-0.16-1.02-0.34-1.54-0.53
	c0.09-0.06,0.18-0.13,0.27-0.19c0.01,0.01,0.02,0.02,0.04,0.03C197.65,101.21,197.91,101.13,198.05,100.95z"/>
<path class="st0" d="M198.05,100.95c-0.14,0.18-0.4,0.26-0.62,0.07c-0.01-0.01-0.02-0.02-0.04-0.03c0.13-0.09,0.26-0.18,0.39-0.28
	C197.88,100.79,197.96,100.87,198.05,100.95z"/>
<path class="st0" d="M198.05,100.95c0.11-0.13,0.15-0.31,0.07-0.48c0.23-0.16,0.46-0.32,0.69-0.48c0.32,0.31,0.66,0.62,1,0.91
	c-0.31,0.22-0.63,0.44-0.95,0.66C198.59,101.39,198.32,101.18,198.05,100.95z"/>
<path class="st0" d="M198.57,101.77c-0.14,0.1-0.27,0.19-0.41,0.29c-0.49-0.19-0.99-0.38-1.48-0.58c0.15-0.1,0.3-0.21,0.45-0.31
	c0.52,0.19,1.03,0.37,1.54,0.53C198.63,101.73,198.6,101.75,198.57,101.77z"/>
<path class="st0" d="M198.13,100.47c0.08,0.16,0.03,0.35-0.07,0.48c-0.09-0.08-0.18-0.16-0.26-0.24
	C197.9,100.63,198.01,100.55,198.13,100.47z"/>
<path class="st0" d="M236.63,73.62c0.25-0.17,0.5-0.34,0.74-0.52c0.26,0.35,0.53,0.69,0.78,1.04c-0.25,0.17-0.49,0.34-0.74,0.51
	C237.17,74.3,236.9,73.96,236.63,73.62z"/>
<path class="st0" d="M241.78,70.03c0.25-0.17,0.5-0.34,0.74-0.52c0.26,0.35,0.52,0.7,0.77,1.05c-0.25,0.17-0.49,0.34-0.74,0.52
	C242.3,70.73,242.04,70.38,241.78,70.03z"/>
<g>
	<path class="st0" d="M196.25,123.53c-1.13-1.08-2.19-2.21-3.16-3.4c-0.12,0.33-0.6,0.51-0.81,0.12c-0.22-0.41-0.45-0.82-0.68-1.23
		c-0.11,0.12-0.29,0.19-0.46,0.16c0.23,0.32,0.48,0.62,0.73,0.93c0.93,0.69,1.84,1.4,2.74,2.13c0.32,0.26,0.11,0.67-0.21,0.76
		c0.05,0.05,0.09,0.11,0.14,0.16c0.22,0.22,0.45,0.41,0.67,0.62c0.45,0.25,0.89,0.51,1.33,0.78
		C196.45,124.21,196.35,123.87,196.25,123.53z"/>
	<path class="st0" d="M199.96,126.65c-0.79-0.58-1.56-1.18-2.3-1.82c-0.05-0.04-0.09-0.09-0.14-0.13c0.02,0.31-0.25,0.51-0.52,0.48
		c-0.01,0.05-0.03,0.1-0.05,0.15c0.75,0.62,1.52,1.21,2.3,1.77C199.85,127.09,199.96,127.13,199.96,126.65z"/>
	<path class="st0" d="M186.25,106.09c-0.02-0.09-0.04-0.17-0.06-0.26c-0.11-0.58-0.99-0.31-0.88,0.27c0.03,0.14,0.07,0.28,0.1,0.42
		C185.69,105.98,185.89,105.83,186.25,106.09z"/>
	<path class="st0" d="M189.29,109.72c0.01-0.28-0.2-0.42-0.42-0.43c0.14,0.21,0.28,0.41,0.42,0.61
		C189.3,109.84,189.29,109.78,189.29,109.72z"/>
	<path class="st0" d="M191.6,119.02c0.23,0.41,0.45,0.82,0.68,1.23c0.21,0.39,0.69,0.21,0.81-0.12c-1.37-1.66-2.59-3.43-3.62-5.3
		c0.32,0.75,0.68,1.49,1.06,2.22c0.37,0.48,0.74,0.96,1.09,1.45C191.76,118.7,191.72,118.89,191.6,119.02z"/>
	<path class="st0" d="M183.56,110.49c0.01,0.01,0.02,0.02,0.04,0.04c0.12-0.28,0.25-0.55,0.37-0.82
		C183.59,109.63,183.21,110.14,183.56,110.49z"/>
	<path class="st0" d="M191.6,119.02c-0.36-0.65-0.72-1.31-1.07-1.96c-0.85-1.12-1.73-2.21-2.64-3.27c0.91,1.89,1.99,3.69,3.25,5.39
		C191.31,119.21,191.49,119.14,191.6,119.02z"/>
	<path class="st0" d="M191.62,118.51c-0.36-0.49-0.73-0.97-1.09-1.45c0.35,0.66,0.71,1.31,1.07,1.96
		C191.72,118.89,191.76,118.7,191.62,118.51z"/>
	<path class="st0" d="M181.89,114.81c0.1-0.28,0.19-0.56,0.3-0.84C181.74,113.89,181.43,114.55,181.89,114.81z"/>
	<path class="st0" d="M194.61,122.24c-0.9-0.73-1.81-1.44-2.74-2.13c0.79,0.99,1.63,1.96,2.53,2.89
		C194.71,122.91,194.93,122.51,194.61,122.24z"/>
	<path class="st0" d="M194.64,115.07c-0.13-0.41-0.65-0.38-0.83-0.1c0.36,0.34,0.74,0.67,1.11,1
		C194.83,115.67,194.74,115.37,194.64,115.07z"/>
	<path class="st0" d="M196.8,124.7c0.19,0.12,0.24,0.31,0.21,0.49c0.26,0.02,0.54-0.17,0.52-0.48c-0.43-0.38-0.86-0.78-1.27-1.17
		c0.1,0.34,0.2,0.68,0.3,1.03C196.63,124.61,196.71,124.65,196.8,124.7z"/>
	<path class="st0" d="M180.84,119.25c0.03-0.28,0.07-0.56,0.12-0.84C180.67,118.5,180.53,118.99,180.84,119.25z"/>
	<path class="st0" d="M196.64,124.88c-0.03-0.11-0.06-0.21-0.09-0.32c-0.44-0.27-0.88-0.53-1.33-0.78c0.57,0.54,1.14,1.07,1.74,1.56
		c0.02-0.05,0.04-0.1,0.05-0.15C196.85,125.17,196.7,125.08,196.64,124.88z"/>
	<path class="st0" d="M196.8,124.7c-0.08-0.05-0.17-0.1-0.25-0.15c0.03,0.11,0.06,0.21,0.09,0.32c0.06,0.2,0.21,0.3,0.37,0.31
		C197.04,125.01,196.99,124.82,196.8,124.7z"/>
	<path class="st0" d="M199.92,119.44c-0.08-0.51-0.8-0.55-0.91-0.15c0.32,0.23,0.65,0.46,0.98,0.69
		C199.97,119.8,199.95,119.62,199.92,119.44z"/>
	<path class="st0" d="M181.05,123.69c0.04,0,0.07,0.01,0.11,0.01c-0.09-0.3-0.17-0.6-0.23-0.91
		C180.45,122.87,180.51,123.66,181.05,123.69z"/>
	<path class="st0" d="M203.88,122.45c-0.07-0.3-0.34-0.37-0.57-0.28c0.2,0.13,0.39,0.26,0.59,0.38
		C203.9,122.52,203.89,122.49,203.88,122.45z"/>
	<path class="st0" d="M207.55,124.78c-0.01-0.47-0.58-0.54-0.81-0.27c0.28,0.21,0.55,0.42,0.82,0.63
		C207.55,125.03,207.55,124.9,207.55,124.78z"/>
	<path class="st0" d="M147.33,135.26c-0.28-0.11-0.53,0.05-0.63,0.26c0.32-0.05,0.64-0.08,0.96-0.11
		C147.54,135.36,147.44,135.31,147.33,135.26z"/>
	<path class="st0" d="M132.34,137.51c-0.21-0.32-0.6-0.22-0.77,0.01c0.27,0.01,0.54,0.02,0.8,0.03
		C132.36,137.53,132.35,137.52,132.34,137.51z"/>
	<path class="st0" d="M125.83,145.76c-0.1,0.36,0.43,0.75,0.79,0.42c0,0,0,0,0.01,0c-0.21-0.11-0.43-0.21-0.63-0.32
		C125.94,145.83,125.88,145.79,125.83,145.76z"/>
	<g>
		<path class="st0" d="M249.69,141.62c-0.71-0.78-1.43-1.52-2.17-2.22c0.11,0.39-0.33,0.73-0.63,0.56c0.53,0.52,1.05,1.04,1.55,1.59
			c0.5,0.55,1,1.11,1.5,1.68c0.07,0.01,0.15,0.02,0.22,0.02C250.01,142.7,249.85,142.16,249.69,141.62z"/>
		<path class="st0" d="M169.74,151.07c0.18-0.27,0.37-0.53,0.55-0.82c0.06-0.09,0.14-0.15,0.22-0.18c-0.83,0.09-1.66,0.18-2.49,0.25
			c-1.25,0.11-2.49,0.19-3.72,0.28c0.22,0.54-0.65,0.8-0.88,0.26c-0.03-0.07-0.06-0.13-0.09-0.19c-1.45,0.1-2.89,0.21-4.33,0.36
			c0.17,0.31-0.19,0.81-0.63,0.63c-0.1-0.04-0.19-0.07-0.29-0.1c-0.16,0.2-0.32,0.4-0.48,0.6c3.72-0.51,7.53-0.63,11.38-1
			C169.24,151.13,169.49,151.09,169.74,151.07z"/>
		<path class="st0" d="M148.06,153.79c-6.31,2.97-11.33,7.79-15.54,13.25c0.11,0.01,0.23,0.01,0.34,0.02
			c0.27,0.02,0.42,0.24,0.44,0.46c3.8-4.9,8.25-9.3,13.78-12.22c2.98-1.58,6.05-2.43,9.19-2.95c0.29-0.37,0.58-0.74,0.87-1.1
			C154.06,151.68,151.03,152.4,148.06,153.79z"/>
		<path class="st0" d="M245.88,137.94c-7.27-6.09-15.96-8.18-25.93-3.64c-1.91,0.87-3.79,1.76-5.67,2.64c0,0.01,0,0.02,0,0.03
			c-0.01,0.18-0.1,0.3-0.23,0.38c-0.05,0.27-0.34,0.51-0.66,0.36c-0.13-0.06-0.25-0.11-0.38-0.17c-5.95,2.8-11.89,5.53-18.26,7.51
			c-7.46,2.33-15.13,3.96-22.89,4.87c-0.13,0.26-0.55,0.39-0.79,0.09c-0.09,0.01-0.19,0.02-0.28,0.03c0.28,0.06,0.5,0.33,0.31,0.64
			c-0.05,0.08-0.11,0.16-0.16,0.25c3-0.33,5.99-0.76,8.95-1.3c0-0.07,0-0.13,0-0.19c-0.02-0.59,0.9-0.61,0.92-0.02
			c0,0.01,0,0.02,0,0.04c9.44-1.8,18.69-4.63,27.49-8.5c6.55-2.88,12.94-7.4,20.13-8.33c7.07-0.92,13.35,2.44,18.31,7.19
			c-0.01-0.01-0.01-0.01-0.02-0.02C246.39,139.17,246.13,138.56,245.88,137.94z"/>
		<path class="st0" d="M213.82,136.9c-0.15-0.07-0.3-0.13-0.45-0.2c0,0.1,0,0.2,0,0.3c-0.01,0.14,0.04,0.25,0.12,0.32
			c0.17-0.08,0.34-0.16,0.52-0.24C213.97,137,213.91,136.94,213.82,136.9z"/>
		<path class="st0" d="M213.37,137c0-0.1,0-0.2,0-0.3c-0.22-0.1-0.44-0.2-0.66-0.29c-0.14,0.06-0.31,0.06-0.46-0.08
			c-0.1-0.09-0.21-0.17-0.31-0.26c-2.03-0.83-4.1-1.42-6.33-1.66c-1.4-0.15-2.73-0.16-4.04-0.14c-0.14,0.11-0.29,0.21-0.42,0.32
			c-0.33,0.28-0.78,0.01-0.82-0.3c-1.81,0.03-3.58,0.04-5.42-0.31c-0.09,0.08-0.19,0.17-0.28,0.24c-0.35,0.28-0.7-0.1-0.67-0.45
			c-0.7-0.18-1.4-0.4-2.13-0.71c-4.31-1.84-9.25-4.71-10.69-9.36c-0.04,0-0.07-0.01-0.11-0.01c-0.55-0.03-0.6-0.82-0.12-0.9
			c-0.07-0.36-0.12-0.73-0.15-1.11c-0.06-0.8-0.03-1.61,0.06-2.44c-0.31-0.26-0.17-0.74,0.12-0.84c0.2-1.19,0.53-2.4,0.93-3.59
			c-0.46-0.26-0.15-0.92,0.3-0.84c0.43-1.18,0.92-2.34,1.41-3.44c-0.01-0.01-0.02-0.02-0.04-0.04c-0.35-0.35,0.03-0.86,0.4-0.79
			c0.25-0.56,0.51-1.11,0.75-1.63c0.32-0.69,0.53-1.21,0.71-1.56c-0.03-0.14-0.07-0.27-0.1-0.42c-0.11-0.57,0.76-0.84,0.88-0.27
			c0.02,0.09,0.04,0.17,0.06,0.26c0.26,0.19,0.61,0.59,1.15,1.21c0.53,0.62,1.01,1.31,1.48,2c0.22,0.01,0.42,0.14,0.42,0.43
			c0,0.06,0.01,0.12,0.01,0.19c0.34,0.49,0.69,0.98,1.07,1.43c1.07,1.28,2.23,2.48,3.44,3.63c0.19-0.27,0.7-0.31,0.83,0.1
			c0.1,0.3,0.19,0.6,0.28,0.9c0.94,0.83,1.89,1.64,2.88,2.41c0.4,0.31,0.81,0.61,1.22,0.91c0.1-0.41,0.83-0.37,0.91,0.15
			c0.03,0.18,0.05,0.36,0.07,0.54c1.1,0.76,2.22,1.47,3.32,2.19c0.22-0.08,0.5-0.02,0.57,0.28c0.01,0.03,0.01,0.07,0.02,0.1
			c0.97,0.64,1.93,1.29,2.83,1.96c0.23-0.27,0.8-0.2,0.81,0.27c0,0.12,0,0.24,0,0.36c0.95,0.76,1.82,1.56,2.6,2.44
			c0.07,0.05,0.13,0.11,0.17,0.19c1.93,2.27,3.15,5.06,3.05,8.92c0.15,0.07,0.3,0.13,0.45,0.2c0.09,0.04,0.14,0.1,0.18,0.17
			c0.09-0.04,0.19-0.09,0.28-0.13c0.26-6.46-2.4-10.18-7.63-13.63c-8.06-5.31-15.52-10.64-20.11-19.44
			c-0.16-0.31-0.64-0.26-0.79,0.03c-3.71,7.16-9.69,18.31-2.35,25.03c2.97,2.72,7.16,5.03,11.06,6.03c2.36,0.61,4.63,0.41,7.05,0.3
			c4.11-0.19,7.78,0.56,11.5,2.28c0.16-0.08,0.32-0.15,0.48-0.22C213.41,137.24,213.36,137.14,213.37,137z"/>
		<path class="st0" d="M214.06,137.35c0.12-0.07,0.22-0.19,0.23-0.38c0-0.01,0-0.02,0-0.03c-0.09,0.04-0.19,0.09-0.28,0.13
			C214.06,137.16,214.07,137.25,214.06,137.35z"/>
		<path class="st0" d="M214.01,137.07c-0.17,0.08-0.34,0.16-0.52,0.24c0.14,0.13,0.39,0.14,0.57,0.04
			C214.07,137.25,214.06,137.16,214.01,137.07z"/>
		<path class="st0" d="M214.06,137.35c-0.18,0.11-0.42,0.1-0.57-0.04c-0.16,0.08-0.32,0.15-0.48,0.22c0.13,0.06,0.25,0.11,0.38,0.17
			C213.72,137.86,214,137.62,214.06,137.35z"/>
		<path class="st0" d="M246.89,139.96c-0.05-0.05-0.1-0.1-0.15-0.15C246.78,139.88,246.83,139.92,246.89,139.96z"/>
		<path class="st0" d="M247.49,139.3c-0.53-1-0.93-1.99-1.22-2.98c-0.3-0.08-0.37-0.48-0.19-0.72c-0.55-2.27-0.51-4.51-0.01-6.64
			c-0.16-0.56-0.32-1.11-0.47-1.67c-1.09,3.4-1.11,7.06,0.29,10.64c0.55,0.46,1.1,0.95,1.64,1.46
			C247.51,139.36,247.51,139.33,247.49,139.3z"/>
		<path class="st0" d="M247.52,139.4c-0.54-0.51-1.08-1-1.64-1.46c0.24,0.62,0.51,1.24,0.83,1.85c0.01,0.01,0.01,0.01,0.02,0.02
			c0.05,0.05,0.1,0.1,0.15,0.15C247.19,140.12,247.63,139.79,247.52,139.4z"/>
		<path class="st0" d="M246.9,152.67c-0.08,0.14-0.16,0.29-0.23,0.46c-0.23,0.54-1.03,0.11-0.81-0.43c0.04-0.1,0.1-0.18,0.14-0.27
			c-1.54-0.45-3.14-1.09-4.56-1.66c-0.11,0.11-0.22,0.22-0.31,0.36c-0.33,0.48-1.14,0.05-0.81-0.43c0.07-0.1,0.14-0.19,0.22-0.28
			c-0.88-0.35-1.67-0.65-2.31-0.81c-1.7-0.45-3.44-0.57-5.16-0.44c-0.03,0.06-0.07,0.11-0.09,0.17c-0.18,0.5-0.92,0.37-0.91-0.07
			c-0.74,0.1-1.47,0.24-2.2,0.41c-1.57,0.39-3.08,0.95-4.54,1.63c-0.01,0.01-0.03,0.01-0.04,0.02c-0.03,0.01-0.06,0.03-0.09,0.04
			c0.06,0.1,0.09,0.22,0.09,0.38c-0.01,0.2-0.12,0.39-0.32,0.45c-0.33,0.1-0.66,0.01-0.83-0.3c-2.19,1.13-4.28,2.5-6.33,3.9
			c-0.02,0.04-0.04,0.08-0.06,0.13c-0.09,0.23-0.28,0.28-0.46,0.23c-1.27,0.88-2.53,1.76-3.79,2.59c-0.61,0.41-1.39,1.13-2.11,1.36
			c-0.82,0.48-1.52,0.62-2.1,0.43c-0.11,0.15-0.23,0.3-0.33,0.45c-0.35,0.48-1.01-0.15-0.67-0.62c0.08-0.11,0.16-0.22,0.24-0.32
			c-0.68-0.75-1.11-2.21-1.27-4.39c0.02-0.06,0.05-0.12,0.07-0.18c-0.15-0.24-0.06-0.64,0.28-0.72c0.59-1.41,1.37-2.71,2.36-3.89
			c1.3-1.65,2.8-3.3,4.47-4.74c0.05-0.21,0.23-0.4,0.47-0.39c2.13-1.74,4.52-3.13,7.14-3.75c4.85-1.15,10.29,0.23,15.14,0.76
			c1.76,0.19,3.51,0.39,5.27,0.58c0.18-0.1,0.37-0.06,0.52,0.06c2.49,0.27,4.98,0.55,7.47,0.82c-0.06-0.2-0.12-0.41-0.18-0.61
			c-0.11-0.12-0.21-0.24-0.32-0.36c-7.03-0.78-14.05-1.64-21.09-2.32c-5.01-0.49-9.24,0.27-13.38,3.29
			c-3.37,2.46-6.98,5.99-8.62,9.92c-0.87,2.1-1.82,6.81,1.33,7.68c2.09,0.57,4.71-1.54,6.28-2.59c4.9-3.27,9.85-7.19,15.67-8.63
			c4.81-1.2,8.63,0.23,13,2.05c1.78,0.74,3.73,1.48,5.7,1.34c1.64-0.12,2.99-0.73,3.94-1.72c-0.07-0.22-0.13-0.45-0.2-0.67
			C251.49,153.23,249.31,153.25,246.9,152.67z"/>
		<path class="st0" d="M250.16,143.25c-0.07-0.01-0.15-0.02-0.22-0.02c0.11,0.12,0.21,0.24,0.32,0.36
			C250.23,143.47,250.2,143.36,250.16,143.25z"/>
		<path class="st0" d="M157.16,151.24c0,0-0.01,0.01-0.01,0.01c0.01,0,0.03,0,0.04-0.01C157.19,151.24,157.17,151.24,157.16,151.24z
			"/>
		<path class="st0" d="M175.15,163.87c-0.03,0.13-0.11,0.25-0.23,0.32c-1.31,1.84-2.79,3.6-4.35,5.3c0.31,0.39-0.2,0.79-0.59,0.63
			c-1.1,1.18-2.22,2.34-3.34,3.48c0.1,0.36-0.23,0.58-0.52,0.54c-0.25,0.25-0.49,0.51-0.74,0.76c-1.77,1.83-3.49,3.71-5.15,5.63
			c-0.02,0.18-0.13,0.29-0.28,0.33c-1.49,1.73-2.93,3.5-4.32,5.31c0,0.06,0.01,0.13,0.01,0.19c0.02,0.32-0.24,0.47-0.49,0.44
			c-1.92,2.53-3.74,5.14-5.45,7.83c0.04,0.13,0.07,0.26,0.11,0.4c0.14,0.45-0.37,0.7-0.69,0.5c-0.05,0.07-0.09,0.14-0.14,0.22
			c-0.66,1.06-1.71,3.86-2.94,4.47c-0.15,0.4-0.86,0.36-0.89-0.16c-0.02-0.35-0.02-0.7-0.03-1.06c-0.43-2.12-0.76-6.12-0.85-6.99
			c-0.32-3.36-0.53-6.72-0.23-10.05c-0.18-0.19-0.24-0.53,0.03-0.74c0.02-0.01,0.03-0.03,0.05-0.04c0.16-1.43,0.42-2.86,0.82-4.27
			c0.23-0.82,0.5-1.66,0.78-2.5c-0.21-0.18-0.27-0.54,0.03-0.74c0.1-0.06,0.19-0.13,0.29-0.2c0.88-2.53,1.95-5.12,3.16-7.66
			c-0.27-0.22-0.19-0.79,0.27-0.83c0.05,0,0.09-0.01,0.14-0.02c1.24-2.52,2.62-4.98,4.09-7.31c-0.13-0.01-0.27-0.01-0.4-0.02
			c-0.27-0.03-0.42-0.24-0.44-0.46c-8.49,13.14-13.4,30.36-7.45,45.01c0.15,0.36,0.64,0.45,0.84,0.08
			c6.04-10.95,13.62-20.41,22.34-29.32c6.4-6.55,12.53-13.83,12.21-23.49c-0.31,0.06-0.61,0.12-0.92,0.18
			C180.02,155.11,178.04,159.72,175.15,163.87z"/>
		<path class="st0" d="M154.27,156.77c1.07-1.63,2.18-3.18,3.33-4.62c-0.44,0.06-0.89,0.13-1.33,0.2c-1.08,1.4-2.13,2.86-3.12,4.38
			c0.04-0.01,0.08-0.02,0.13-0.01C153.62,156.74,153.94,156.75,154.27,156.77z"/>
		<path class="st0" d="M158.08,151.55c-0.29-0.11-0.59-0.22-0.89-0.31c-0.01,0-0.03,0-0.04,0.01c-0.29,0.36-0.59,0.73-0.87,1.1
			c0.44-0.07,0.88-0.14,1.33-0.2C157.77,151.95,157.92,151.75,158.08,151.55z"/>
		<path class="st0" d="M179.89,149.44c0,0.07,0,0.13,0,0.19c0.31-0.06,0.61-0.12,0.92-0.18c0-0.01,0-0.02,0-0.04
			C180.78,148.82,179.87,148.85,179.89,149.44z"/>
		<path class="st0" d="M158.25,151.11c0.25-0.03,0.5-0.06,0.76-0.09c-0.04-0.07-0.1-0.13-0.2-0.18c-2.7-1.1-5.5-1.24-8.34-1.14
			c-0.23,0.18-0.45,0.37-0.66,0.55c-0.39,0.34-0.96-0.11-0.78-0.48c-0.67,0.04-1.33,0.08-2,0.13c-0.02,0.02-0.04,0.04-0.05,0.07
			c-0.19,0.27-0.49,0.18-0.65-0.03c-2.03,0.12-4.06,0.18-6.07-0.06c-0.11,0.15-0.24,0.29-0.48,0.45c-0.29,0.2-0.69-0.03-0.7-0.38
			c0-0.03,0-0.07,0-0.1c0-0.05,0.01-0.1,0.03-0.14c-4.08-0.7-8.77-1.65-12.46-3.54c0,0,0,0-0.01,0c-0.37,0.33-0.89-0.06-0.79-0.42
			c-2.05-1.18-5.43-3.63-5.45-6.14c-0.03-4.89,5.43-2.71,7.77-2.39c1.14,0.16,2.28,0.24,3.42,0.29c0.17-0.23,0.56-0.32,0.77-0.01
			c0.01,0.01,0.02,0.03,0.03,0.04c1.88,0.04,3.75-0.04,5.62-0.28c2.91-0.38,5.78-1.31,8.7-1.75c0.1-0.21,0.35-0.38,0.63-0.26
			c0.11,0.05,0.22,0.1,0.33,0.15c0.67-0.07,1.35-0.13,2.03-0.12c9.54,0.04,16.19,7.62,21.36,14.71c0.01,0.01,0.01,0.01,0.02,0.02
			c0.26-0.03,0.53-0.06,0.79-0.09c0.06-0.12,0.07-0.27-0.04-0.41c-5.06-6.92-11.41-14.33-20.59-15.07c-5.1-0.41-10,1.66-15.03,2.11
			c-3.58,0.32-6.94-0.18-10.47-0.65c-1.37-0.18-3-0.61-4.36-0.1c-6.22,2.37,2.15,9.87,4.99,11.26c4.34,2.12,9.72,3.29,14.48,3.87
			c5.4,0.66,11.06-1.24,16.31,0.31c0.1-0.13,0.21-0.26,0.31-0.39C157.75,150.51,158.19,150.77,158.25,151.11z"/>
		<path class="st0" d="M171.86,149.92c-0.26,0.03-0.53,0.06-0.79,0.09C171.31,150.31,171.73,150.18,171.86,149.92z"/>
		<path class="st0" d="M159,151.02c-0.25,0.03-0.5,0.06-0.76,0.09c0.02,0.12,0,0.25-0.1,0.36c-0.02,0.03-0.04,0.05-0.06,0.08
			c0.1,0.04,0.19,0.06,0.29,0.1C158.81,151.83,159.18,151.33,159,151.02z"/>
		<path class="st0" d="M158.25,151.11c-0.06-0.34-0.49-0.6-0.77-0.26c-0.1,0.13-0.21,0.26-0.31,0.39c0.01,0,0.02,0.01,0.03,0.01
			C157.55,151.2,157.9,151.15,158.25,151.11z"/>
		<path class="st0" d="M158.25,151.11c-0.35,0.04-0.7,0.09-1.05,0.14c0.3,0.09,0.59,0.19,0.89,0.31c0.02-0.03,0.04-0.05,0.06-0.08
			C158.24,151.36,158.27,151.23,158.25,151.11z"/>
		<path class="st0" d="M132.96,167.97c0.07,0,0.13-0.02,0.18-0.06c0.03-0.07,0.04-0.14,0.03-0.22
			C133.1,167.79,133.03,167.88,132.96,167.97z"/>
		<path class="st0" d="M133.14,167.92c0.13-0.08,0.19-0.24,0.17-0.4c-0.05,0.06-0.09,0.12-0.14,0.18
			C133.18,167.77,133.17,167.84,133.14,167.92z"/>
		<path class="st0" d="M132.96,167.97c-0.08,0.1-0.16,0.2-0.24,0.31c-0.29,0.38-0.77,0.04-0.76-0.35c-0.06,0-0.12-0.01-0.18-0.01
			c-0.25,0.2-0.49,0.41-0.72,0.62c0.04,0.16-0.01,0.34-0.21,0.44c-0.2,0.1-0.37,0.22-0.57,0.32c-1.89,2-3.16,4.39-4.43,7
			c-1.12,2.29-2.27,4.56-3.47,6.8c0,0.11-0.01,0.22-0.01,0.33c0.01,0.28-0.19,0.42-0.4,0.45c-1.37,2.53-2.8,5.02-4.32,7.47
			c-0.02,0.03-0.06,0.09-0.09,0.13c0.01,0.06,0.02,0.12,0,0.18c0.13,0.22,0.05,0.48-0.15,0.62c-0.02,0.02-0.04,0.03-0.07,0.05
			c-0.12,0.09-0.26,0.08-0.39,0.04c-1.55,2.24-5.34,7.47-9.36,12.58c-0.05,0.25-0.1,0.5-0.1,0.74c-0.01,0.44-0.51,0.56-0.77,0.36
			c-5.24,6.58-10.61,12.56-11.75,11.11c-0.1-0.12-0.08-0.48,0-0.96c-0.1-0.21-0.04-0.41,0.1-0.53c0.39-1.82,1.34-4.68,1.45-5.37
			c0.17-1.02,0.31-2.04,0.44-3.06c-0.3-0.05-0.56-0.45-0.31-0.78c0.16-0.21,0.33-0.41,0.5-0.61c0.1-0.73,0.19-1.46,0.29-2.19
			c-0.19-0.19-0.24-0.53,0.04-0.73c0.03-0.02,0.05-0.04,0.07-0.06c0.39-2.81,0.87-5.6,1.63-8.31c-0.26-0.12-0.41-0.46-0.16-0.71
			c0.17-0.17,0.34-0.34,0.51-0.51c0.51-1.6,1.17-3.16,1.97-4.67c-0.24-0.13-0.39-0.45-0.14-0.7c0.33-0.33,0.68-0.62,1.03-0.88
			c1.67-2.72,3.82-5.46,6.3-7.99c-0.1-0.26,0.02-0.64,0.39-0.68c0.11-0.01,0.22-0.03,0.33-0.04c6.19-6.03,14.3-10.64,22.32-10.44
			c0.08-0.06,0.16-0.13,0.24-0.19c0.01-0.03,0.02-0.05,0.04-0.08c0.16-0.21,0.32-0.41,0.48-0.61c-11.78-0.77-22.87,8.49-29.48,17.49
			c-7.34,9.99-5.59,22.62-9.46,33.86c-0.14,0.41,0.37,0.67,0.69,0.49c8.63-4.73,14.69-13.08,20.18-21.03
			c3.11-4.5,5.97-9.16,8.57-13.97c2.87-5.31,4.87-12.13,9.96-15.76c0.08-0.06,0.13-0.13,0.16-0.21
			C133.09,167.95,133.03,167.97,132.96,167.97z"/>
		<path class="st0" d="M131.96,167.93c0-0.07,0.02-0.13,0.05-0.2c-0.08,0.06-0.16,0.12-0.24,0.19
			C131.83,167.92,131.89,167.93,131.96,167.93z"/>
		<path class="st0" d="M132.87,167.06c-0.11-0.01-0.23-0.01-0.34-0.02c-0.16,0.21-0.32,0.4-0.48,0.61
			c-0.02,0.02-0.02,0.05-0.04,0.08c0.16-0.13,0.31-0.26,0.49-0.38c0.32-0.23,0.64,0.04,0.67,0.35c0.05-0.06,0.09-0.12,0.14-0.18
			C133.29,167.3,133.14,167.09,132.87,167.06z"/>
		<path class="st0" d="M132.89,167.98c0.03,0,0.04-0.01,0.07-0.01c0.07-0.09,0.14-0.18,0.21-0.27c-0.04-0.31-0.35-0.58-0.67-0.35
			c-0.17,0.12-0.32,0.26-0.49,0.38c-0.03,0.07-0.05,0.13-0.05,0.2C132.27,167.94,132.58,167.95,132.89,167.98z"/>
		<path class="st0" d="M131.96,167.93c-0.01,0.39,0.47,0.73,0.76,0.35c0.08-0.1,0.16-0.2,0.24-0.31c-0.02,0-0.04,0.01-0.07,0.01
			C132.58,167.95,132.27,167.94,131.96,167.93z"/>
		<path class="st0" d="M248.27,136.66c-0.11-0.37-0.22-0.75-0.32-1.12c-0.49-0.12-1-0.17-1.54-0.12c-0.15,0.01-0.26,0.08-0.33,0.18
			c0.06,0.24,0.12,0.48,0.19,0.72c0.05,0.01,0.1,0.02,0.16,0.02C247.05,136.28,247.66,136.42,248.27,136.66z"/>
		<path class="st0" d="M246.27,136.32c-0.07-0.24-0.14-0.48-0.19-0.72C245.9,135.84,245.97,136.24,246.27,136.32z"/>
		<path class="st0" d="M221.52,149.03c0.2-0.17,0.45-0.13,0.62,0c2.23-1.18,4.6-2.08,7.11-2.61c0.29-0.17,0.57-0.35,0.88-0.51
			c0.28-0.15,0.55,0.02,0.66,0.23c0.01,0,0.01,0,0.02,0c2.84-0.41,5.88-0.62,8.84-0.47c0.04-0.02,0.09-0.04,0.13-0.06
			c0.23-0.13,0.44-0.04,0.58,0.11c1.33,0.1,2.64,0.26,3.9,0.53c0.12-0.06,0.24-0.12,0.37-0.16c0.31-0.1,0.52,0.12,0.56,0.37
			c1.78,0.43,3.28,0.85,4.91,0.72c0.07-0.16,0.13-0.33,0.21-0.49c0.23-0.51,0.94-0.15,0.83,0.34c0.04-0.01,0.08-0.01,0.12-0.02
			c-0.09-0.3-0.17-0.6-0.26-0.91c-4,0.83-8.97-1.4-13.03-1.33c-1.24,0.02-2.5,0.06-3.75,0.13c0.11,0.31-0.11,0.73-0.51,0.6
			c-0.45-0.14-0.9-0.3-1.35-0.46c-2.35,0.22-4.68,0.63-6.9,1.43c-0.22,0.08-0.43,0.17-0.65,0.25c0.22,0.23,0.23,0.66-0.16,0.73
			c-0.7,0.12-1.4,0.21-2.1,0.27c-2.13,1.05-4.14,2.37-6.01,3.87c0.4,0.04,0.67,0.6,0.23,0.82c-0.85,0.43-1.74,0.87-2.65,1.29
			c-2.07,1.95-3.94,4.1-5.58,6.34c0.23,0.25,0.48,0.41,0.76,0.5c3.08-4.17,6.91-7.97,11.36-10.65
			C220.93,149.59,221.21,149.3,221.52,149.03z"/>
		<path class="st0" d="M208.52,160.03c-0.08,0.11-0.16,0.22-0.24,0.32c-0.34,0.47,0.33,1.1,0.67,0.62c0.11-0.15,0.22-0.3,0.33-0.45
			C209,160.44,208.75,160.28,208.52,160.03z"/>
		<path class="st0" d="M249.51,150.23c0.94-0.92,1.09-1.96,1.6-3.11c0.01-0.03,0.01-0.06,0.02-0.09c-0.35,0.08-0.7,0.13-1.04,0.15
			c-0.48,1.18-0.8,2.18-2.01,3c-0.92,0.62-1.61,1.27-2.09,2.25c0.3,0.09,0.6,0.17,0.9,0.24
			C247.55,151.58,248.58,151.14,249.51,150.23z"/>
		<path class="st0" d="M245.86,152.7c-0.23,0.54,0.58,0.98,0.81,0.43c0.07-0.17,0.15-0.32,0.23-0.46c-0.3-0.07-0.6-0.15-0.9-0.24
			C245.96,152.52,245.9,152.6,245.86,152.7z"/>
		<path class="st0" d="M250.3,146.69c-0.08,0.17-0.14,0.33-0.21,0.49c0.34-0.03,0.68-0.08,1.04-0.15
			C251.25,146.54,250.53,146.19,250.3,146.69z"/>
		<path class="st0" d="M244.89,146.97c0.25-0.08,0.33-0.3,0.3-0.5c-0.25-0.06-0.5-0.12-0.76-0.18c-0.06-0.01-0.11-0.02-0.17-0.03
			c-0.76,0.35-1.29,0.9-1.63,1.71c-0.45,1.09-1.38,1.6-2.08,2.45c0.29,0.11,0.59,0.24,0.9,0.36c0.5-0.51,1.13-0.89,1.55-1.48
			C243.63,148.39,243.68,147.36,244.89,146.97z"/>
		<path class="st0" d="M240.32,150.7c-0.33,0.49,0.48,0.91,0.81,0.43c0.09-0.13,0.2-0.24,0.31-0.36c-0.31-0.12-0.61-0.24-0.9-0.36
			C240.46,150.5,240.39,150.59,240.32,150.7z"/>
		<path class="st0" d="M244.62,146.09c-0.13,0.04-0.25,0.11-0.37,0.16c0.06,0.01,0.11,0.02,0.17,0.03c0.26,0.06,0.51,0.12,0.76,0.18
			C245.15,146.21,244.93,145.99,244.62,146.09z"/>
		<path class="st0" d="M236.91,147.61c1.2-0.21,2.29-0.63,3.35-1.23c0.29-0.16,0.26-0.47,0.09-0.66c-0.24-0.02-0.47-0.04-0.71-0.05
			c-1.79,0.95-3.63,0.84-5.49,1.46c-1.02,0.34-1.71,0.99-2.07,1.99c-0.02,0.05-0.02,0.1-0.02,0.14c0.33-0.04,0.67-0.08,1-0.11
			C233.73,147.7,235.58,147.84,236.91,147.61z"/>
		<path class="st0" d="M232.97,149.34c0.02-0.07,0.06-0.11,0.09-0.17c-0.33,0.03-0.67,0.06-1,0.11
			C232.06,149.71,232.8,149.83,232.97,149.34z"/>
		<path class="st0" d="M239.78,145.61c-0.04,0.02-0.09,0.04-0.13,0.06c0.24,0.01,0.47,0.03,0.71,0.05
			C240.22,145.57,240,145.48,239.78,145.61z"/>
		<path class="st0" d="M224.69,151.33c0.19,0.08,0.35,0.07,0.49,0.03c-0.14-0.24-0.43-0.34-0.77-0.27c-0.4,0.08-0.39,0.52-0.16,0.74
			c0.04-0.02,0.08-0.04,0.11-0.06C224.48,151.63,224.59,151.48,224.69,151.33z"/>
		<path class="st0" d="M225.67,150.72c0.19-0.25,0.39-0.49,0.6-0.72c0.36-0.41,0.75-0.8,1.16-1.16c0.97-0.87,2.04-1.56,3.19-2.15
			c0.24-0.12,0.26-0.35,0.17-0.54c-0.52,0.07-1.03,0.17-1.53,0.27c-1.69,1-3.2,2.28-4.39,3.86c-0.29,0.39-0.99,1.01-0.76,1.56
			c0.01,0.02,0.03,0.03,0.04,0.05c0.04-0.02,0.08-0.04,0.12-0.07c-0.23-0.23-0.24-0.66,0.16-0.74c0.33-0.07,0.63,0.03,0.77,0.27
			c0.03-0.01,0.07-0.01,0.1-0.03c0.01-0.01,0.03-0.01,0.04-0.02C225.48,151.21,225.6,151.01,225.67,150.72z"/>
		<path class="st0" d="M224.69,151.33c-0.11,0.15-0.22,0.3-0.32,0.45c0.27-0.14,0.55-0.27,0.83-0.4c0-0.01-0.01-0.01-0.01-0.01
			C225.05,151.4,224.89,151.4,224.69,151.33z"/>
		<path class="st0" d="M225.33,151.31c-0.01,0.01-0.03,0.01-0.04,0.02C225.3,151.33,225.31,151.32,225.33,151.31z"/>
		<path class="st0" d="M224.68,151.97c-0.1-0.06-0.21-0.13-0.31-0.19c0,0,0,0,0,0c-0.04,0.02-0.08,0.04-0.11,0.06
			C224.36,151.94,224.5,152,224.68,151.97z"/>
		<path class="st0" d="M224.37,151.78c0.1,0.06,0.21,0.13,0.31,0.19c-0.18,0.04-0.32-0.03-0.42-0.13c-0.04,0.02-0.08,0.04-0.12,0.07
			c0.17,0.32,0.49,0.41,0.83,0.3c0.2-0.06,0.32-0.25,0.32-0.45c0.01-0.16-0.03-0.28-0.09-0.38
			C224.92,151.51,224.65,151.64,224.37,151.78C224.37,151.78,224.37,151.78,224.37,151.78z"/>
		<path class="st0" d="M230.13,145.91c-0.3,0.16-0.59,0.34-0.88,0.51c0.51-0.11,1.02-0.2,1.53-0.27
			C230.67,145.93,230.41,145.77,230.13,145.91z"/>
		<path class="st0" d="M222.19,149.66c0.24-0.21,0.15-0.48-0.05-0.63c-0.51,0.27-1.01,0.55-1.5,0.85c-1.61,1.6-2.87,3.48-3.7,5.61
			c-0.12,0.31,0.1,0.59,0.34,0.66c0.17-0.12,0.35-0.24,0.52-0.36C218.76,153.4,220.23,151.33,222.19,149.66z"/>
		<path class="st0" d="M217.75,155.92c0.02-0.04,0.04-0.08,0.06-0.13c-0.17,0.12-0.35,0.24-0.52,0.36
			C217.47,156.21,217.66,156.16,217.75,155.92z"/>
		<path class="st0" d="M221.52,149.03c-0.31,0.27-0.59,0.56-0.88,0.85c0.49-0.3,0.99-0.58,1.5-0.85
			C221.97,148.9,221.72,148.86,221.52,149.03z"/>
		<path class="st0" d="M207.69,155.64c2.16-0.18,4.35-1,6.41-1.94c0.78-0.73,1.59-1.44,2.42-2.1c-0.08-0.01-0.17,0-0.26,0.04
			c-2.57,1.29-5.68,2.84-8.59,3.09c-0.03,0-0.04,0.01-0.07,0.02c-0.1,0.24-0.2,0.47-0.28,0.72
			C207.39,155.57,207.51,155.65,207.69,155.64z"/>
		<path class="st0" d="M207.32,155.46c0.09-0.24,0.18-0.48,0.28-0.72C207.26,154.82,207.17,155.22,207.32,155.46z"/>
		<path class="st0" d="M216.75,152.41c0.44-0.22,0.17-0.78-0.23-0.82c-0.83,0.67-1.64,1.37-2.42,2.1
			C215.01,153.28,215.9,152.84,216.75,152.41z"/>
		<path class="st0" d="M214.66,146.57c2.53,1.14,5.18,1.39,7.87,1.15c0.74-0.37,1.49-0.7,2.26-1c-0.1-0.11-0.25-0.18-0.43-0.15
			c-3.14,0.54-6.32,0.52-9.27-0.81c-0.07-0.03-0.13-0.04-0.19-0.04c-0.16,0.13-0.32,0.26-0.47,0.39
			C214.39,146.29,214.45,146.48,214.66,146.57z"/>
		<path class="st0" d="M214.43,146.12c0.16-0.13,0.31-0.26,0.47-0.39C214.67,145.72,214.48,145.91,214.43,146.12z"/>
		<path class="st0" d="M224.63,147.45c0.4-0.07,0.39-0.49,0.16-0.73c-0.77,0.3-1.52,0.63-2.26,1
			C223.23,147.66,223.93,147.58,224.63,147.45z"/>
		<path class="st0" d="M233.91,144.61c-1.01-0.32-2.01-0.68-3-1.08c-0.88-0.36-1.8-0.69-2.43-1.43c-0.38-0.45-1,0.23-0.62,0.67
			c0.68,0.81,1.66,1.17,2.62,1.56c0.62,0.25,1.24,0.48,1.87,0.7c0.62-0.06,1.24-0.11,1.86-0.14
			C234.16,144.77,234.07,144.66,233.91,144.61z"/>
		<path class="st0" d="M233.7,145.5c0.4,0.13,0.61-0.28,0.51-0.6c-0.62,0.04-1.24,0.08-1.86,0.14
			C232.79,145.2,233.24,145.35,233.7,145.5z"/>
		<path class="st0" d="M242.45,143.31c0.17,0.02,0.35,0.04,0.52,0.06C242.82,143.25,242.63,143.21,242.45,143.31z"/>
		<path class="st0" d="M206.08,130.71c-0.41-0.26-0.83-0.53-1.24-0.79c-0.02,0.24-0.21,0.4-0.44,0.42c-0.1,0.01-0.21,0.02-0.31,0.03
			c0.36,0.23,0.71,0.46,1.07,0.69c0.03-0.01,0.06-0.03,0.1-0.04C205.55,130.9,205.83,130.82,206.08,130.71z"/>
		<path class="st0" d="M201.5,127.75c-0.01,0.23-0.22,0.45-0.44,0.44c-0.09,0-0.19-0.01-0.28-0.01c0.72,0.49,1.45,0.97,2.18,1.45
			c0.27-0.1,0.5-0.25,0.66-0.49C202.9,128.68,202.19,128.22,201.5,127.75z"/>
		<path class="st0" d="M212.87,135.65c-0.89-0.82-1.84-1.56-2.82-2.27c0.05,0.25,0.12,0.5,0.2,0.74c0.06,0.18,0.01,0.33-0.1,0.43
			c0.61,0.48,1.21,0.99,1.79,1.51c0.26,0.1,0.51,0.23,0.77,0.34C212.99,136.29,213.16,135.92,212.87,135.65z"/>
		<path class="st0" d="M187.89,113.79c0.92,1.06,1.79,2.15,2.64,3.27c-0.39-0.73-0.75-1.47-1.06-2.22
			c-1.48-2.69-2.58-5.61-3.22-8.75c-0.36-0.26-0.56-0.11-0.83,0.42C185.95,109.07,186.79,111.5,187.89,113.79z"/>
		<path class="st0" d="M207.08,131.34c-0.33,0.11-0.64,0.23-0.96,0.35c1.06,0.7,2.1,1.43,3.12,2.18c-0.1-0.4-0.17-0.81-0.21-1.24
			C208.39,132.2,207.74,131.77,207.08,131.34z"/>
		<path class="st0" d="M212.25,136.33c0.15,0.14,0.32,0.14,0.46,0.08c-0.26-0.11-0.51-0.23-0.77-0.34
			C212.04,136.16,212.15,136.24,212.25,136.33z"/>
		<path class="st0" d="M188.38,109.74c-0.04,1.83,0.42,3.49,1.09,5.09c1.03,1.87,2.24,3.64,3.62,5.3c0.04-0.11,0.04-0.24-0.03-0.37
			c-1.69-3.15-3.75-6.17-3.75-9.86c-0.14-0.2-0.28-0.41-0.42-0.61C188.64,109.28,188.39,109.43,188.38,109.74z"/>
		<path class="st0" d="M191.14,119.18c-1.26-1.7-2.34-3.5-3.25-5.39c-1.18-1.37-2.41-2.69-3.71-3.97c-0.07-0.07-0.14-0.1-0.22-0.11
			c-0.12,0.27-0.25,0.54-0.37,0.82c2.65,2.63,5.07,5.44,7.26,8.47C190.93,119.11,191.04,119.16,191.14,119.18z"/>
		<path class="st0" d="M193.99,122.92c0.13,0.11,0.28,0.12,0.41,0.08c-0.9-0.92-1.74-1.89-2.53-2.89c-3.03-2.26-6.21-4.3-9.55-6.1
			c-0.05-0.03-0.1-0.04-0.14-0.04c-0.1,0.28-0.2,0.56-0.3,0.84c0,0,0,0,0.01,0.01C186.18,117.14,190.21,119.83,193.99,122.92z"/>
		<path class="st0" d="M193.77,115.33c0.88,2.72,1.7,5.45,2.48,8.2c0.42,0.4,0.84,0.79,1.27,1.17c0-0.03,0-0.06-0.01-0.09
			c-0.81-2.9-1.68-5.78-2.59-8.65c-0.37-0.33-0.75-0.66-1.11-1C193.74,115.06,193.72,115.19,193.77,115.33z"/>
		<path class="st0" d="M187.67,121.9c3.11,0.76,5.98,1.9,8.69,3.61c0.25,0.16,0.48,0.03,0.59-0.17c-0.6-0.49-1.17-1.02-1.74-1.56
			c-1.85-1.02-3.79-1.83-5.84-2.39c-2.81-0.77-5.64-1.21-8.08-2.92c-0.12-0.08-0.24-0.1-0.34-0.06c-0.05,0.28-0.09,0.56-0.12,0.84
			c0.01,0.01,0.02,0.02,0.03,0.03C182.93,120.72,185.25,121.3,187.67,121.9z"/>
		<path class="st0" d="M199.93,125.65c0.01,0.48,0.03,0.79,0.03,1.01c0.51,0.37,1.02,0.74,1.54,1.1c0-0.05,0.01-0.1-0.01-0.15
			c-1-2.31-1.15-5.09-1.48-7.62c-0.33-0.23-0.65-0.45-0.98-0.69c-0.01,0.05-0.02,0.11-0.01,0.17
			C199.3,121.44,199.89,123.64,199.93,125.65z"/>
		<path class="st0" d="M200.77,128.18c-0.51-0.35-1.01-0.7-1.52-1.07c-0.18,0.01-0.38,0.02-0.65,0.05c-1.68,0.21-3.64-0.28-5.3-0.61
			c-4.26-0.86-7.89-3.52-12.28-3.77c-0.04,0-0.07,0.01-0.1,0.01c0.06,0.31,0.14,0.62,0.23,0.91c3.67,0.24,6.71,2.33,10.18,3.32
			C194.4,127.9,197.61,128.04,200.77,128.18z"/>
		<path class="st0" d="M201.5,127.75c-0.52-0.35-1.03-0.72-1.54-1.1c0,0.48-0.12,0.44-0.7,0.46c0.5,0.36,1.01,0.72,1.52,1.07
			c0.09,0,0.19,0.01,0.28,0.01C201.28,128.2,201.49,127.98,201.5,127.75z"/>
		<path class="st0" d="M204.09,130.37c-0.38-0.25-0.76-0.5-1.14-0.74c-0.79,0.3-1.95,0.17-2.92,0.3c-2.76,0.37-3.79,1.84-5.88,3.53
			c-0.11,0.09-0.16,0.2-0.18,0.32c0.32,0.08,0.64,0.15,0.95,0.21c1.11-0.97,2.07-2.18,3.43-2.75
			C200.02,130.55,202.26,130.55,204.09,130.37z"/>
		<path class="st0" d="M203.01,122.72c0.42,1.74,0.94,3.72,0.87,5.54c-0.01,0.38-0.11,0.67-0.26,0.88c0.41,0.26,0.82,0.52,1.23,0.78
			c0-0.02,0.01-0.03,0.01-0.05c-0.05-2.48-0.37-4.9-0.94-7.31c-0.2-0.13-0.39-0.26-0.59-0.38
			C203.11,122.25,202.94,122.45,203.01,122.72z"/>
		<path class="st0" d="M194.64,134.23c0.1-0.08,0.19-0.16,0.28-0.24c-0.31-0.06-0.63-0.13-0.95-0.21
			C193.93,134.14,194.29,134.51,194.64,134.23z"/>
		<path class="st0" d="M204.84,129.92c-0.41-0.26-0.82-0.52-1.23-0.78c-0.16,0.23-0.39,0.38-0.66,0.49c0.38,0.25,0.76,0.5,1.14,0.74
			c0.1-0.01,0.21-0.02,0.31-0.03C204.63,130.31,204.82,130.15,204.84,129.92z"/>
		<path class="st0" d="M205.16,131.06c-1.71,0.72-3.25,1.72-4.68,2.91c-0.12,0.1-0.16,0.21-0.14,0.32c0.41-0.01,0.82-0.02,1.24-0.02
			c1.39-1.09,2.9-1.94,4.54-2.58C205.8,131.48,205.48,131.27,205.16,131.06z"/>
		<path class="st0" d="M206.63,124.81c0.04,1.23,0.05,2.47,0.04,3.7c0,0.41,0.17,1.3-0.03,1.68c-0.14,0.27-0.34,0.41-0.56,0.52
			c0.33,0.21,0.66,0.42,0.99,0.63c0.05-0.02,0.09-0.04,0.14-0.05c0.2-0.06,0.32-0.25,0.32-0.45c0.06-1.9,0.06-3.8,0.01-5.69
			c-0.27-0.21-0.54-0.42-0.82-0.63C206.67,124.59,206.63,124.68,206.63,124.81z"/>
		<path class="st0" d="M201.16,134.59c0.14-0.11,0.28-0.21,0.42-0.32c-0.42,0.01-0.83,0.01-1.24,0.02
			C200.38,134.6,200.83,134.87,201.16,134.59z"/>
		<path class="st0" d="M206.08,130.71c-0.25,0.12-0.54,0.19-0.83,0.31c-0.03,0.01-0.06,0.03-0.1,0.04c0.32,0.21,0.64,0.42,0.96,0.63
			c0.32-0.12,0.63-0.25,0.96-0.35C206.75,131.13,206.42,130.92,206.08,130.71z"/>
		<path class="st0" d="M209.47,127.85c-0.29,1.5-0.57,3.2-0.44,4.79c0.35,0.24,0.68,0.49,1.02,0.74c-0.35-1.71-0.02-3.68,0.3-5.32
			c0.02-0.11,0-0.2-0.04-0.28c-0.06-0.07-0.11-0.13-0.17-0.19C209.91,127.44,209.54,127.49,209.47,127.85z"/>
		<path class="st0" d="M209.38,134.39c0.13,0.37,0.56,0.37,0.78,0.16c-0.3-0.23-0.61-0.45-0.92-0.68
			C209.28,134.05,209.32,134.22,209.38,134.39z"/>
		<path class="st0" d="M210.15,127.58c0.06,0.06,0.11,0.13,0.17,0.19C210.28,127.7,210.22,127.63,210.15,127.58z"/>
		<path class="st0" d="M209.24,133.88c0.31,0.23,0.62,0.44,0.92,0.68c0.1-0.1,0.16-0.25,0.1-0.43c-0.08-0.24-0.15-0.49-0.2-0.74
			c-0.34-0.25-0.68-0.5-1.02-0.74C209.06,133.06,209.13,133.48,209.24,133.88z"/>
		<path class="st0" d="M161.95,161.53c-0.75,0.49-1.52,0.95-2.3,1.36c-0.22,0.27-0.43,0.54-0.64,0.81c-0.02,0.05-0.05,0.1-0.09,0.14
			c-0.01,0.01-0.02,0.02-0.03,0.03c0.23,0.13,0.38,0.45,0.16,0.73c-1.35,1.72-2.7,3.43-4.05,5.15c-0.73,1.27-1.43,2.55-2.07,3.86
			c-0.32,0.64-0.64,1.31-0.96,1.97c0.29-0.04,0.62,0.17,0.52,0.54c-0.08,0.26-0.16,0.52-0.24,0.79c0.99-2.04,2.02-3.99,3.02-5.79
			c1.72-3.11,3.86-5.82,6.11-8.43c0.18-0.31,0.36-0.62,0.53-0.93C161.93,161.68,161.94,161.6,161.95,161.53z"/>
		<path class="st0" d="M149.02,184.36c0.6-2.39,1.43-4.76,2.17-7.12c-3.17,6.76-6.18,14.53-6.06,21.76
			c0.16,0.81,0.34,1.35,0.51,1.34c0.14-0.01,0.27-0.06,0.4-0.12c0.02-0.05,0.03-0.12,0.03-0.19
			C145.77,195.02,147.07,189.59,149.02,184.36z"/>
		<path class="st0" d="M166.05,155.72c-1.52,1.7-3.11,3.33-4.66,5.07c0.16-0.11,0.33-0.2,0.49-0.31c0.27-0.18,0.53-0.03,0.64,0.2
			c0.46-0.81,0.92-1.63,1.35-2.44c0.05-0.1,0.13-0.16,0.21-0.19c0.12-0.5,0.93-0.29,0.87,0.27c-0.01,0.11-0.02,0.22-0.03,0.33
			c0.57-0.65,1.13-1.3,1.69-1.96c0.01-0.41,0.02-0.82,0.04-1.24C166.45,155.55,166.25,155.64,166.05,155.72z"/>
		<path class="st0" d="M170.51,150.07c0.09-0.01,0.18-0.02,0.27-0.03C170.69,150.02,170.6,150.03,170.51,150.07z"/>
		<path class="st0" d="M170.87,151.03c0.02-0.03,0.04-0.07,0.07-0.1c-0.05,0.01-0.1,0.01-0.15,0.02
			C170.82,150.97,170.84,151,170.87,151.03z"/>
		<path class="st0" d="M167.88,154.9c-0.12,0.06-0.24,0.1-0.35,0.16c0.03,0.06,0.04,0.12,0.04,0.21c0,0.1-0.01,0.19-0.01,0.29
			c0.96-1.18,1.89-2.4,2.75-3.68c-0.05-0.1-0.1-0.2-0.16-0.3c-0.14-0.23-0.05-0.44,0.11-0.58c-0.17,0.02-0.35,0.04-0.52,0.06
			c-0.72,1.07-1.49,2.08-2.29,3.05C167.95,153.94,168.38,154.65,167.88,154.9z"/>
		<path class="st0" d="M170.29,150.25c-0.18,0.28-0.36,0.54-0.55,0.82c0.17-0.02,0.35-0.04,0.52-0.06c0.15-0.12,0.36-0.17,0.53-0.06
			c0.05-0.01,0.1-0.01,0.15-0.02c0.05-0.08,0.11-0.16,0.16-0.25c0.19-0.31-0.04-0.58-0.31-0.64c-0.09,0.01-0.18,0.02-0.27,0.03
			C170.43,150.1,170.35,150.15,170.29,150.25z"/>
		<path class="st0" d="M145.64,200.33c-0.18,0.01-0.35-0.53-0.51-1.34c0.01,0.35,0.01,0.71,0.03,1.06c0.03,0.52,0.74,0.56,0.89,0.16
			C145.91,200.28,145.78,200.32,145.64,200.33z"/>
		<path class="st0" d="M151.6,175.91c-0.13,0.44-0.27,0.89-0.41,1.33c0.26-0.56,0.52-1.11,0.79-1.66
			C151.82,175.61,151.66,175.7,151.6,175.91z"/>
		<path class="st0" d="M149.02,184.36c-0.9,3.59-1.29,7.22-0.09,10.92c0.04,0.12,0.11,0.19,0.19,0.24c0.19-0.3,0.39-0.6,0.58-0.9
			c-1.75-6,0.76-11.96,2.55-17.72C151.09,179.29,149.98,181.8,149.02,184.36z"/>
		<path class="st0" d="M149.81,195.02c-0.04-0.13-0.07-0.26-0.11-0.4c-0.19,0.3-0.39,0.6-0.58,0.9
			C149.43,195.71,149.95,195.46,149.81,195.02z"/>
		<path class="st0" d="M151.98,175.58c-0.26,0.54-0.52,1.1-0.79,1.66c-0.75,2.36-1.57,4.73-2.17,7.12c0.96-2.56,2.07-5.07,3.23-7.46
			c0.08-0.26,0.16-0.52,0.24-0.79C152.6,175.75,152.27,175.54,151.98,175.58z"/>
		<path class="st0" d="M162.69,161.19c0.12,0.1,0.2,0.24,0.17,0.43c-0.03,0.18-0.06,0.36-0.09,0.54c0.38-0.68,0.74-1.36,1.11-2.04
			c0.01-0.11,0.02-0.22,0.03-0.33C163.51,160.26,163.1,160.72,162.69,161.19z"/>
		<path class="st0" d="M161.37,164.7c0.18-0.85,0.34-1.7,0.48-2.56c-0.16,0.18-0.32,0.36-0.47,0.55c-2.01,3.5-4.06,7.04-5.41,10.74
			c-1.49,4.06-1.54,8.69-1.24,12.95c0.02,0.26,0.22,0.4,0.42,0.42c0.16-0.21,0.32-0.42,0.48-0.63c-0.34-5.03,0-9.93,2.15-14.55
			C158.88,169.27,160.11,166.98,161.37,164.7z"/>
		<path class="st0" d="M155.64,186.35c0-0.06-0.01-0.13-0.01-0.19c-0.16,0.21-0.32,0.42-0.48,0.63
			C155.4,186.82,155.66,186.68,155.64,186.35z"/>
		<path class="st0" d="M162.52,161.09c0.06,0.02,0.12,0.05,0.17,0.09c0.41-0.46,0.82-0.93,1.23-1.39c0.04-0.56,0.08-1.12,0.14-1.68
			c0-0.02,0.01-0.04,0.02-0.06c-0.08,0.04-0.16,0.09-0.21,0.19c-0.43,0.81-0.89,1.62-1.35,2.44
			C162.58,160.82,162.59,160.96,162.52,161.09z"/>
		<path class="st0" d="M161.38,162.68c0.16-0.18,0.31-0.37,0.47-0.55c0.02-0.13,0.04-0.26,0.06-0.38
			C161.74,162.06,161.56,162.37,161.38,162.68z"/>
		<path class="st0" d="M164.92,158.66c-0.2,0.23-0.4,0.46-0.61,0.69c-0.14,0.26-0.28,0.52-0.43,0.78
			c-0.27,4.67,0.35,9.23,1.88,13.71c0.06,0.19,0.2,0.27,0.36,0.3c0.17-0.18,0.35-0.36,0.52-0.54c0-0.01,0-0.02,0-0.02
			C164.98,168.71,164.4,163.75,164.92,158.66z"/>
		<path class="st0" d="M166.65,173.59c-0.18,0.18-0.35,0.36-0.52,0.54C166.42,174.18,166.75,173.95,166.65,173.59z"/>
		<path class="st0" d="M164.08,158.06c0.34-0.15,0.82,0.2,0.6,0.62c-0.12,0.22-0.24,0.44-0.36,0.66c0.2-0.23,0.41-0.46,0.61-0.69
			c0.01-0.11,0.02-0.22,0.03-0.33C165.01,157.77,164.2,157.56,164.08,158.06z"/>
		<path class="st0" d="M163.89,160.13c0.14-0.26,0.29-0.52,0.43-0.78c-0.13,0.15-0.26,0.3-0.4,0.45
			C163.91,159.91,163.89,160.02,163.89,160.13z"/>
		<path class="st0" d="M164.08,158.06c0,0.02-0.02,0.03-0.02,0.06c-0.06,0.56-0.1,1.12-0.14,1.68c0.13-0.15,0.26-0.3,0.4-0.45
			c0.12-0.22,0.24-0.44,0.36-0.66C164.9,158.26,164.42,157.91,164.08,158.06z"/>
		<path class="st0" d="M167.56,155.56c-0.31,0.38-0.63,0.77-0.95,1.14c-0.13,4.81,0.04,9.24,3.19,13.27
			c0.05,0.07,0.12,0.11,0.19,0.14c0.2-0.21,0.39-0.42,0.59-0.63c0,0,0,0,0,0C167.29,165.28,167.39,160.6,167.56,155.56z"/>
		<path class="st0" d="M170.57,169.48c-0.19,0.21-0.39,0.42-0.59,0.63C170.36,170.28,170.87,169.88,170.57,169.48z"/>
		<path class="st0" d="M167.52,155.06c-0.29,0.14-0.58,0.27-0.88,0.4c-0.01,0.42-0.03,0.83-0.04,1.24c0.32-0.38,0.64-0.76,0.95-1.14
			c0-0.1,0.01-0.19,0.01-0.29C167.57,155.19,167.55,155.12,167.52,155.06z"/>
		<path class="st0" d="M166.05,155.72c0.47-0.53,0.94-1.07,1.4-1.61c-0.02,0.01-0.04,0.01-0.06,0.02
			c-4.14,2.05-8.55,2.91-13.11,2.65c-0.19,0.29-0.38,0.58-0.57,0.88C158,157.99,162.13,157.34,166.05,155.72z"/>
		<path class="st0" d="M152.87,157.17c0.1-0.15,0.19-0.3,0.29-0.44C152.94,156.77,152.84,156.97,152.87,157.17z"/>
		<path class="st0" d="M153.31,157.63c0.13,0.01,0.27,0.01,0.4,0.02c0.19-0.3,0.38-0.59,0.57-0.88c-0.33-0.02-0.66-0.03-0.99-0.06
			c-0.05,0-0.09,0.01-0.13,0.01c-0.1,0.15-0.19,0.3-0.29,0.44C152.89,157.39,153.03,157.6,153.31,157.63z"/>
		<path class="st0" d="M166.65,155.29c0.02-0.51,0.7-0.59,0.87-0.23c0.12-0.06,0.24-0.1,0.35-0.16c0.51-0.25,0.07-0.96-0.43-0.79
			c-0.46,0.55-0.92,1.09-1.4,1.61c0.2-0.08,0.39-0.18,0.59-0.26C166.65,155.41,166.65,155.35,166.65,155.29z"/>
		<path class="st0" d="M166.65,155.29c0,0.06,0,0.11-0.01,0.17c0.29-0.13,0.59-0.26,0.88-0.4
			C167.35,154.7,166.67,154.79,166.65,155.29z"/>
		<path class="st0" d="M162.77,162.16c-0.47,0.84-0.94,1.69-1.4,2.53c-1.1,5.22-2.71,10.35-2.05,15.75c0.04,0.34,0.37,0.47,0.63,0.4
			c0.09-0.11,0.19-0.22,0.28-0.33c0-0.03,0.01-0.06,0.01-0.1C159.46,174.17,161.8,168.26,162.77,162.16z"/>
		<path class="st0" d="M160.23,180.52c-0.09,0.11-0.19,0.22-0.28,0.33C160.1,180.81,160.21,180.7,160.23,180.52z"/>
		<path class="st0" d="M161.91,161.75c0.06-0.11,0.12-0.21,0.18-0.32c-0.05,0.03-0.1,0.06-0.14,0.09
			C161.94,161.6,161.93,161.68,161.91,161.75z"/>
		<path class="st0" d="M162.69,161.19c-0.28,0.32-0.56,0.63-0.83,0.95c-0.14,0.86-0.3,1.71-0.48,2.56c0.47-0.85,0.94-1.69,1.4-2.53
			c0.03-0.18,0.06-0.36,0.09-0.54C162.89,161.43,162.81,161.28,162.69,161.19z"/>
		<path class="st0" d="M162.52,161.09c-0.03,0.06-0.08,0.12-0.15,0.17c-0.09,0.06-0.19,0.12-0.28,0.18
			c-0.06,0.11-0.12,0.21-0.18,0.32c-0.02,0.13-0.04,0.26-0.06,0.38c0.28-0.32,0.55-0.63,0.83-0.95
			C162.63,161.15,162.58,161.11,162.52,161.09z"/>
		<path class="st0" d="M149.5,165.9c2.85-0.27,5.55-0.95,8.11-2.03c0.21-0.22,0.43-0.42,0.64-0.64c0.22-0.23,0.51-0.15,0.67,0.03
			c0.24-0.12,0.49-0.24,0.73-0.37c0.29-0.36,0.56-0.73,0.85-1.08c0.29-0.34,0.59-0.68,0.89-1.01c-3.58,2.34-7.5,3.74-11.78,4.16
			c-0.14,0.28-0.27,0.56-0.41,0.85C149.28,165.87,149.37,165.91,149.5,165.9z"/>
		<path class="st0" d="M149.48,164.98c-0.46,0.04-0.54,0.61-0.27,0.83c0.13-0.28,0.27-0.57,0.41-0.85
			C149.57,164.97,149.52,164.98,149.48,164.98z"/>
		<path class="st0" d="M161.97,161.41c0.03-0.22,0.17-0.32,0.34-0.34c0.07-0.13,0.14-0.25,0.21-0.38c-0.1-0.23-0.37-0.39-0.64-0.2
			c-0.16,0.11-0.33,0.21-0.49,0.31c-0.3,0.33-0.59,0.67-0.89,1.01c-0.3,0.35-0.57,0.72-0.85,1.08c0.78-0.41,1.55-0.87,2.3-1.36
			C161.96,161.49,161.96,161.45,161.97,161.41z"/>
		<path class="st0" d="M162.52,161.09c0.07-0.13,0.06-0.28,0-0.4c-0.07,0.13-0.14,0.25-0.21,0.38
			C162.37,161.06,162.45,161.07,162.52,161.09z"/>
		<path class="st0" d="M161.97,161.41c-0.01,0.04-0.01,0.08-0.02,0.12c0.05-0.03,0.1-0.06,0.14-0.09c0.07-0.12,0.14-0.25,0.21-0.37
			C162.14,161.09,162,161.19,161.97,161.41z"/>
		<path class="st0" d="M162.3,161.07c-0.07,0.12-0.14,0.25-0.21,0.37c0.09-0.06,0.19-0.11,0.28-0.18c0.07-0.05,0.11-0.1,0.15-0.17
			C162.45,161.07,162.37,161.06,162.3,161.07z"/>
		<path class="st0" d="M146.25,174.44c3.85-2.52,7.39-5.39,10.67-8.59c0.49-0.63,0.98-1.25,1.48-1.88c0.15-0.19,0.34-0.19,0.5-0.11
			c0.04-0.05,0.08-0.1,0.12-0.16c0.07-0.16,0.02-0.33-0.09-0.45c-0.43,0.21-0.87,0.42-1.32,0.61c-3.51,3.62-7.36,6.82-11.57,9.6
			c-0.11,0.31-0.21,0.62-0.31,0.94C145.86,174.52,146.05,174.57,146.25,174.44z"/>
		<path class="st0" d="M145.76,173.66c-0.3,0.2-0.23,0.56-0.03,0.74c0.1-0.31,0.2-0.62,0.31-0.94
			C145.95,173.53,145.85,173.6,145.76,173.66z"/>
		<path class="st0" d="M158.92,163.85c0.04-0.05,0.07-0.09,0.09-0.14c-0.04,0.05-0.08,0.1-0.12,0.16c0,0,0.01,0.01,0.01,0.01
			C158.91,163.86,158.91,163.86,158.92,163.85z"/>
		<path class="st0" d="M158.25,163.22c-0.21,0.22-0.43,0.42-0.64,0.64c0.44-0.19,0.88-0.39,1.32-0.61
			C158.76,163.07,158.47,162.99,158.25,163.22z"/>
		<path class="st0" d="M144.57,181.99c2.72-2.09,4.68-4.93,6.79-7.61c1.22-1.55,2.44-3.09,3.65-4.64c1.15-2.01,2.41-3.94,3.8-5.79
			c-0.62,0.65-1.26,1.27-1.9,1.9c-1.79,2.27-3.58,4.55-5.37,6.82c-2.3,2.92-4.44,6.2-7.41,8.5c-0.03,0.26-0.06,0.52-0.08,0.78
			C144.18,182.09,144.38,182.14,144.57,181.99z"/>
		<path class="st0" d="M144.08,181.22c-0.27,0.21-0.21,0.55-0.03,0.74c0.02-0.26,0.05-0.52,0.08-0.78
			C144.11,181.19,144.1,181.2,144.08,181.22z"/>
		<path class="st0" d="M158.9,163.87c-0.03,0.03-0.06,0.05-0.08,0.08c-1.39,1.84-2.65,3.78-3.8,5.79c1.35-1.72,2.7-3.43,4.05-5.15
			C159.28,164.33,159.13,164,158.9,163.87z"/>
		<path class="st0" d="M158.39,163.98c-0.49,0.63-0.98,1.25-1.48,1.88c0.64-0.62,1.28-1.24,1.9-1.9c0.02-0.03,0.05-0.06,0.07-0.09
			C158.73,163.78,158.54,163.79,158.39,163.98z"/>
		<path class="st0" d="M158.89,163.86c-0.02,0.03-0.05,0.06-0.07,0.09c0.03-0.03,0.06-0.05,0.08-0.08
			C158.89,163.87,158.89,163.87,158.89,163.86z"/>
		<path class="st0" d="M155.56,144.06c-0.26-0.24-0.51-0.48-0.77-0.72c-1.8-0.49-3.65-0.76-5.37-0.84
			c-0.14-0.01-0.29-0.01-0.43-0.02c-0.11,0.05-0.23,0.05-0.34-0.01c-1.07-0.04-2.13-0.08-3.18-0.1c0.05,0.28-0.17,0.64-0.54,0.58
			c-0.15-0.03-0.3-0.06-0.45-0.09c0.1,0.17,0.1,0.42-0.04,0.59c1.28-0.02,2.6-0.03,3.91,0c0.19-0.09,0.39-0.17,0.6-0.24
			c0.27-0.09,0.47,0.07,0.54,0.27c3.6,0.16,7.11,0.72,9.84,2.46c0.32,0.08,0.64,0.17,0.96,0.29c0.27,0.1,0.3,0.35,0.2,0.55
			c1.17,0.98,2.14,2.25,2.86,3.88c0.32-0.02,0.64-0.04,0.97-0.07c0,0,0,0,0-0.01c-0.29-0.7-0.65-1.35-1.08-1.94
			c-0.16,0.45-0.93,0.24-0.86-0.31c0.03-0.23,0.05-0.46,0.05-0.68c-1.6-1.76-3.77-3.01-6.11-3.84
			C156.22,144.11,155.85,144.33,155.56,144.06z"/>
		<path class="st0" d="M143.9,142.74c-0.72-0.14-1.43-0.3-2.12-0.47c-6.9-0.23-13.36-0.9-19.68-5.28c-0.48-0.34-0.91,0.48-0.43,0.81
			c4.74,3.28,10.02,4.99,15.75,5.54c1.32,0.13,2.79,0.15,4.34,0.14C142.45,143.29,143.17,143.06,143.9,142.74z"/>
		<path class="st0" d="M163.42,150.85c0.22,0.54,1.1,0.28,0.88-0.26c-0.32,0.02-0.65,0.04-0.97,0.07
			C163.36,150.73,163.39,150.79,163.42,150.85z"/>
		<path class="st0" d="M163.25,148.55c0.18-1.41,0.13-2.78-0.34-4.14c-0.64-1.82-1.88-3.33-2.37-5.22c-0.15-0.57-1.02-0.3-0.88,0.27
			c0.76,2.97,2.86,5.06,2.75,8.2c0.29,0.31,0.56,0.64,0.8,0.99C163.23,148.61,163.24,148.59,163.25,148.55z"/>
		<path class="st0" d="M163.22,148.64c-0.25-0.35-0.52-0.67-0.8-0.99c-0.01,0.22-0.02,0.45-0.05,0.68
			C162.29,148.88,163.05,149.1,163.22,148.64z"/>
		<path class="st0" d="M159.85,147.04c0.27,0.11,0.52-0.05,0.63-0.25c-0.37-0.31-0.75-0.59-1.15-0.85c-3.79-0.93-7.4,1.28-10.19,3.7
			c-0.05,0.04-0.08,0.09-0.11,0.14c0.48-0.03,0.96-0.05,1.44-0.07C153.04,147.61,156.44,145.72,159.85,147.04z"/>
		<path class="st0" d="M149.8,150.26c0.21-0.18,0.43-0.37,0.66-0.55c-0.48,0.02-0.96,0.04-1.44,0.07
			C148.84,150.15,149.41,150.6,149.8,150.26z"/>
		<path class="st0" d="M160.28,146.23c-0.32-0.12-0.64-0.22-0.96-0.29c0.4,0.26,0.79,0.54,1.15,0.85
			C160.58,146.59,160.55,146.34,160.28,146.23z"/>
		<path class="st0" d="M146.9,136.07c1.93,0.79,3,2.19,4.34,3.69c1.12,1.26,2.33,2.42,3.56,3.58c0.51,0.14,1.01,0.3,1.51,0.48
			c0.04-0.14,0.02-0.3-0.12-0.43c-1.72-1.61-3.41-3.23-4.94-5.02c-1.08-1.26-2.09-2.27-3.58-2.96c-0.32,0.04-0.64,0.07-0.96,0.11
			C146.6,135.72,146.63,135.96,146.9,136.07z"/>
		<path class="st0" d="M155.56,144.06c0.29,0.27,0.66,0.05,0.74-0.24c-0.5-0.18-1-0.34-1.51-0.48
			C155.05,143.58,155.3,143.82,155.56,144.06z"/>
		<path class="st0" d="M149.15,141.7c-0.89-1.05-1.44-2.32-2.5-3.23c-0.93-0.8-2.03-1.35-3.13-1.89c-0.53-0.26-0.96,0.55-0.43,0.81
			c1.14,0.56,2.34,1.13,3.24,2.04c0.87,0.87,1.4,2.01,2.2,2.95c0.04,0.04,0.08,0.07,0.12,0.09c0.11,0,0.23,0.01,0.34,0.01
			C149.23,142.36,149.39,141.98,149.15,141.7z"/>
		<path class="st0" d="M148.99,142.48c-0.11,0-0.23-0.01-0.34-0.01C148.76,142.53,148.88,142.53,148.99,142.48z"/>
		<path class="st0" d="M131.57,138c1.17,1.76,2.94,2.14,4.86,2.72c1.81,0.55,3.56,1.09,5.35,1.54c1.22,0.04,2.44,0.07,3.69,0.1
			c-0.03-0.15-0.13-0.28-0.33-0.31c-2.12-0.35-4.22-0.72-6.25-1.44c-2.11-0.74-5.18-1.12-6.51-3.06c-0.27-0.01-0.54-0.02-0.8-0.03
			C131.48,137.65,131.45,137.82,131.57,138z"/>
		<path class="st0" d="M143.99,142.7c0.22-0.1,0.39-0.01,0.48,0.15c0.15,0.03,0.3,0.06,0.45,0.09c0.38,0.06,0.6-0.29,0.54-0.58
			c-1.24-0.03-2.47-0.06-3.69-0.1c0.7,0.18,1.4,0.33,2.12,0.47C143.93,142.72,143.96,142.71,143.99,142.7z"/>
		<path class="st0" d="M136.99,145.05c2.56,0.02,4.92-0.42,7.26-1.47c0.07-0.03,0.13-0.08,0.17-0.13c-0.91,0.01-1.81,0.03-2.69,0.03
			c-3.1,0.81-6.06,0.48-9.41,0.26c-2.5-0.16-4.49,0.12-6.38,1.82c-0.07,0.06-0.1,0.13-0.12,0.2c0.05,0.03,0.11,0.07,0.17,0.1
			c0.2,0.11,0.42,0.21,0.63,0.32C129.64,143.48,133.5,145.03,136.99,145.05z"/>
		<path class="st0" d="M144.47,142.85c-0.19-0.03-0.38-0.08-0.57-0.11c-0.73,0.32-1.44,0.55-2.15,0.74
			c0.87-0.01,1.77-0.02,2.69-0.03C144.58,143.27,144.57,143.02,144.47,142.85z"/>
		<path class="st0" d="M143.99,142.7c-0.03,0.01-0.06,0.02-0.09,0.04c0.19,0.04,0.38,0.08,0.57,0.11
			C144.38,142.69,144.21,142.6,143.99,142.7z"/>
		<path class="st0" d="M139.75,149.82c-0.16-0.08-0.32-0.17-0.48-0.25c0.07-0.05,0.14-0.11,0.21-0.17c-0.19,0-0.34,0.15-0.4,0.32
			c0.08,0.01,0.17,0.03,0.25,0.04C139.47,149.79,139.61,149.8,139.75,149.82z"/>
		<polygon class="st0" points="139.98,149.84 139.97,149.85 139.98,149.85 		"/>
		<path class="st0" d="M143.59,146.87c0.74-0.37,1.52-0.63,2.26-0.98c1.17-0.55,2.1-1.4,3.36-1.8c0.29-0.09,0.36-0.38,0.27-0.6
			c-0.38-0.02-0.76-0.03-1.14-0.04c-0.67,0.3-1.26,0.69-1.92,1.08c-1.06,0.62-2.23,0.98-3.33,1.53c-0.67,0.34-1.3,0.76-1.87,1.25
			c-0.63,0.54-1.11,1.54-1.74,2.09c0.01,0,0.01,0,0.02,0c0.02,0,0.05,0,0.07,0c0.29,0.01,0.44,0.24,0.45,0.46
			c0.07,0.01,0.15,0.02,0.22,0.03c0.17-0.23,0.29-0.5,0.65-0.94C141.65,148.04,142.55,147.39,143.59,146.87z"/>
		<path class="st0" d="M139.75,149.82c0.07,0.01,0.14,0.02,0.21,0.03c0,0,0.01-0.01,0.01-0.01c0,0,0,0.01,0,0.01
			c0.02,0,0.03,0,0.05,0.01c-0.01-0.22-0.16-0.45-0.45-0.46c-0.02,0-0.05,0-0.07,0c-0.01,0-0.01,0-0.02,0
			c-0.07,0.06-0.14,0.12-0.21,0.17C139.44,149.65,139.6,149.74,139.75,149.82z"/>
		<path class="st0" d="M139.6,150.31c-0.02,0-0.05,0-0.07,0c0.13-0.13,0.26-0.27,0.38-0.4c-0.05-0.03-0.11-0.06-0.16-0.09
			c-0.14-0.02-0.28-0.03-0.42-0.06c-0.08-0.01-0.16-0.03-0.25-0.04c-0.02,0.05-0.03,0.1-0.03,0.14c0,0.03,0,0.07,0,0.1
			c0.01,0.34,0.41,0.57,0.7,0.38c0.24-0.16,0.37-0.3,0.48-0.45c-0.07-0.01-0.15-0.02-0.22-0.03
			C140.04,150.09,139.9,150.33,139.6,150.31z"/>
		<path class="st0" d="M139.98,149.85C139.97,149.85,139.97,149.85,139.98,149.85c-0.03,0.02-0.04,0.04-0.06,0.06
			c0.02,0.01,0.04,0.02,0.07,0.04C139.98,149.91,139.98,149.88,139.98,149.85z"/>
		<path class="st0" d="M139.98,149.94c-0.02-0.01-0.04-0.02-0.07-0.04c-0.13,0.13-0.26,0.27-0.38,0.4c0.02,0,0.05,0,0.07,0
			c0.3,0.01,0.44-0.22,0.43-0.46c-0.02,0-0.03,0-0.05-0.01C139.98,149.88,139.98,149.91,139.98,149.94z"/>
		<path class="st0" d="M139.75,149.82c0.05,0.03,0.11,0.06,0.16,0.09c0.02-0.02,0.04-0.04,0.05-0.06
			C139.9,149.84,139.83,149.83,139.75,149.82z"/>
		<path class="st0" d="M148.94,143.21c-0.21,0.07-0.41,0.15-0.6,0.24c0.38,0.01,0.76,0.02,1.14,0.04
			C149.4,143.28,149.21,143.12,148.94,143.21z"/>
		<path class="st0" d="M152.34,144.24c-2.14,1.52-4.49,2.94-6.04,5.11c-0.15,0.21-0.1,0.44,0.03,0.6c0.23-0.01,0.47-0.03,0.7-0.04
			c1.5-2.07,3.75-3.43,5.81-4.89C153.3,144.67,152.82,143.9,152.34,144.24z"/>
		<path class="st0" d="M146.97,149.97c0.02-0.02,0.04-0.04,0.05-0.07c-0.23,0.01-0.47,0.03-0.7,0.04
			C146.48,150.16,146.77,150.24,146.97,149.97z"/>
		<path class="st0" d="M95.17,216.5c0.12,0.2,0.44,0.29,0.63,0.14c2.69-2.06,4.64-6.37,6.55-9.09c2.68-3.82,5.88-7.21,8.76-10.84
			c0.52-1.08,0.93-2.21,1.23-3.39c-1.57,2.15-3.32,4.16-5.04,6.21c0.26,0.2,0.28,0.69-0.12,0.8c-0.25,0.07-0.5,0.16-0.74,0.24
			c-0.4,0.49-0.81,0.99-1.2,1.5c-1.38,1.77-10.17,12.45-9.47,13.64c-0.17-0.29-0.49-0.25-0.68-0.07c-0.04,0.19-0.08,0.37-0.1,0.53
			c0.01,0.01,0,0.02,0.01,0.03C95.05,216.3,95.11,216.4,95.17,216.5z"/>
		<path class="st0" d="M116.3,186.56c-0.43,0.88-0.87,1.76-1.32,2.62c-0.5,0.95-1.06,1.85-1.64,2.72c0.19,0.19,0.24,0.52-0.07,0.68
			c-0.02,0.01-0.05,0.02-0.07,0.04c0.13,0.09,0.22,0.25,0.17,0.45c-0.07,0.34-0.18,0.67-0.27,1.01c0.03-0.05,0.07-0.09,0.1-0.14
			c1.22-1.75,2.26-3.63,3.23-5.55c0.04-0.74,0.16-1.47,0.33-2.19C116.6,186.32,116.45,186.44,116.3,186.56z"/>
		<path class="st0" d="M124.51,172.84c-0.14,0.09-0.28,0.17-0.43,0.26c-1.44,1.65-2.66,3.49-3.75,5.43c0.41-0.19,0.9,0.34,0.53,0.72
			c-0.67,0.68-1.33,1.39-2.01,2.07c-0.66,1.32-1.3,2.65-1.94,3.99c0.03,0.02,0.04,0.05,0.07,0.07c0.16-0.5,0.88-0.37,0.9,0.07
			c1.46-3.06,2.89-6.13,4.71-8.87C123.07,175.26,123.72,174.01,124.51,172.84z"/>
		<path class="st0" d="M130.35,168.2c-1.2,0.6-2.28,1.3-3.27,2.07c0.34-0.19,0.67-0.38,1.02-0.56c0.37-0.2,0.72,0.14,0.7,0.46
			c0.47-0.31,0.97-0.59,1.48-0.87c0.25-0.26,0.51-0.51,0.78-0.75C130.99,168.27,130.68,168.04,130.35,168.2z"/>
		<path class="st0" d="M125.69,172.71c0.59-0.59,1.21-1.15,1.88-1.67c-0.33,0.18-0.65,0.37-0.97,0.56
			C126.28,171.96,125.97,172.33,125.69,172.71z"/>
		<path class="st0" d="M130.84,168.97c0.2-0.1,0.25-0.27,0.21-0.44c-0.27,0.25-0.53,0.49-0.78,0.75
			C130.47,169.19,130.64,169.07,130.84,168.97z"/>
		<path class="st0" d="M94.99,216.17c0.03-0.16,0.06-0.34,0.1-0.53C94.95,215.77,94.88,215.96,94.99,216.17z"/>
		<path class="st0" d="M128.59,170.48c0.15-0.08,0.21-0.2,0.21-0.32c-0.42,0.28-0.84,0.57-1.23,0.88
			C127.91,170.85,128.24,170.66,128.59,170.48z"/>
		<path class="st0" d="M109.14,179.32c5.96-0.61,10.28-3.37,14.95-6.22c0.3-0.35,0.61-0.69,0.94-1.02c0.3-0.41,0.63-0.8,0.97-1.19
			c-5.39,3.16-9.95,6.69-16.54,7.47c-0.24,0.24-0.48,0.48-0.72,0.72C108.79,179.23,108.92,179.34,109.14,179.32z"/>
		<path class="st0" d="M126.61,170.65c0.16-0.13,0.31-0.26,0.47-0.38c-0.2,0.11-0.4,0.23-0.61,0.35
			C126.52,170.62,126.56,170.63,126.61,170.65z"/>
		<path class="st0" d="M109.12,178.4c-0.37,0.04-0.49,0.42-0.39,0.68c0.24-0.24,0.48-0.48,0.72-0.72
			C109.34,178.37,109.23,178.39,109.12,178.4z"/>
		<path class="st0" d="M125.02,172.08c-0.33,0.33-0.64,0.67-0.94,1.02c0.14-0.09,0.28-0.17,0.43-0.26
			C124.68,172.58,124.84,172.32,125.02,172.08z"/>
		<path class="st0" d="M126.78,171.37c-0.06,0.07-0.12,0.15-0.18,0.22c0.32-0.19,0.65-0.37,0.97-0.56c0.39-0.31,0.8-0.6,1.23-0.88
			c0.02-0.31-0.33-0.66-0.7-0.46c-0.34,0.18-0.68,0.37-1.02,0.56c-0.16,0.12-0.32,0.25-0.47,0.38
			C126.86,170.77,127.02,171.1,126.78,171.37z"/>
		<path class="st0" d="M126.1,170.75c-0.04,0.05-0.07,0.09-0.11,0.14c0.16-0.09,0.32-0.19,0.48-0.28
			C126.35,170.59,126.22,170.63,126.1,170.75z"/>
		<path class="st0" d="M125.69,172.71c-1.17,1.18-2.19,2.48-3.11,3.86c-0.81,2.17-1.19,4.49-1.13,6.88
			c0.01,0.31,0.27,0.45,0.51,0.42c0.14-0.26,0.27-0.52,0.41-0.78C122.34,179.3,123.48,175.72,125.69,172.71z"/>
		<path class="st0" d="M122.37,183.42c0-0.11,0.01-0.22,0.01-0.33c-0.14,0.26-0.27,0.52-0.41,0.78
			C122.18,183.85,122.38,183.7,122.37,183.42z"/>
		<path class="st0" d="M124.51,172.84c-0.79,1.18-1.44,2.42-1.93,3.73c0.92-1.38,1.94-2.68,3.11-3.86c0.28-0.38,0.59-0.75,0.9-1.12
			C125.89,172,125.19,172.42,124.51,172.84z"/>
		<path class="st0" d="M126.61,170.65c-0.04-0.02-0.09-0.03-0.13-0.04c-0.16,0.09-0.32,0.19-0.48,0.28
			c-0.34,0.39-0.66,0.78-0.97,1.19C125.52,171.57,126.05,171.1,126.61,170.65z"/>
		<path class="st0" d="M126.6,171.59c0.06-0.07,0.12-0.15,0.18-0.22c0.24-0.27,0.08-0.61-0.17-0.73c-0.55,0.46-1.09,0.93-1.58,1.43
			c-0.18,0.25-0.34,0.51-0.51,0.76C125.19,172.42,125.89,172,126.6,171.59z"/>
		<path class="st0" d="M116.86,191.54c0.02,0,0.03,0.01,0.05,0.01c0-0.02,0.01-0.04,0.01-0.06
			C116.9,191.51,116.88,191.52,116.86,191.54z"/>
		<path class="st0" d="M117.32,189.3c-0.02-1.27,0.18-2.5,0.54-3.71c0.02-0.06,0.02-0.1,0.01-0.15c-0.47,0.99-0.95,1.98-1.44,2.95
			c-0.02,0.38-0.03,0.76-0.02,1.14c0.02,0.59,0.14,1.16,0.19,1.75c0.02,0.31-0.07,0.63,0.12,0.89c0.06,0.08,0.15,0.14,0.24,0.18
			c0.19-0.27,0.35-0.5,0.47-0.68c-0.17-0.04-0.35-0.08-0.52-0.12c-0.04,0.19-0.09,0.38-0.13,0.57c-0.01-0.02-0.02-0.04-0.03-0.05
			c-0.3-0.49,0.43-0.97,0.75-0.51c0.02-0.03,0.04-0.06,0.06-0.09c0-0.02-0.01-0.04-0.01-0.05
			C117.54,190.72,117.34,190.01,117.32,189.3z"/>
		<path class="st0" d="M116.75,192.07c0.01,0.02,0.02,0.04,0.03,0.05c0.04-0.19,0.09-0.38,0.13-0.57c-0.02,0-0.03-0.01-0.05-0.01
			c0.02-0.02,0.04-0.03,0.07-0.05c0,0.02-0.01,0.04-0.01,0.06c0.17,0.04,0.35,0.08,0.52,0.12c0.03-0.04,0.05-0.08,0.07-0.11
			C117.18,191.1,116.45,191.57,116.75,192.07z"/>
		<path class="st0" d="M117.49,191.68c-0.02,0-0.04-0.01-0.06-0.01c-0.12,0.18-0.28,0.41-0.47,0.68c0.13,0.05,0.27,0.05,0.39-0.04
			c0.02-0.02,0.04-0.03,0.07-0.05c0.2-0.14,0.27-0.4,0.15-0.62c0,0,0,0.01,0,0.01C117.48,191.92,117.58,191.8,117.49,191.68z"/>
		<path class="st0" d="M117.52,191.58c-0.01-0.01-0.01-0.01-0.02-0.02c-0.02,0.03-0.05,0.07-0.07,0.11c0.02,0,0.04,0.01,0.06,0.01
			c0.09,0.12-0.01,0.24,0.07-0.03c0,0,0-0.01,0-0.01c0,0,0-0.01,0-0.01C117.55,191.61,117.54,191.6,117.52,191.58z"/>
		<path class="st0" d="M117.52,191.58c0.01,0.02,0.02,0.04,0.03,0.05c0,0,0,0.01,0,0.01c0.02-0.06,0.01-0.12,0-0.18
			c-0.02,0.03-0.03,0.05-0.06,0.09C117.51,191.56,117.52,191.57,117.52,191.58z"/>
		<path class="st0" d="M116.97,185.37c0.16,0.19,0.2,0.51-0.06,0.71c-0.05,0.04-0.11,0.08-0.16,0.12c-0.17,0.72-0.28,1.45-0.33,2.19
			c0.49-0.98,0.97-1.96,1.44-2.95C117.85,185,117.13,184.88,116.97,185.37z"/>
		<path class="st0" d="M112.44,193c-0.03,0.11-0.07,0.21-0.09,0.32c0.11-0.15,0.22-0.29,0.32-0.43
			C112.59,192.92,112.52,192.96,112.44,193z"/>
		<path class="st0" d="M111.03,198.88c0.88-1.54,1.59-3.12,2.07-4.8c-0.63,0.9-1.3,1.77-1.98,2.63c-0.56,1.18-1.22,2.31-1.91,3.44
			c-1.03,1.69-2.58,3.48-2.62,5.54c0,0.15,0.06,0.26,0.15,0.33c0.29-0.36,0.58-0.73,0.87-1.1
			C108.05,202.83,110.05,200.6,111.03,198.88z"/>
		<path class="st0" d="M107.51,205.66c0-0.24,0.05-0.49,0.1-0.74c-0.29,0.37-0.58,0.73-0.87,1.1
			C106.99,206.22,107.5,206.1,107.51,205.66z"/>
		<path class="st0" d="M113.2,192.62c-0.17,0.09-0.35,0.18-0.53,0.26c-0.1,0.15-0.21,0.29-0.32,0.43c-0.3,1.18-0.71,2.31-1.23,3.39
			c0.68-0.86,1.35-1.73,1.98-2.63c0.1-0.33,0.2-0.66,0.27-1.01C113.41,192.87,113.33,192.72,113.2,192.62z"/>
		<path class="st0" d="M102.07,188.57c3.59-3.57,8.5-2.42,12.78-4.29c1.55-0.68,2.82-1.78,4-2.97c0.47-0.94,0.96-1.88,1.48-2.79
			c-0.05,0.02-0.1,0.05-0.14,0.1c-1.36,1.38-2.73,3.04-4.36,4.11c-2.24,1.46-4.78,1.54-7.3,2c-2.35,0.43-4.32,0.98-6.1,2.34
			c-0.13,0.22-0.27,0.43-0.39,0.65c-0.18,0.31-0.33,0.62-0.5,0.93C101.7,188.73,101.9,188.73,102.07,188.57z"/>
		<path class="st0" d="M102.42,187.06c-0.35,0.26-0.69,0.55-1.03,0.88c-0.25,0.25-0.11,0.57,0.14,0.7c0.17-0.31,0.32-0.63,0.5-0.93
			C102.16,187.49,102.29,187.28,102.42,187.06z"/>
		<path class="st0" d="M120.33,178.53c-0.51,0.91-1,1.84-1.48,2.79c0.68-0.68,1.34-1.39,2.01-2.07
			C121.23,178.87,120.74,178.34,120.33,178.53z"/>
		<path class="st0" d="M99.72,194.44c2.2-2.2,3.82-3.64,7.04-4.17c0.85-0.14,1.73-0.03,2.59-0.17c2.67-0.45,4.85-1.94,6.95-3.55
			c0.2-0.42,0.41-0.84,0.61-1.26c-0.13-0.1-0.31-0.13-0.48,0.01c-1.82,1.41-3.71,2.96-5.97,3.62c-1.7,0.5-3.38,0.21-5.06,0.6
			c-2.36,0.56-4.15,2.13-5.83,3.78c-0.13,0.4-0.24,0.81-0.36,1.22C99.37,194.61,99.56,194.6,99.72,194.44z"/>
		<path class="st0" d="M99.05,193.82c-0.26,0.26-0.1,0.59,0.16,0.71c0.12-0.41,0.23-0.82,0.36-1.22
			C99.39,193.48,99.22,193.65,99.05,193.82z"/>
		<path class="st0" d="M116.97,185.38C116.97,185.38,116.97,185.38,116.97,185.38c-0.02-0.03-0.04-0.06-0.06-0.08
			c-0.2,0.42-0.41,0.84-0.61,1.26c0.15-0.12,0.31-0.23,0.46-0.35C116.82,185.93,116.89,185.65,116.97,185.38z"/>
		<path class="st0" d="M116.76,186.21c0.05-0.04,0.11-0.08,0.16-0.12c0.25-0.2,0.22-0.52,0.06-0.71c0,0,0,0,0,0.01
			C116.89,185.65,116.82,185.93,116.76,186.21z"/>
		<path class="st0" d="M97.99,203.67c2.12-1.52,3.29-3.73,5.07-5.58c2.24-2.34,6.29-3.6,9.37-5.09c0.01-0.05,0.03-0.09,0.04-0.14
			c0.05-0.25,0.25-0.34,0.44-0.33c0.14-0.21,0.28-0.42,0.41-0.63c-0.14-0.14-0.34-0.21-0.56-0.09c-2.96,1.59-6.63,2.53-9.28,4.6
			c-2.33,1.82-3.51,4.65-5.93,6.43c-0.02,0.14-0.04,0.27-0.06,0.41c-0.02,0.13-0.03,0.26-0.05,0.39
			C97.6,203.76,97.79,203.82,97.99,203.67z"/>
		<path class="st0" d="M97.57,202.84c-0.03,0.02-0.05,0.04-0.07,0.06c-0.28,0.2-0.22,0.55-0.04,0.73c0.02-0.13,0.03-0.26,0.05-0.39
			C97.53,203.11,97.56,202.98,97.57,202.84z"/>
		<path class="st0" d="M113.2,192.62c0.02-0.01,0.05-0.02,0.07-0.04c0.3-0.16,0.26-0.49,0.07-0.68c-0.14,0.21-0.27,0.42-0.41,0.63
			C113.02,192.53,113.12,192.56,113.2,192.62z"/>
		<path class="st0" d="M112.92,192.53c-0.19-0.01-0.39,0.09-0.44,0.33c-0.01,0.05-0.03,0.09-0.04,0.14
			c0.08-0.04,0.15-0.08,0.23-0.11C112.75,192.77,112.84,192.65,112.92,192.53z"/>
		<path class="st0" d="M113.2,192.62c-0.08-0.06-0.18-0.09-0.28-0.09c-0.08,0.12-0.17,0.24-0.25,0.36
			C112.84,192.8,113.03,192.71,113.2,192.62z"/>
		<path class="st0" d="M97.35,207.06c2.35-3.11,5.42-5.29,9.09-6.48c0.29-0.35,0.58-0.7,0.87-1.04c-0.1-0.08-0.23-0.12-0.39-0.08
			c-3.89,1.1-7.2,3.27-9.74,6.37c-0.06,0.46-0.13,0.92-0.19,1.39C97.11,207.23,97.24,207.19,97.35,207.06z"/>
		<path class="st0" d="M96.67,206.43c-0.25,0.33,0.01,0.73,0.31,0.78c0.06-0.46,0.13-0.92,0.19-1.39
			C97.01,206.03,96.83,206.22,96.67,206.43z"/>
		<path class="st0" d="M107.18,200.33c0.41-0.12,0.38-0.6,0.12-0.8c-0.29,0.35-0.58,0.69-0.87,1.04
			C106.69,200.49,106.93,200.41,107.18,200.33z"/>
		<path class="st0" d="M175.09,163.55c-2.37-3.92-1.86-8.62-4.16-12.46c-0.02-0.03-0.04-0.04-0.06-0.06
			c-0.18,0.29-0.37,0.57-0.56,0.85c1.15,2.1,1.28,4.37,1.78,6.68c0.42,1.98,1.18,3.75,2.23,5.48c0.15,0.25,0.41,0.25,0.6,0.14
			c0.08-0.11,0.15-0.21,0.23-0.32C175.17,163.77,175.16,163.66,175.09,163.55z"/>
		<path class="st0" d="M175.15,163.87c-0.07,0.11-0.15,0.21-0.23,0.32C175.04,164.11,175.12,164,175.15,163.87z"/>
		<path class="st0" d="M170.15,151.58c0.06,0.1,0.1,0.2,0.16,0.3c0.19-0.28,0.37-0.57,0.56-0.85c-0.03-0.03-0.05-0.06-0.08-0.08
			c-0.18,0.02-0.35,0.04-0.53,0.06C170.1,151.14,170.02,151.36,170.15,151.58z"/>
		<path class="st0" d="M170.26,151.01c0.18-0.02,0.35-0.04,0.53-0.06C170.62,150.84,170.41,150.88,170.26,151.01z"/>
		<path class="st0" d="M250.85,144.24c-0.01,0-0.02,0-0.03,0c0.43,0.51,0.86,1.03,1.28,1.56c0.02-0.01,0.04-0.01,0.06-0.02
			c0.05-0.02,0.1-0.02,0.14-0.03c-0.15-0.53-0.3-1.06-0.46-1.59c-0.16-0.2-0.31-0.39-0.47-0.59
			C251.48,143.85,251.26,144.28,250.85,144.24z"/>
		<path class="st0" d="M251.24,143.41c-0.51-0.62-1.02-1.21-1.54-1.79c0.16,0.54,0.31,1.09,0.47,1.63c0.3,0.03,0.6,0.07,0.9,0.1
			C251.13,143.36,251.19,143.38,251.24,143.41z"/>
		<path class="st0" d="M246.83,126.63c-0.14-0.48-0.27-0.96-0.41-1.43c-0.32,0.69-0.59,1.39-0.82,2.1c0.16,0.56,0.32,1.11,0.47,1.67
			C246.26,128.17,246.51,127.39,246.83,126.63z"/>
		<path class="st0" d="M251.24,143.41c0.04,0.05,0.09,0.11,0.13,0.17C251.34,143.51,251.3,143.45,251.24,143.41z"/>
		<path class="st0" d="M253.74,150.73c-0.16-0.54-0.32-1.07-0.47-1.61c-0.07,1.05-0.32,1.85-0.7,2.44c0.07,0.22,0.13,0.45,0.2,0.67
			C253.18,151.8,253.5,151.29,253.74,150.73z"/>
		<path class="st0" d="M250.26,143.58c0.06,0.2,0.12,0.41,0.18,0.61c0.13,0.01,0.25,0.03,0.38,0.04
			C250.63,144.02,250.45,143.8,250.26,143.58z"/>
		<path class="st0" d="M250.85,144.24c0.41,0.05,0.63-0.39,0.52-0.67c-0.04-0.05-0.09-0.11-0.13-0.17
			c-0.05-0.03-0.11-0.05-0.18-0.06c-0.3-0.03-0.6-0.07-0.9-0.1c0.03,0.11,0.06,0.22,0.1,0.34c0.18,0.21,0.37,0.43,0.55,0.65
			C250.82,144.24,250.84,144.24,250.85,144.24z"/>
		<path class="st0" d="M249.98,137.69c-0.14-0.49-0.28-0.98-0.43-1.48c-0.51-0.3-1.04-0.54-1.61-0.67c0.11,0.37,0.22,0.75,0.32,1.12
			C248.85,136.91,249.43,137.26,249.98,137.69z"/>
		<path class="st0" d="M250.99,146.11c0.09,0.3,0.17,0.6,0.26,0.91c0.38-0.09,0.77-0.2,1.17-0.37c0.05-0.02,0.08-0.05,0.12-0.07
			c-0.03-0.12-0.07-0.24-0.1-0.35c-0.11-0.14-0.23-0.29-0.34-0.43C251.74,145.93,251.37,146.03,250.99,146.11z"/>
		<path class="st0" d="M252.1,145.79c0.11,0.14,0.23,0.29,0.34,0.43c-0.05-0.16-0.09-0.32-0.14-0.47c-0.05,0-0.09,0-0.14,0.03
			C252.14,145.78,252.12,145.78,252.1,145.79z"/>
	</g>
</g>
</svg>
